<svg width="189" height="148" viewBox="0 0 189 148" fill="none" xmlns="http://www.w3.org/2000/svg">
<g id="Group 4207">
<g id="Group">
<path id="Vector" d="M57.6896 27.2101C50.3729 36.9325 -3.2827 137.673 3.60982 137.673C7.21514 137.673 89.1832 104.369 100.847 99.3007" stroke="#B5F602" stroke-width="5.06675" stroke-miterlimit="22.9256" stroke-linecap="round" stroke-linejoin="round"/>
<path id="Vector_2" d="M95.4394 32.485C81.1242 61.7556 65.5364 93.4052 55.3567 124.227C53.7661 128.882 46.1313 145.017 46.1313 145.224" stroke="#B5F602" stroke-width="5.06675" stroke-miterlimit="22.9256" stroke-linecap="round" stroke-linejoin="round"/>
<path id="Vector_3" d="M103.923 14.3848C103.286 15.2122 99.9991 20.0734 100.105 21.2111" stroke="#B5F602" stroke-width="5.06675" stroke-miterlimit="22.9256" stroke-linecap="round" stroke-linejoin="round"/>
<path id="Vector_4" d="M144.747 3.11096C128.524 23.2798 98.9387 81.0971 97.03 106.851C96.0757 120.504 80.7 132.915 114.632 114.402C117.814 112.643 145.278 98.6802 146.338 97.8527" stroke="#B5F602" stroke-width="5.06675" stroke-miterlimit="22.9256" stroke-linecap="round" stroke-linejoin="round"/>
<path id="Vector_5" d="M103.922 46.7584C110.815 44.2761 148.671 27.5204 153.231 24.2107" stroke="#B5F602" stroke-width="5.06675" stroke-miterlimit="22.9256" stroke-linecap="round" stroke-linejoin="round"/>
<path id="Vector_6" d="M140.082 116.573C172.742 105.196 198.933 50.2749 149.625 88.2337C130.114 103.231 99.3629 167.668 170.197 112.023C171.469 111.092 180.483 108.816 186.315 104.576" stroke="#B5F602" stroke-width="5.06675" stroke-miterlimit="22.9256" stroke-linecap="round" stroke-linejoin="round"/>
</g>
</g>
</svg>
