<?xml version="1.0" encoding="UTF-8"?>
<!DOCTYPE svg PUBLIC "-//W3C//DTD SVG 1.0//EN" "http://www.w3.org/TR/2001/REC-SVG-20010904/DTD/svg10.dtd">
<!-- Creator: CorelDRAW 2019 (64-Bit) -->
<svg xmlns="http://www.w3.org/2000/svg" xml:space="preserve" width="736px" height="190px" version="1.0" style="shape-rendering:geometricPrecision; text-rendering:geometricPrecision; image-rendering:optimizeQuality; fill-rule:evenodd; clip-rule:evenodd"
viewBox="0 0 736 190.01"
 xmlns:xlink="http://www.w3.org/1999/xlink"
 xmlns:xodm="http://www.corel.com/coreldraw/odm/2003">
 <defs>
  <style type="text/css">
   <![CDATA[
    .str0 {stroke:#00CCFF;stroke-width:20.82;stroke-miterlimit:22.9256}
    .fil5 {fill:none}
    .fil6 {fill:#FEFEFE}
    .fil2 {fill:black}
    .fil0 {fill:#00CCFF}
    .fil4 {fill:#FEFEFE;fill-rule:nonzero}
    .fil7 {fill:#FEFEFE;fill-rule:nonzero}
    .fil3 {fill:#2B2A29;fill-rule:nonzero}
    .fil1 {fill:#2A282B;fill-rule:nonzero}
   ]]>
  </style>
 </defs>
 <g id="Слой_x0020_1">
  <metadata id="CorelCorpID_0Corel-Layer"/>
  <g id="_2142121081568">
   <rect class="fil0 str0" x="31.53" y="18.88" width="681.7" height="147.7" rx="0.23" ry="0.2"/>
   <path class="fil1" d="M0 0l736 0 0 190.01 -736 0 0 -190.01zm735.94 0.08l-735.88 0 0 189.85 735.88 0 0 -189.85z"/>
   <polygon class="fil2" points="31.47,18.88 713.3,18.88 713.3,166.58 31.47,166.58 "/>
   <g>
    <path class="fil3" d="M31.47 18.88l681.83 0 0 147.7 -681.83 0 0 -147.7zm681.77 0.06l-681.71 0 0 147.58 681.71 0 0 -147.58z"/>
    <path id="1" class="fil4" d="M713.3 23.42l-681.83 0 0 -9.09 681.83 0 4.54 4.55 -4.54 4.54zm0 -9.09c2.51,0 4.54,2.03 4.54,4.55 0,2.51 -2.03,4.54 -4.54,4.54l0 -9.09zm-4.55 152.25l0 -147.7 9.09 0 0 147.7 -4.54 4.55 -4.55 -4.55zm9.09 0c0,2.51 -2.03,4.55 -4.54,4.55 -2.51,0 -4.55,-2.04 -4.55,-4.55l9.09 0zm-686.37 -4.55l681.83 0 0 9.1 -681.83 0 -4.54 -4.55 4.54 -4.55zm0 9.1c-2.51,0 -4.54,-2.04 -4.54,-4.55 0,-2.51 2.03,-4.55 4.54,-4.55l0 9.1zm4.55 -152.25l0 147.7 -9.09 0 0 -147.7 4.54 -4.55 4.55 4.55zm-9.09 0c0,-2.52 2.03,-4.55 4.54,-4.55 2.51,0 4.55,2.03 4.55,4.55l-9.09 0zm4.6 -4.49l681.71 0 0 9.09 -681.71 0 -4.54 -4.54 4.54 -4.55zm0 9.09c-2.51,0 -4.54,-2.03 -4.54,-4.54 0,-2.52 2.03,-4.55 4.54,-4.55l0 9.09zm-4.54 143.04l0 -147.58 9.09 0 0 147.58 -4.55 4.55 -4.54 -4.55zm9.09 0c0,2.51 -2.04,4.55 -4.55,4.55 -2.51,0 -4.54,-2.04 -4.54,-4.55l9.09 0zm677.16 4.55l-681.71 0 0 -9.1 681.71 0 4.54 4.55 -4.54 4.55zm0 -9.1c2.51,0 4.54,2.04 4.54,4.55 0,2.51 -2.03,4.55 -4.54,4.55l0 -9.1zm4.54 -143.03l0 147.58 -9.09 0 0 -147.58 4.55 -4.55 4.54 4.55zm-9.09 0c0,-2.52 2.04,-4.55 4.55,-4.55 2.51,0 4.54,2.03 4.54,4.55l-9.09 0z"/>
   </g>
   <path class="fil5" d="M205.57 141.42l-47.65 -119.02 -8.65 7.94c0.84,-3.77 1.51,-7.67 2.4,-11.46m-110.32 0c9.9,35.05 23.52,58.79 40.69,71.79l-14.34 22.39"/>
   <polyline class="fil5" points="67.25,113.26 78.44,108.2 58.91,147.42 73.18,143.35 "/>
   <path class="fil5" d="M73.18 143.35l-0.53 10.36 28.76 6c-12.56,-29.43 -2.78,-52.1 13.35,-69.69l-13.75 0.12c20.53,-17.3 49.73,-23.09 62.9,-14.51l1.43 -4.87c24.4,44.14 7.37,72.86 -30.16,95.42l4.08 0.4m55.72 0c-0.41,-11.89 7.62,-20.2 27.24,-25.55 -2.42,-2.04 -8.17,-1.83 -16.65,0.39"/>
   <path class="fil5" d="M72.23 50.89c9.05,1.98 17.23,4.73 23.19,9.46 1.95,-7.94 6.04,-15.55 12.79,-22.74 -8.92,-8.41 -23.81,-12.02 -41.77,-13.15 6.92,7.08 18.08,10.19 20.78,21.24 -5.54,-0.96 -10.35,1.7 -14.99,5.19z"/>
   <path class="fil5" d="M143.03 107.16c16.25,0.71 32.15,12.21 8.82,21.69 -8.87,3.61 -18.03,1.67 -20.46,-4.32 -2.44,-5.99 -3.96,-18.05 11.64,-17.37z"/>
   <line class="fil5" x1="78.12" y1="108.86" x2="78.07" y2= "108.37" />
   <path class="fil5" d="M143.18 106.94c15.97,0.69 31.58,11.99 8.66,21.31 -8.71,3.54 -17.71,1.64 -20.1,-4.25 -2.39,-5.88 -3.88,-17.73 11.44,-17.06z"/>
   <path class="fil5" d="M226.69 72.99c-10.96,11.64 -14.26,30.63 8.66,21.31 8.71,-3.54 13.83,-11.18 11.44,-17.06 -2.4,-5.89 -9.59,-15.42 -20.1,-4.25z"/>
   <path class="fil6" d="M151.84 128.25c22.92,-9.32 7.31,-20.62 -8.66,-21.31 -15.32,-0.67 -13.83,11.18 -11.44,17.06 2.39,5.89 11.39,7.79 20.1,4.25z"/>
   <path class="fil6" d="M101.01 90.14c20.53,-17.3 49.73,-23.09 62.9,-14.51l1.43 -4.87c24.4,44.14 7.37,72.86 -30.16,95.42l4.08 0.4 55.72 0c-0.41,-11.89 7.62,-20.2 27.24,-25.55 -2.42,-2.04 -8.17,-1.83 -16.65,0.39l-47.65 -119.02 -8.65 7.94c0.84,-3.77 1.51,-7.67 2.4,-11.46l-110.32 0c9.9,35.05 23.52,58.79 40.69,71.79l-14.34 22.39 10.37 -4.69 0.37 -0.17 -0.33 0.66 -19.2 38.56 14.27 -4.07 -0.53 10.36 28.76 6c-12.56,-29.43 -2.78,-52.1 13.35,-69.69l-13.75 0.12zm7.21 -52.53c-6.76,7.19 -10.85,14.8 -12.8,22.74 -5.96,-4.73 -14.14,-7.48 -23.19,-9.46 4.64,-3.49 9.45,-6.15 14.99,-5.19 -2.7,-11.05 -13.86,-14.16 -20.78,-21.24 17.96,1.13 32.85,4.74 41.78,13.15z"/>
   <path class="fil6" d="M246.53 77.34c-2.4,-5.88 -9.59,-15.41 -20.11,-4.24 -10.95,11.64 -14.25,30.62 8.67,21.31 8.71,-3.54 13.83,-11.18 11.44,-17.07z"/>
   <path class="fil7" d="M299.84 78.41c2.25,-12.45 7.91,-21.91 16.98,-28.4 9.07,-6.48 19.89,-9.73 32.46,-9.73 13.5,0 23.86,3.65 31.08,10.92 7.21,7.29 9.56,17.88 7.05,31.77l-3.38 19.26c-0.4,1.99 -1.59,2.98 -3.57,2.98l-55.2 0 -0.6 2.78c-1.98,10.46 2.58,15.69 13.7,15.69 8.34,0 16.95,-2.65 25.81,-7.94 2.12,-1.46 3.64,-1.13 4.57,0.99l8.14 15.29c0.93,2.25 0.53,3.83 -1.19,4.76 -11.78,8.08 -25.61,12.11 -41.5,12.11 -13.37,0 -23.86,-3.8 -31.47,-11.41 -7.61,-7.61 -10.29,-17.71 -8.04,-30.28l5.16 -28.79zm57.98 6.95l0.99 -4.97c0.8,-4.23 0.17,-7.77 -1.88,-10.62 -2.05,-2.85 -5.46,-4.27 -10.23,-4.27 -4.37,0 -8.04,1.26 -11.02,3.77 -2.98,2.52 -4.93,6.09 -5.86,10.73l-0.99 5.36 28.99 0zm103.45 -4.57l6.15 -34.75c0.4,-1.98 1.66,-2.98 3.77,-2.98l23.04 0c2.38,0 3.37,1.2 2.98,3.58l-17.28 96.5c-0.4,2.11 -1.65,3.17 -3.77,3.17l-23.03 0c-2.39,0 -3.38,-1.25 -2.98,-3.77l6.35 -35.94 -25.81 0 -6.75 36.54c-0.13,2.11 -1.32,3.17 -3.57,3.17l-22.84 0c-2.51,0 -3.57,-1.25 -3.18,-3.77l17.48 -96.5c0.13,-1.98 1.32,-2.98 3.57,-2.98l23.03 0c2.39,0 3.38,1.2 2.98,3.58l-5.95 34.15 25.81 0zm133.82 28.79c-2.25,12.57 -7.81,22.27 -16.68,29.09 -8.87,6.81 -20.58,10.22 -35.14,10.22 -13.24,0 -23.46,-4.33 -30.68,-13 -7.21,-8.67 -9.69,-19.36 -7.44,-32.07l4.17 -24.62c2.25,-12.04 7.94,-21.54 17.07,-28.49 9.14,-6.95 20.59,-10.43 34.35,-10.43 13.37,0 23.73,4.31 31.08,12.91 7.34,8.6 9.96,19.06 7.84,31.37l-4.57 25.02zm-60.16 -2.78c-0.93,4.9 -0.36,8.8 1.69,11.72 2.05,2.91 5.39,4.36 10.03,4.36 10.45,0 16.54,-4.96 18.26,-14.89l4.57 -25.41c0.79,-4.64 0.13,-8.51 -1.99,-11.62 -2.11,-3.11 -5.49,-4.66 -10.12,-4.66 -4.77,0 -8.74,1.35 -11.92,4.07 -3.17,2.71 -5.16,6.32 -5.95,10.82l-4.57 25.61zm83.59 -63.74l76.25 0c2.38,0 3.37,1.2 2.97,3.58l-3.37 19.06c-0.13,1.98 -1.32,2.98 -3.57,2.98l-23.24 0 -13.5 74.46c-0.39,2.11 -1.65,3.17 -3.77,3.17l-23.03 0c-2.38,0 -3.38,-1.25 -2.98,-3.77l13.3 -73.86 -23.03 0c-2.38,0 -3.37,-1.19 -2.98,-3.58l3.38 -19.06c0.13,-1.98 1.32,-2.98 3.57,-2.98z"/>
  </g>
 </g>
</svg>
