<svg width="233" height="129" viewBox="0 0 233 129" fill="none" xmlns="http://www.w3.org/2000/svg">
<g id="Group 4209">
<g id="Group">
<path id="Vector" d="M2.65698 121.88C13.2609 87.6443 23.1225 48.6512 28.7425 29.4133C34.0445 27.4481 32.5599 19.5875 32.5599 39.3426C32.5599 47.0998 32.2418 91.7815 34.1505 85.9894C37.5437 76.3705 46.2389 69.0269 53.9797 44.3072C54.828 41.618 67.0225 3.76268 67.7648 2.83181C70.6279 -0.581376 67.8708 107.296 67.8708 126.224" stroke="#00CCFF" stroke-width="5.06675" stroke-miterlimit="22.9256" stroke-linecap="round" stroke-linejoin="round"/>
<path id="Vector_2" d="M54.4039 106.158C59.7058 102.538 63.7353 100.263 70.8399 95.1945C114.104 64.0621 37.7558 71.3022 55.3582 108.434C64.0534 126.948 98.1979 99.3317 103.182 99.3317" stroke="#00CCFF" stroke-width="5.06675" stroke-miterlimit="22.9256" stroke-linecap="round" stroke-linejoin="round"/>
<path id="Vector_3" fill-rule="evenodd" clip-rule="evenodd" d="M107.953 82.4727C95.971 77.0944 91.0932 130.257 115.058 110.399C132.66 95.8152 112.407 79.1629 106.893 83.4036L107.953 82.4727Z" fill="black" stroke="#00CCFF" stroke-width="5.06675" stroke-miterlimit="22.9256" stroke-linecap="round" stroke-linejoin="round"/>
<path id="Vector_4" d="M129.903 36.6533C129.903 36.7568 110.604 118.88 127.783 113.088" stroke="#00CCFF" stroke-width="5.06675" stroke-miterlimit="22.9256" stroke-linecap="round" stroke-linejoin="round"/>
<path id="Vector_5" d="M155.353 57.3394C147.824 75.4396 136.69 102.642 134.251 122.086" stroke="#00CCFF" stroke-width="5.06675" stroke-miterlimit="22.9256" stroke-linecap="round" stroke-linejoin="round"/>
<path id="Vector_6" d="M163.2 31.1715C163.094 31.2749 158.958 41.7214 158.958 41.4111" stroke="#00CCFF" stroke-width="5.06675" stroke-miterlimit="22.9256" stroke-linecap="round" stroke-linejoin="round"/>
<path id="Vector_7" d="M156.095 80.7145C139.977 100.883 161.291 132.429 176.56 84.7483C179.423 75.9567 170.94 109.778 171.683 105.538C183.665 91.5746 195.966 72.2332 202.222 55.8913C207.736 57.8565 192.89 112.467 213.886 83.5071C236.79 51.7541 228.095 38.2048 228.095 62.8211C228.095 77.3013 228.095 91.7815 228.095 106.882" stroke="#00CCFF" stroke-width="5.06675" stroke-miterlimit="22.9256" stroke-linecap="round" stroke-linejoin="round"/>
</g>
</g>
</svg>
