<svg width="217" height="22" viewBox="0 0 217 22" fill="none" xmlns="http://www.w3.org/2000/svg">
<g id="Group 4289">
<g id="+7 (963) 069-66-99">
<path d="M39.3436 10.1913H43.507V11.9985H39.3436V16.1H37.4909V11.9985H33.3379V10.1913H37.4909V6.04917H39.3436V10.1913Z" fill="white"/>
<path d="M47.2332 18.4249L53.2077 5.67353H45.3076V3.58214H55.841V5.21667L49.8665 18.4249H47.2332Z" fill="white"/>
<path d="M63.1269 12.7294C63.1269 11.5924 63.238 10.4824 63.46 9.39946C63.689 8.31653 64.0359 7.28438 64.5009 6.30298C64.9658 5.32158 65.5521 4.41463 66.2599 3.58214H68.3936C67.4014 4.87488 66.6519 6.30636 66.1454 7.8766C65.6458 9.44683 65.396 11.0577 65.396 12.7091C65.396 13.7853 65.507 14.8513 65.7291 15.9071C65.9511 16.963 66.2842 17.9782 66.7283 18.9529C67.1724 19.9343 67.7205 20.8547 68.3728 21.7143H66.2599C65.5521 20.9021 64.9658 20.0155 64.5009 19.0544C64.0359 18.0933 63.689 17.078 63.46 16.0087C63.238 14.9393 63.1269 13.8462 63.1269 12.7294Z" fill="white"/>
<path d="M80.2801 9.90708C80.2801 10.7869 80.2142 11.6499 80.0823 12.4959C79.9574 13.342 79.7354 14.1339 79.4162 14.8716C79.1039 15.6093 78.6703 16.2625 78.1151 16.831C77.567 17.3928 76.8731 17.8327 76.0334 18.1508C75.1938 18.4689 74.1807 18.628 72.9942 18.628C72.6958 18.628 72.3488 18.6111 71.9533 18.5772C71.5647 18.5501 71.2455 18.5095 70.9957 18.4554V16.4655C71.2594 16.54 71.5543 16.6009 71.8805 16.6483C72.2135 16.6889 72.5431 16.7092 72.8693 16.7092C74.153 16.7092 75.1522 16.4757 75.8669 16.0087C76.5886 15.5417 77.0986 14.8987 77.397 14.0797C77.7023 13.2607 77.8757 12.3301 77.9174 11.2878H77.7925C77.5912 11.6127 77.338 11.9105 77.0327 12.1812C76.7273 12.4452 76.3492 12.6584 75.8981 12.8208C75.4471 12.9765 74.8989 13.0543 74.2536 13.0543C73.3793 13.0543 72.616 12.875 71.9637 12.5162C71.3184 12.1575 70.8153 11.6364 70.4545 10.9528C70.1006 10.2624 69.9237 9.4333 69.9237 8.46544C69.9237 7.41636 70.1284 6.51279 70.5378 5.75475C70.9472 4.9967 71.5266 4.41463 72.276 4.00854C73.0254 3.59567 73.9066 3.38924 74.9197 3.38924C75.683 3.38924 76.3873 3.52461 77.0327 3.79534C77.6849 4.0593 78.2539 4.4654 78.7396 5.01362C79.2254 5.55509 79.6035 6.2353 79.8742 7.05425C80.1448 7.86645 80.2801 8.81739 80.2801 9.90708ZM74.951 5.35881C74.1807 5.35881 73.5528 5.61262 73.067 6.12023C72.5813 6.62109 72.3384 7.39267 72.3384 8.43498C72.3384 9.28101 72.5466 9.95107 72.9629 10.4452C73.3793 10.9392 74.0177 11.1863 74.8781 11.1863C75.4749 11.1863 75.9883 11.0678 76.4186 10.8309C76.8557 10.5873 77.1923 10.2793 77.4282 9.90708C77.671 9.53482 77.7925 9.1558 77.7925 8.77001C77.7925 8.37068 77.7335 7.97135 77.6155 7.57203C77.5045 7.1727 77.331 6.80721 77.0951 6.47557C76.8592 6.14392 76.5608 5.87658 76.2 5.67353C75.8461 5.46371 75.4298 5.35881 74.951 5.35881Z" fill="white"/>
<path d="M82.2161 12.1C82.2161 11.2269 82.2785 10.3673 82.4034 9.52128C82.5353 8.67525 82.7573 7.88337 83.0696 7.14563C83.3818 6.40789 83.812 5.75813 84.3602 5.19637C84.9153 4.6346 85.6127 4.19467 86.4523 3.87656C87.2919 3.55168 88.3016 3.38924 89.4812 3.38924C89.7865 3.38924 90.13 3.40278 90.5116 3.42985C90.8933 3.45692 91.209 3.50092 91.4588 3.56183V5.54155C91.1882 5.4671 90.8898 5.40957 90.5637 5.36896C90.2445 5.32835 89.9253 5.30804 89.6061 5.30804C88.3293 5.30804 87.3336 5.54493 86.6189 6.01871C85.9041 6.48572 85.3941 7.12871 85.0888 7.94766C84.7835 8.75986 84.6066 9.69049 84.558 10.7396H84.6829C84.8911 10.4012 85.1513 10.1 85.4635 9.83601C85.7758 9.57205 86.1574 9.36223 86.6084 9.20656C87.0595 9.04412 87.5834 8.9629 88.1801 8.9629C89.0683 8.9629 89.842 9.14565 90.5012 9.51113C91.1604 9.86985 91.667 10.391 92.0209 11.0746C92.3817 11.7582 92.5621 12.5873 92.5621 13.5619C92.5621 14.611 92.3574 15.5146 91.948 16.2726C91.5455 17.0307 90.9696 17.6127 90.2202 18.0188C89.4777 18.4249 88.593 18.628 87.566 18.628C86.8097 18.628 86.1054 18.4926 85.4531 18.2219C84.8078 17.9512 84.2423 17.5451 83.7565 17.0036C83.2708 16.4621 82.8926 15.7853 82.622 14.9731C82.3514 14.1542 82.2161 13.1964 82.2161 12.1ZM87.5244 16.6584C88.3154 16.6584 88.9504 16.408 89.4291 15.9071C89.9149 15.3995 90.1577 14.6246 90.1577 13.5822C90.1577 12.7362 89.9426 12.0661 89.5124 11.5721C89.0891 11.078 88.4508 10.8309 87.5973 10.8309C87.0144 10.8309 86.5044 10.9528 86.0672 11.1964C85.6301 11.4401 85.29 11.748 85.0472 12.1203C84.8113 12.4925 84.6933 12.8716 84.6933 13.2574C84.6933 13.6499 84.7523 14.0459 84.8702 14.4452C84.9882 14.8445 85.1651 15.2134 85.4011 15.5518C85.637 15.8834 85.9319 16.1508 86.2858 16.3538C86.6397 16.5569 87.0525 16.6584 87.5244 16.6584Z" fill="white"/>
<path d="M104.116 6.97304C104.116 7.64309 103.977 8.22516 103.699 8.71925C103.422 9.21333 103.04 9.61942 102.554 9.93753C102.075 10.2489 101.52 10.4722 100.889 10.6076V10.6787C102.103 10.8276 103.019 11.1998 103.637 11.7954C104.261 12.391 104.573 13.1795 104.573 14.1609C104.573 15.0205 104.362 15.7887 103.939 16.4655C103.515 17.1356 102.866 17.6635 101.992 18.0493C101.118 18.4351 99.9937 18.628 98.6198 18.628C97.7941 18.628 97.0273 18.5637 96.3196 18.4351C95.6187 18.3065 94.9526 18.1001 94.3211 17.8158V15.6939C94.9665 16.0053 95.6534 16.2456 96.382 16.4148C97.1106 16.584 97.801 16.6686 98.4533 16.6686C99.7231 16.6686 100.629 16.4384 101.17 15.9782C101.711 15.5112 101.982 14.8682 101.982 14.0492C101.982 13.5213 101.84 13.0882 101.555 12.7497C101.277 12.4113 100.844 12.1575 100.254 11.9883C99.6711 11.8191 98.9182 11.7345 97.9953 11.7345H96.6526V9.8157H98.0057C98.887 9.8157 99.5948 9.71418 100.129 9.51113C100.663 9.30132 101.048 9.01367 101.284 8.64818C101.527 8.28269 101.649 7.85629 101.649 7.36898C101.649 6.73276 101.437 6.23868 101.014 5.88673C100.59 5.52801 99.9625 5.34865 99.1298 5.34865C98.6164 5.34865 98.148 5.40618 97.7247 5.52124C97.3084 5.6363 96.9232 5.78182 96.5694 5.9578C96.2155 6.13377 95.8789 6.32328 95.5597 6.52633L94.3836 4.87149C94.9595 4.45186 95.6465 4.09653 96.4445 3.80549C97.2424 3.51446 98.1723 3.36894 99.2339 3.36894C100.795 3.36894 101.999 3.6972 102.846 4.35372C103.692 5.00347 104.116 5.87658 104.116 6.97304Z" fill="white"/>
<path d="M111.537 12.7193C111.537 13.8428 111.426 14.9393 111.204 16.0087C110.982 17.078 110.638 18.0933 110.173 19.0544C109.715 20.0155 109.125 20.9021 108.404 21.7143H106.301C106.954 20.8547 107.502 19.9343 107.946 18.9529C108.39 17.9715 108.723 16.9528 108.945 15.897C109.167 14.8411 109.278 13.7751 109.278 12.699C109.278 11.6025 109.164 10.5196 108.935 9.45022C108.713 8.38083 108.38 7.35206 107.935 6.36389C107.491 5.36896 106.94 4.44171 106.28 3.58214H108.404C109.125 4.41463 109.715 5.32158 110.173 6.30298C110.638 7.28438 110.982 8.31653 111.204 9.39946C111.426 10.4756 111.537 11.5822 111.537 12.7193Z" fill="white"/>
<path d="M129.2 10.9934C129.2 12.1914 129.103 13.2641 128.908 14.2117C128.721 15.1525 128.423 15.9511 128.013 16.6077C127.604 17.2642 127.07 17.765 126.41 18.1102C125.751 18.4554 124.953 18.628 124.016 18.628C122.844 18.628 121.876 18.3268 121.113 17.7244C120.349 17.1153 119.784 16.2422 119.416 15.1051C119.048 13.9613 118.864 12.5907 118.864 10.9934C118.864 9.39607 119.031 8.02888 119.364 6.89182C119.704 5.74798 120.252 4.87149 121.008 4.26235C121.765 3.6532 122.767 3.34863 124.016 3.34863C125.196 3.34863 126.168 3.6532 126.931 4.26235C127.701 4.86472 128.27 5.73783 128.638 6.88166C129.013 8.01873 129.2 9.3893 129.2 10.9934ZM121.331 10.9934C121.331 12.2455 121.414 13.2912 121.581 14.1305C121.754 14.9697 122.039 15.5992 122.434 16.0188C122.83 16.4317 123.357 16.6381 124.016 16.6381C124.676 16.6381 125.203 16.4317 125.599 16.0188C125.994 15.6059 126.279 14.9799 126.452 14.1406C126.632 13.3014 126.723 12.2523 126.723 10.9934C126.723 9.74802 126.636 8.70571 126.462 7.86645C126.289 7.02718 126.005 6.39773 125.609 5.9781C125.213 5.5517 124.683 5.3385 124.016 5.3385C123.35 5.3385 122.82 5.5517 122.424 5.9781C122.035 6.39773 121.754 7.02718 121.581 7.86645C121.414 8.70571 121.331 9.74802 121.331 10.9934Z" fill="white"/>
<path d="M131.115 12.1C131.115 11.2269 131.178 10.3673 131.302 9.52128C131.434 8.67525 131.656 7.88337 131.969 7.14563C132.281 6.40789 132.711 5.75813 133.259 5.19637C133.814 4.6346 134.512 4.19467 135.351 3.87656C136.191 3.55168 137.201 3.38924 138.38 3.38924C138.686 3.38924 139.029 3.40278 139.411 3.42985C139.792 3.45692 140.108 3.50092 140.358 3.56183V5.54155C140.087 5.4671 139.789 5.40957 139.463 5.36896C139.143 5.32835 138.824 5.30804 138.505 5.30804C137.228 5.30804 136.233 5.54493 135.518 6.01871C134.803 6.48572 134.293 7.12871 133.988 7.94766C133.683 8.75986 133.506 9.69049 133.457 10.7396H133.582C133.79 10.4012 134.05 10.1 134.363 9.83601C134.675 9.57205 135.056 9.36223 135.507 9.20656C135.958 9.04412 136.482 8.9629 137.079 8.9629C137.967 8.9629 138.741 9.14565 139.4 9.51113C140.059 9.86985 140.566 10.391 140.92 11.0746C141.281 11.7582 141.461 12.5873 141.461 13.5619C141.461 14.611 141.256 15.5146 140.847 16.2726C140.445 17.0307 139.869 17.6127 139.119 18.0188C138.377 18.4249 137.492 18.628 136.465 18.628C135.709 18.628 135.004 18.4926 134.352 18.2219C133.707 17.9512 133.141 17.5451 132.656 17.0036C132.17 16.4621 131.792 15.7853 131.521 14.9731C131.25 14.1542 131.115 13.1964 131.115 12.1ZM136.423 16.6584C137.214 16.6584 137.849 16.408 138.328 15.9071C138.814 15.3995 139.057 14.6246 139.057 13.5822C139.057 12.7362 138.842 12.0661 138.411 11.5721C137.988 11.078 137.35 10.8309 136.496 10.8309C135.913 10.8309 135.403 10.9528 134.966 11.1964C134.529 11.4401 134.189 11.748 133.946 12.1203C133.71 12.4925 133.592 12.8716 133.592 13.2574C133.592 13.6499 133.651 14.0459 133.769 14.4452C133.887 14.8445 134.064 15.2134 134.3 15.5518C134.536 15.8834 134.831 16.1508 135.185 16.3538C135.539 16.5569 135.952 16.6584 136.423 16.6584Z" fill="white"/>
<path d="M153.577 9.90708C153.577 10.7869 153.511 11.6499 153.379 12.4959C153.254 13.342 153.032 14.1339 152.713 14.8716C152.4 15.6093 151.967 16.2625 151.412 16.831C150.863 17.3928 150.17 17.8327 149.33 18.1508C148.49 18.4689 147.477 18.628 146.291 18.628C145.992 18.628 145.645 18.6111 145.25 18.5772C144.861 18.5501 144.542 18.5095 144.292 18.4554V16.4655C144.556 16.54 144.851 16.6009 145.177 16.6483C145.51 16.6889 145.84 16.7092 146.166 16.7092C147.449 16.7092 148.449 16.4757 149.163 16.0087C149.885 15.5417 150.395 14.8987 150.693 14.0797C150.999 13.2607 151.172 12.3301 151.214 11.2878H151.089C150.888 11.6127 150.634 11.9105 150.329 12.1812C150.024 12.4452 149.646 12.6584 149.195 12.8208C148.744 12.9765 148.195 13.0543 147.55 13.0543C146.676 13.0543 145.912 12.875 145.26 12.5162C144.615 12.1575 144.112 11.6364 143.751 10.9528C143.397 10.2624 143.22 9.4333 143.22 8.46544C143.22 7.41636 143.425 6.51279 143.834 5.75475C144.244 4.9967 144.823 4.41463 145.572 4.00854C146.322 3.59567 147.203 3.38924 148.216 3.38924C148.979 3.38924 149.684 3.52461 150.329 3.79534C150.981 4.0593 151.55 4.4654 152.036 5.01362C152.522 5.55509 152.9 6.2353 153.171 7.05425C153.441 7.86645 153.577 8.81739 153.577 9.90708ZM148.247 5.35881C147.477 5.35881 146.849 5.61262 146.363 6.12023C145.878 6.62109 145.635 7.39267 145.635 8.43498C145.635 9.28101 145.843 9.95107 146.259 10.4452C146.676 10.9392 147.314 11.1863 148.175 11.1863C148.771 11.1863 149.285 11.0678 149.715 10.8309C150.152 10.5873 150.489 10.2793 150.725 9.90708C150.968 9.53482 151.089 9.1558 151.089 8.77001C151.089 8.37068 151.03 7.97135 150.912 7.57203C150.801 7.1727 150.627 6.80721 150.392 6.47557C150.156 6.14392 149.857 5.87658 149.496 5.67353C149.143 5.46371 148.726 5.35881 148.247 5.35881Z" fill="white"/>
<path d="M155.284 13.8564V11.836H160.654V13.8564H155.284Z" fill="white"/>
<path d="M162.382 12.1C162.382 11.2269 162.445 10.3673 162.569 9.52128C162.701 8.67525 162.923 7.88337 163.236 7.14563C163.548 6.40789 163.978 5.75813 164.526 5.19637C165.081 4.6346 165.779 4.19467 166.618 3.87656C167.458 3.55168 168.468 3.38924 169.647 3.38924C169.953 3.38924 170.296 3.40278 170.678 3.42985C171.059 3.45692 171.375 3.50092 171.625 3.56183V5.54155C171.354 5.4671 171.056 5.40957 170.73 5.36896C170.411 5.32835 170.091 5.30804 169.772 5.30804C168.495 5.30804 167.5 5.54493 166.785 6.01871C166.07 6.48572 165.56 7.12871 165.255 7.94766C164.95 8.75986 164.773 9.69049 164.724 10.7396H164.849C165.057 10.4012 165.317 10.1 165.63 9.83601C165.942 9.57205 166.323 9.36223 166.775 9.20656C167.226 9.04412 167.749 8.9629 168.346 8.9629C169.234 8.9629 170.008 9.14565 170.667 9.51113C171.326 9.86985 171.833 10.391 172.187 11.0746C172.548 11.7582 172.728 12.5873 172.728 13.5619C172.728 14.611 172.523 15.5146 172.114 16.2726C171.712 17.0307 171.136 17.6127 170.386 18.0188C169.644 18.4249 168.759 18.628 167.732 18.628C166.976 18.628 166.271 18.4926 165.619 18.2219C164.974 17.9512 164.408 17.5451 163.923 17.0036C163.437 16.4621 163.059 15.7853 162.788 14.9731C162.517 14.1542 162.382 13.1964 162.382 12.1ZM167.69 16.6584C168.481 16.6584 169.116 16.408 169.595 15.9071C170.081 15.3995 170.324 14.6246 170.324 13.5822C170.324 12.7362 170.109 12.0661 169.678 11.5721C169.255 11.078 168.617 10.8309 167.763 10.8309C167.18 10.8309 166.67 10.9528 166.233 11.1964C165.796 11.4401 165.456 11.748 165.213 12.1203C164.977 12.4925 164.859 12.8716 164.859 13.2574C164.859 13.6499 164.918 14.0459 165.036 14.4452C165.154 14.8445 165.331 15.2134 165.567 15.5518C165.803 15.8834 166.098 16.1508 166.452 16.3538C166.806 16.5569 167.219 16.6584 167.69 16.6584Z" fill="white"/>
<path d="M174.581 12.1C174.581 11.2269 174.643 10.3673 174.768 9.52128C174.9 8.67525 175.122 7.88337 175.434 7.14563C175.747 6.40789 176.177 5.75813 176.725 5.19637C177.28 4.6346 177.977 4.19467 178.817 3.87656C179.657 3.55168 180.666 3.38924 181.846 3.38924C182.151 3.38924 182.495 3.40278 182.876 3.42985C183.258 3.45692 183.574 3.50092 183.824 3.56183V5.54155C183.553 5.4671 183.255 5.40957 182.928 5.36896C182.609 5.32835 182.29 5.30804 181.971 5.30804C180.694 5.30804 179.698 5.54493 178.984 6.01871C178.269 6.48572 177.759 7.12871 177.454 7.94766C177.148 8.75986 176.971 9.69049 176.923 10.7396H177.048C177.256 10.4012 177.516 10.1 177.828 9.83601C178.141 9.57205 178.522 9.36223 178.973 9.20656C179.424 9.04412 179.948 8.9629 180.545 8.9629C181.433 8.9629 182.207 9.14565 182.866 9.51113C183.525 9.86985 184.032 10.391 184.386 11.0746C184.746 11.7582 184.927 12.5873 184.927 13.5619C184.927 14.611 184.722 15.5146 184.313 16.2726C183.91 17.0307 183.334 17.6127 182.585 18.0188C181.842 18.4249 180.958 18.628 179.931 18.628C179.174 18.628 178.47 18.4926 177.818 18.2219C177.173 17.9512 176.607 17.5451 176.121 17.0036C175.636 16.4621 175.257 15.7853 174.987 14.9731C174.716 14.1542 174.581 13.1964 174.581 12.1ZM179.889 16.6584C180.68 16.6584 181.315 16.408 181.794 15.9071C182.28 15.3995 182.523 14.6246 182.523 13.5822C182.523 12.7362 182.307 12.0661 181.877 11.5721C181.454 11.078 180.816 10.8309 179.962 10.8309C179.379 10.8309 178.869 10.9528 178.432 11.1964C177.995 11.4401 177.655 11.748 177.412 12.1203C177.176 12.4925 177.058 12.8716 177.058 13.2574C177.058 13.6499 177.117 14.0459 177.235 14.4452C177.353 14.8445 177.53 15.2134 177.766 15.5518C178.002 15.8834 178.297 16.1508 178.651 16.3538C179.004 16.5569 179.417 16.6584 179.889 16.6584Z" fill="white"/>
<path d="M186.551 13.8564V11.836H191.921V13.8564H186.551Z" fill="white"/>
<path d="M203.912 9.90708C203.912 10.7869 203.846 11.6499 203.714 12.4959C203.589 13.342 203.367 14.1339 203.048 14.8716C202.736 15.6093 202.302 16.2625 201.747 16.831C201.199 17.3928 200.505 17.8327 199.665 18.1508C198.826 18.4689 197.813 18.628 196.626 18.628C196.328 18.628 195.981 18.6111 195.585 18.5772C195.197 18.5501 194.877 18.5095 194.628 18.4554V16.4655C194.891 16.54 195.186 16.6009 195.512 16.6483C195.845 16.6889 196.175 16.7092 196.501 16.7092C197.785 16.7092 198.784 16.4757 199.499 16.0087C200.22 15.5417 200.73 14.8987 201.029 14.0797C201.334 13.2607 201.508 12.3301 201.549 11.2878H201.424C201.223 11.6127 200.97 11.9105 200.664 12.1812C200.359 12.4452 199.981 12.6584 199.53 12.8208C199.079 12.9765 198.531 13.0543 197.885 13.0543C197.011 13.0543 196.248 12.875 195.596 12.5162C194.95 12.1575 194.447 11.6364 194.086 10.9528C193.732 10.2624 193.556 9.4333 193.556 8.46544C193.556 7.41636 193.76 6.51279 194.17 5.75475C194.579 4.9967 195.158 4.41463 195.908 4.00854C196.657 3.59567 197.538 3.38924 198.552 3.38924C199.315 3.38924 200.019 3.52461 200.664 3.79534C201.317 4.0593 201.886 4.4654 202.371 5.01362C202.857 5.55509 203.235 6.2353 203.506 7.05425C203.777 7.86645 203.912 8.81739 203.912 9.90708ZM198.583 5.35881C197.813 5.35881 197.185 5.61262 196.699 6.12023C196.213 6.62109 195.97 7.39267 195.97 8.43498C195.97 9.28101 196.178 9.95107 196.595 10.4452C197.011 10.9392 197.649 11.1863 198.51 11.1863C199.107 11.1863 199.62 11.0678 200.05 10.8309C200.488 10.5873 200.824 10.2793 201.06 9.90708C201.303 9.53482 201.424 9.1558 201.424 8.77001C201.424 8.37068 201.365 7.97135 201.247 7.57203C201.136 7.1727 200.963 6.80721 200.727 6.47557C200.491 6.14392 200.193 5.87658 199.832 5.67353C199.478 5.46371 199.062 5.35881 198.583 5.35881Z" fill="white"/>
<path d="M216.111 9.90708C216.111 10.7869 216.045 11.6499 215.913 12.4959C215.788 13.342 215.566 14.1339 215.247 14.8716C214.935 15.6093 214.501 16.2625 213.946 16.831C213.398 17.3928 212.704 17.8327 211.864 18.1508C211.024 18.4689 210.011 18.628 208.825 18.628C208.526 18.628 208.179 18.6111 207.784 18.5772C207.395 18.5501 207.076 18.5095 206.826 18.4554V16.4655C207.09 16.54 207.385 16.6009 207.711 16.6483C208.044 16.6889 208.374 16.7092 208.7 16.7092C209.984 16.7092 210.983 16.4757 211.697 16.0087C212.419 15.5417 212.929 14.8987 213.228 14.0797C213.533 13.2607 213.706 12.3301 213.748 11.2878H213.623C213.422 11.6127 213.169 11.9105 212.863 12.1812C212.558 12.4452 212.18 12.6584 211.729 12.8208C211.278 12.9765 210.729 13.0543 210.084 13.0543C209.21 13.0543 208.447 12.875 207.794 12.5162C207.149 12.1575 206.646 11.6364 206.285 10.9528C205.931 10.2624 205.754 9.4333 205.754 8.46544C205.754 7.41636 205.959 6.51279 206.368 5.75475C206.778 4.9967 207.357 4.41463 208.107 4.00854C208.856 3.59567 209.737 3.38924 210.75 3.38924C211.514 3.38924 212.218 3.52461 212.863 3.79534C213.515 4.0593 214.084 4.4654 214.57 5.01362C215.056 5.55509 215.434 6.2353 215.705 7.05425C215.975 7.86645 216.111 8.81739 216.111 9.90708ZM210.782 5.35881C210.011 5.35881 209.383 5.61262 208.898 6.12023C208.412 6.62109 208.169 7.39267 208.169 8.43498C208.169 9.28101 208.377 9.95107 208.794 10.4452C209.21 10.9392 209.848 11.1863 210.709 11.1863C211.305 11.1863 211.819 11.0678 212.249 10.8309C212.686 10.5873 213.023 10.2793 213.259 9.90708C213.502 9.53482 213.623 9.1558 213.623 8.77001C213.623 8.37068 213.564 7.97135 213.446 7.57203C213.335 7.1727 213.162 6.80721 212.926 6.47557C212.69 6.14392 212.391 5.87658 212.031 5.67353C211.677 5.46371 211.26 5.35881 210.782 5.35881Z" fill="white"/>
</g>
<g id="Group 4260">
<path id="Ellipse 34" d="M21.6801 10.6275C21.6801 16.3691 16.9082 21.0235 11.0218 21.0235C5.1354 21.0235 0.363525 16.3691 0.363525 10.6275C0.363525 4.88591 5.1354 0.231445 11.0218 0.231445C16.9082 0.231445 21.6801 4.88591 21.6801 10.6275Z" fill="#B5F602"/>
<g id="Group">
<path id="Vector" d="M8.37333 3.87109H14.2003C14.7919 3.87109 15.3321 4.10778 15.722 4.48802C16.1084 4.86826 16.3512 5.39206 16.3512 5.96909V15.465C16.3512 16.042 16.1084 16.5658 15.722 16.946C15.3321 17.3263 14.7919 17.563 14.2003 17.563H8.37333C7.78174 17.563 7.24489 17.3263 6.85506 16.946C6.46523 16.5658 6.22583 16.042 6.22583 15.465V5.96909C6.22583 5.39206 6.46523 4.86826 6.85506 4.48802C7.24489 4.10778 7.78174 3.87109 8.37333 3.87109ZM14.2003 4.73818H8.37333C8.02795 4.73818 7.7134 4.87829 7.48429 5.09843C7.25518 5.3219 7.11153 5.63221 7.11153 5.96909V15.465C7.11153 15.8018 7.25518 16.1122 7.48429 16.3356C7.7134 16.5558 8.02795 16.6959 8.37333 16.6959H14.2003C14.5491 16.6959 14.8637 16.5558 15.0928 16.3356C15.3219 16.1122 15.4621 15.8018 15.4621 15.465V5.96909C15.4621 5.63221 15.3219 5.3219 15.0928 5.09843C14.8637 4.87829 14.5491 4.73818 14.2003 4.73818Z" fill="black"/>
<path id="Vector (Stroke)" fill-rule="evenodd" clip-rule="evenodd" d="M15.3279 4.86922C15.6167 5.15385 15.795 5.54229 15.795 5.96756V15.4634C15.795 15.8887 15.6167 16.2771 15.3279 16.5618C15.3276 16.562 15.3273 16.5623 15.327 16.5626M15.4866 16.717L15.7218 16.9445L15.7219 16.9445L15.7218 16.9445L15.4876 16.716C15.8169 16.394 16.0181 15.9477 16.0181 15.4634V5.96756C16.0181 5.48333 15.8169 5.03696 15.4876 4.71498L15.7218 4.48654M6.46178 4.10294C6.95023 3.62651 7.62636 3.32715 8.37327 3.32715H14.2002C14.9462 3.32715 15.626 3.62584 16.1151 4.10294L16.1169 4.10463C16.6003 4.58041 16.9072 5.2392 16.9072 5.96756V15.4634C16.9072 16.1918 16.6003 16.8506 16.1169 17.3264L16.1151 17.3281C15.626 17.8052 14.9462 18.1038 14.2002 18.1038H8.37327C7.62636 18.1038 6.95023 17.8045 6.46178 17.3281C5.97175 16.8501 5.66968 16.1899 5.66968 15.4634V5.96756C5.66968 5.24114 5.97175 4.58092 6.46178 4.10294ZM7.87598 5.48188C7.74602 5.60936 7.66756 5.78331 7.66756 5.96756V15.4634C7.66756 15.6477 7.74602 15.8216 7.87597 15.9491C8.00898 16.0762 8.18562 16.1519 8.37327 16.1519H14.2002C14.3921 16.1519 14.5686 16.0756 14.701 15.9491C14.8281 15.8244 14.9059 15.6514 14.9059 15.4634V5.96756C14.9059 5.77956 14.8281 5.60659 14.701 5.48186C14.5686 5.35537 14.3921 5.27905 14.2002 5.27905H8.37327C8.18563 5.27905 8.00898 5.35478 7.87598 5.48188Z" fill="black"/>
<path id="Vector_2" d="M6.66699 13.1855H15.9067V14.053H6.66699V13.1855Z" fill="black"/>
<path id="Vector (Stroke)_2" fill-rule="evenodd" clip-rule="evenodd" d="M6.11084 12.6436H16.4627V14.5958H6.11084V12.6436Z" fill="black"/>
<path id="Vector_3" d="M10.8457 17.1283V13.6196H11.7314V17.1283H10.8457Z" fill="black"/>
<path id="Vector (Stroke)_3" fill-rule="evenodd" clip-rule="evenodd" d="M10.2896 13.0767H12.2874V17.6702H10.2896V13.0767Z" fill="black"/>
</g>
</g>
</g>
</svg>
