<svg width="198" height="143" viewBox="0 0 198 143" fill="none" xmlns="http://www.w3.org/2000/svg">
<g id="Group 4208">
<g id="Group">
<path id="Vector" d="M20.2479 16.8317C25.868 34.5182 0.100575 113.435 2.85758 134.121" stroke="#FE03E6" stroke-width="5.06675" stroke-miterlimit="22.9256" stroke-linecap="round" stroke-linejoin="round"/>
<path id="Vector_2" d="M10.8107 82.6133C8.58385 92.8528 20.6723 82.303 36.472 79.8206C39.8653 79.3035 52.2718 71.236 56.1953 71.236" stroke="#FE03E6" stroke-width="5.06675" stroke-miterlimit="22.9256" stroke-linecap="round" stroke-linejoin="round"/>
<path id="Vector_3" d="M61.073 3.48926C53.3322 41.5515 40.0774 81.2685 40.0774 117.159" stroke="#FE03E6" stroke-width="5.06675" stroke-miterlimit="22.9256" stroke-linecap="round" stroke-linejoin="round"/>
<path id="Vector_4" fill-rule="evenodd" clip-rule="evenodd" d="M71.0407 78.2692C27.1407 62.5478 37.6385 175.597 81.9627 94.7145C87.3707 84.8887 75.4944 79.8206 71.0407 78.2692Z" fill="black" stroke="#FE03E6" stroke-width="5.06675" stroke-miterlimit="22.9256" stroke-linecap="round" stroke-linejoin="round"/>
<path id="Vector_5" d="M105.715 53.1356C105.715 73.925 83.023 119.227 78.4634 140.224" stroke="#FE03E6" stroke-width="5.06675" stroke-miterlimit="22.9256" stroke-linecap="round" stroke-linejoin="round"/>
<path id="Vector_6" d="M88.4309 72.4771C131.801 64.2027 148.767 83.5441 88.4309 103.92C51.2113 116.435 115.047 119.331 127.135 126.571C127.241 126.571 132.967 129.26 133.073 129.26" stroke="#FE03E6" stroke-width="5.06675" stroke-miterlimit="22.9256" stroke-linecap="round" stroke-linejoin="round"/>
<path id="Vector_7" fill-rule="evenodd" clip-rule="evenodd" d="M151.418 72.0633C103.913 67.7192 121.409 157.6 173.792 94.1973C179.942 86.7503 168.384 71.6496 151.418 72.0633Z" fill="black" stroke="#FE03E6" stroke-width="5.06675" stroke-miterlimit="22.9256" stroke-linecap="round" stroke-linejoin="round"/>
<path id="Vector_8" d="M195 19.2107C177.928 47.5505 155.341 128.536 155.023 128.95C154.387 130.191 154.175 130.088 152.903 130.501" stroke="#FE03E6" stroke-width="5.06675" stroke-miterlimit="22.9256" stroke-linecap="round" stroke-linejoin="round"/>
<path id="Vector_9" d="M81.1143 75.4764C80.266 80.3376 78.0392 95.1281 76.7668 100.92C75.4943 106.505 73.4795 114.78 73.4795 120.262" stroke="#FE03E6" stroke-width="5.06675" stroke-miterlimit="22.9256" stroke-linecap="round" stroke-linejoin="round"/>
</g>
</g>
</svg>
