<svg width="98" height="96" viewBox="0 0 98 96" fill="none" xmlns="http://www.w3.org/2000/svg">
<path fill-rule="evenodd" clip-rule="evenodd" d="M48.5243 1.80933C74.8038 1.80933 96.1067 22.588 96.1067 48.221C96.1067 73.854 74.8038 94.6327 48.5243 94.6327C22.2447 94.6327 0.941895 73.854 0.941895 48.221C0.941895 22.588 22.2447 1.80933 48.5243 1.80933Z" fill="url(#paint0_linear_51_19)"/>
<path fill-rule="evenodd" clip-rule="evenodd" d="M48.5242 2.7281C22.7648 2.7281 1.88357 23.0955 1.88357 48.2212C1.88357 73.3468 22.7648 93.7143 48.5242 93.7143C74.2836 93.7143 95.1648 73.3468 95.1648 48.2212C95.1648 23.0955 74.2836 2.7281 48.5242 2.7281ZM0 48.2212C0 22.0809 21.7245 0.890869 48.5242 0.890869C75.3239 0.890869 97.0484 22.0809 97.0484 48.2212C97.0484 74.3615 75.3239 95.5515 48.5242 95.5515C21.7245 95.5515 0 74.3615 0 48.2212Z" fill="#2B2A29"/>
<path fill-rule="evenodd" clip-rule="evenodd" d="M48.5244 8.08862C71.2484 8.08862 89.6691 26.0562 89.6691 48.2211C89.6691 70.386 71.2484 88.3535 48.5244 88.3535C25.8004 88.3535 7.37964 70.386 7.37964 48.2211C7.37964 26.0562 25.8004 8.08862 48.5244 8.08862Z" fill="black"/>
<path fill-rule="evenodd" clip-rule="evenodd" d="M48.524 9.00739C26.3202 9.00739 8.32107 26.5636 8.32107 48.2212C8.32107 69.8788 26.3202 87.435 48.524 87.435C70.7279 87.435 88.727 69.8788 88.727 48.2212C88.727 26.5636 70.7279 9.00739 48.524 9.00739ZM6.4375 48.2212C6.4375 25.549 25.2799 7.17017 48.524 7.17017C71.7682 7.17017 90.6106 25.549 90.6106 48.2212C90.6106 70.8935 71.7682 89.2723 48.524 89.2723C25.2799 89.2723 6.4375 70.8935 6.4375 48.2212Z" fill="#2B2A29"/>
<path d="M48.6792 27.3479C48.3928 27.6272 47.9288 27.6272 47.6438 27.3479C47.3574 27.0698 47.3574 26.6173 47.6438 26.338L48.6792 27.3479ZM63.6716 12.7243L48.6792 27.3479L47.6438 26.338L62.6362 11.7144H63.6716V12.7243ZM62.6362 11.7144C62.9226 11.4351 63.3853 11.4351 63.6716 11.7144C63.958 11.9937 63.958 12.445 63.6716 12.7243L62.6362 11.7144ZM79.771 29.4375L62.6362 12.7243L63.6716 11.7144L80.8064 28.4276V29.4375H79.771ZM80.8064 28.4276C81.0928 28.7056 81.0928 29.1582 80.8064 29.4375C80.5201 29.7168 80.0561 29.7168 79.771 29.4375L80.8064 28.4276ZM32.65 74.388L79.771 28.4276L80.8064 29.4375L33.6867 75.3979H32.65V74.388ZM33.6867 75.3979C33.4004 75.6772 32.9364 75.6772 32.65 75.3979C32.365 75.1186 32.365 74.6673 32.65 74.388L33.6867 75.3979ZM16.5519 57.6748L33.6867 74.388L32.65 75.3979L15.5165 58.6847V57.6748H16.5519ZM15.5165 58.6847C15.2302 58.4067 15.2302 57.9541 15.5165 57.6748C15.8016 57.3955 16.2655 57.3955 16.5519 57.6748L15.5165 58.6847ZM31.5444 44.0611L16.5519 58.6847L15.5165 57.6748L30.509 43.0512L31.5444 44.0611ZM30.509 43.0512C30.7953 42.7719 31.258 42.7719 31.5444 43.0512C31.8307 43.3305 31.8307 43.7818 31.5444 44.0611L30.509 43.0512Z" fill="#464747"/>
<path d="M64.7773 44.0611C64.4922 43.7818 64.4922 43.3305 64.7773 43.0512C65.0636 42.7719 65.5276 42.7719 65.814 43.0512L64.7773 44.0611ZM79.771 58.6847L64.7773 44.0611L65.814 43.0512L80.8064 57.6748V58.6847H79.771ZM80.8064 57.6748C81.0928 57.9541 81.0928 58.4067 80.8064 58.6847C80.5201 58.964 80.0561 58.964 79.771 58.6847L80.8064 57.6748ZM62.6362 74.388L79.771 57.6748L80.8064 58.6847L63.6716 75.3979H62.6362V74.388ZM63.6716 75.3979C63.3853 75.6772 62.9226 75.6772 62.6362 75.3979C62.3499 75.1186 62.3499 74.6673 62.6362 74.388L63.6716 75.3979ZM16.5519 28.4276L63.6716 74.388L62.6362 75.3979L15.5165 29.4375V28.4276H16.5519ZM15.5165 29.4375C15.2302 29.1582 15.2302 28.7056 15.5165 28.4276C15.8016 28.1483 16.2655 28.1483 16.5519 28.4276L15.5165 29.4375ZM33.6867 12.7243L16.5519 29.4375L15.5165 28.4276L32.65 11.7144H33.6867V12.7243ZM32.65 11.7144C32.9364 11.4351 33.4004 11.4351 33.6867 11.7144C33.9731 11.9937 33.9731 12.445 33.6867 12.7243L32.65 11.7144ZM47.6438 27.3479L32.65 12.7243L33.6867 11.7144L48.6792 26.338L47.6438 27.3479ZM48.6792 26.338C48.9655 26.6173 48.9655 27.0698 48.6792 27.3479C48.3928 27.6272 47.9288 27.6272 47.6438 27.3479L48.6792 26.338Z" fill="#464747"/>
<path fill-rule="evenodd" clip-rule="evenodd" d="M48.6706 57.7097C52.6849 57.7097 55.9382 59.7282 55.9382 62.2187C55.9382 64.7079 52.6849 66.7265 48.6706 66.7265C44.6564 66.7265 41.4031 64.7079 41.4031 62.2187C41.4031 59.7282 44.6564 57.7097 48.6706 57.7097Z" fill="black"/>
<path fill-rule="evenodd" clip-rule="evenodd" d="M43.7232 59.3237C42.4692 60.1017 41.7598 61.1338 41.7598 62.2189C41.7598 63.3033 42.4692 64.3351 43.7231 65.1129C44.9728 65.8881 46.7211 66.379 48.671 66.379C50.6209 66.379 52.3692 65.8881 53.6189 65.1129C54.8729 64.3351 55.5822 63.3033 55.5822 62.2189C55.5822 61.1338 54.8728 60.1017 53.6189 59.3237C52.3692 58.5484 50.6209 58.0575 48.671 58.0575C46.7211 58.0575 44.9728 58.5484 43.7232 59.3237ZM43.3406 58.7372C44.7212 57.8807 46.6066 57.3623 48.671 57.3623C50.7354 57.3623 52.6209 57.8807 54.0014 58.7372C55.3777 59.5911 56.2949 60.8135 56.2949 62.2189C56.2949 63.6237 55.3776 64.8458 54.0014 65.6995C52.6209 66.5559 50.7354 67.0742 48.671 67.0742C46.6066 67.0742 44.7212 66.5559 43.3407 65.6995C41.9644 64.8458 41.0471 63.6237 41.0471 62.2189C41.0471 60.8135 41.9644 59.5911 43.3406 58.7372Z" fill="#2B2A29"/>
<path d="M55.1709 23.196L55.2252 23.2077L55.1947 23.2283L54.9786 23.1999L54.7625 23.1715L54.5464 23.143L54.3304 23.1146L54.1156 23.0848L53.9021 23.0564L53.6874 23.0279L53.4753 22.9995L53.2632 22.971L53.051 22.9426L52.8403 22.9141L52.6308 22.887L52.4213 22.8598L52.2132 22.834L52.0064 22.8081L51.8009 22.7835L51.5954 22.759L51.3926 22.7357L51.1897 22.7124L50.9882 22.6904L50.7881 22.6697L50.5892 22.6503L50.3917 22.6322L50.1955 22.6154L50.0006 22.5986L49.807 22.5844L49.6161 22.5715L49.4252 22.5598L49.237 22.5495L49.0501 22.5404L48.8644 22.534L48.6815 22.5288L48.6828 22.4758L48.8671 22.4809L49.0527 22.4874L49.2396 22.4952L49.4292 22.5055L49.6188 22.5171L49.811 22.5301L50.0046 22.5456L50.1994 22.5611L50.397 22.5779L50.5945 22.5973L50.7934 22.6167L50.9935 22.6374L51.195 22.6594L51.3979 22.6814L51.602 22.7046L51.8075 22.7292L52.0143 22.7551L52.2211 22.7809L52.4293 22.8068L52.6387 22.834L52.8482 22.8611L53.059 22.8896L53.2698 22.9167L53.4832 22.9452L53.6953 22.9749L53.9088 23.0034L54.1235 23.0318L54.3383 23.0602L54.5531 23.09L54.7692 23.1184L54.9853 23.1469L55.2027 23.1753L55.1709 23.196ZM55.2252 23.2077L55.2199 23.2322L55.1947 23.2283L55.2252 23.2077ZM60.1409 16.7008L60.0853 16.7047L60.1356 16.7189L59.9792 16.9206L59.8161 17.1198L59.6491 17.3163L59.4768 17.5116L59.3018 17.7043L59.1228 17.8956L58.9412 18.0857L58.7582 18.2745L58.5726 18.462L58.387 18.6495L58.2001 18.837L58.0145 19.0245L57.8289 19.212L57.6446 19.4008L57.463 19.5896L57.284 19.7797L57.1077 19.971L56.9354 20.165L56.767 20.3603L56.6039 20.5581L56.4449 20.7585L56.2937 20.9616L56.1479 21.1672L56.0087 21.3766L55.8788 21.59L55.7555 21.8072L55.6428 22.0284L55.5381 22.2547L55.4439 22.4848L55.3591 22.7202L55.2875 22.9607L55.2252 23.2077L55.1709 23.196L55.2332 22.9477L55.3061 22.7034L55.3909 22.4654L55.4864 22.2327L55.5924 22.0051L55.7064 21.7827L55.8297 21.5628L55.9623 21.3482L56.1015 21.1374L56.2473 20.9305L56.4011 20.7262L56.5602 20.5245L56.7233 20.3266L56.893 20.1301L57.0653 19.9361L57.2429 19.7435L57.4219 19.5534L57.6049 19.3633L57.7891 19.1745L57.9747 18.987L58.1603 18.7995L58.3459 18.612L58.5329 18.4245L58.7171 18.237L58.9001 18.0482L59.0817 17.8594L59.2593 17.668L59.4357 17.4767L59.6067 17.2827L59.7724 17.0862L59.9341 16.887L60.0906 16.6866L60.1409 16.7008ZM60.0906 16.6866L60.1356 16.6271L60.1409 16.7008L60.0906 16.6866ZM60.3093 19.737L60.0853 16.7047L60.1409 16.7008L60.365 19.7331L60.357 19.7538L60.3093 19.737ZM60.357 19.7538L60.3133 19.8004L60.3093 19.737L60.357 19.7538ZM75.1095 13.2314L75.0539 13.2405L75.0936 13.2599L74.6296 13.4577L74.1617 13.6414L73.691 13.8146L73.2177 13.9776L72.7405 14.1327L72.2619 14.2801L71.782 14.4211L71.2994 14.5582L70.8169 14.6913L70.3343 14.8232L69.8504 14.9526L69.3666 15.0832L68.884 15.2163L68.4014 15.3508L67.9215 15.4905L67.443 15.6353L66.967 15.7879L66.4924 15.9469L66.0218 16.1163L65.5551 16.2974L65.0911 16.4887L64.6324 16.6944L64.1777 16.9129L63.727 17.1495L63.2829 17.4017L62.8454 17.6719L62.4119 17.9629L61.9863 18.2732L61.5687 18.6068L61.1564 18.9637L60.7534 19.3452L60.357 19.7538L60.3159 19.7176L60.7136 19.3077L61.1193 18.9249L61.5316 18.5667L61.9519 18.2318L62.3801 17.9189L62.8136 17.6267L63.2537 17.3551L63.7005 17.1017L64.1512 16.865L64.6073 16.6452L65.0686 16.4396L65.5339 16.2469L66.0019 16.0659L66.4739 15.8965L66.9485 15.7362L67.4257 15.5849L67.9056 15.4388L68.3855 15.2991L68.8681 15.1633L69.352 15.0314L69.8345 14.9008L70.3184 14.7702L70.8023 14.6396L71.2849 14.5064L71.7661 14.3694L72.246 14.2284L72.7233 14.081L73.1992 13.9271L73.6725 13.7642L74.1418 13.5909L74.6084 13.4073L75.0698 13.2108L75.1095 13.2314ZM75.0698 13.2108L75.1029 13.1965L75.1095 13.2314L75.0698 13.2108ZM72.8638 36.3946L72.832 36.4399L72.824 36.4037L73.1064 35.9239L73.3755 35.4287L73.6327 34.9179L73.874 34.3916L74.1033 33.8498L74.3181 33.2925L74.5196 32.7184L74.7078 32.13L74.8828 31.5261L75.0433 30.9054L75.1891 30.2705L75.323 29.6188L75.4423 28.9516L75.547 28.2688L75.6385 27.5693L75.7167 26.8542L75.7803 26.1236L75.8307 25.3775L75.8665 24.6145L75.8891 23.8374L75.897 23.0421L75.8904 22.2314L75.8705 21.4051L75.836 20.5633L75.7883 19.7047L75.726 18.8292L75.6491 17.9383L75.5589 17.0306L75.4542 16.1073L75.3349 15.1685L75.201 14.2116L75.0539 13.2405L75.1095 13.2314L75.2567 14.2051L75.3906 15.1607L75.5099 16.1008L75.6146 17.0254L75.7048 17.9331L75.7817 18.8254L75.844 19.7008L75.8917 20.5607L75.9262 21.4038L75.9461 22.2314L75.9527 23.0421L75.9447 23.8374L75.9222 24.6171L75.8864 25.3801L75.836 26.1288L75.7724 26.8594L75.6942 27.5757L75.6027 28.2753L75.4966 28.9606L75.3773 29.6279L75.2448 30.2809L75.0976 30.9184L74.9359 31.5391L74.7609 32.1455L74.5726 32.7352L74.3711 33.3106L74.155 33.8692L73.9257 34.4123L73.6831 34.9399L73.4259 35.4533L73.1554 35.9498L72.8717 36.4308L72.8638 36.3946ZM72.832 36.4399L72.8108 36.4244L72.824 36.4037L72.832 36.4399ZM78.2873 40.1782L72.832 36.4399L72.8638 36.3946L78.3204 40.133L78.3032 40.1821L78.2873 40.1782ZM78.3204 40.133L78.396 40.186L78.3032 40.1821L78.3204 40.133ZM75.3442 40.0192L78.3045 40.1291L78.3032 40.1821L75.3415 40.0722L75.3243 40.0657L75.3442 40.0192ZM75.3243 40.0657L75.266 40.0166L75.3442 40.0192L75.3243 40.0657ZM83.5848 47.1273L75.3243 40.0657L75.3614 40.0256L83.6219 47.0872L83.606 47.1338L83.5848 47.1273ZM83.6219 47.0872L83.6683 47.1273L83.606 47.1338L83.6219 47.0872ZM79.8914 47.4726L83.5994 47.0807L83.606 47.1338L79.8967 47.5256L79.8688 47.5101L79.8914 47.4726ZM79.8688 47.5101L79.8516 47.4764L79.8914 47.4726L79.8688 47.5101ZM80.9718 49.7988L79.8688 47.5101L79.9192 47.4881L81.0222 49.7768L81.0129 49.8105L80.9718 49.7988ZM81.0222 49.7768L81.0328 49.7975L81.0129 49.8105L81.0222 49.7768ZM74.855 53.7583L80.9811 49.7652L81.0129 49.8105L74.8868 53.8035L74.855 53.7583ZM54.0758 65.197L67.6087 58.319L67.6339 58.3669L54.101 65.2448L54.0612 65.2254L54.0758 65.197ZM54.101 65.2448L54.0679 65.2616L54.0612 65.2254L54.101 65.2448ZM48.6802 60.5845L48.6855 60.5302L48.9891 60.5638L49.2834 60.6039L49.5671 60.653L49.8428 60.7087L50.1093 60.772L50.3665 60.8418L50.6144 60.9194L50.853 61.0048L51.0824 61.0979L51.3038 61.1974L51.5159 61.3048L51.72 61.4199L51.9149 61.5414L52.1018 61.6707L52.2808 61.8078L52.4505 61.9513L52.6122 62.1026L52.766 62.2604L52.9118 62.4259L53.0497 62.5979L53.1796 62.7776L53.3016 62.9651L53.4156 63.1591L53.5217 63.3595L53.6211 63.5677L53.7139 63.7823L53.7987 64.0035L53.8756 64.2323L53.9459 64.4677L54.0095 64.7108L54.0665 64.9603L54.1156 65.2164L54.0612 65.2254L54.0122 64.9707L53.9552 64.7237L53.8929 64.4819L53.8226 64.2479L53.7457 64.0216L53.6622 63.8017L53.5707 63.5884L53.4726 63.3828L53.3666 63.1836L53.2539 62.9923L53.1332 62.8073L53.0046 62.6302L52.8681 62.4595L52.7249 62.2966L52.5725 62.1401L52.412 61.9914L52.245 61.8492L52.0687 61.7147L51.8844 61.5867L51.6909 61.4664L51.4894 61.3526L51.2786 61.2466L51.0598 61.147L50.8318 61.0552L50.5958 60.9712L50.3492 60.8936L50.0947 60.8237L49.8309 60.7604L49.5578 60.7061L49.2741 60.6582L48.9824 60.6168L48.6802 60.5845Z" fill="#2B2A29"/>
<path d="M80.9718 49.799L79.8688 47.5103L79.9192 47.4883L81.0222 49.7771L81.0129 49.8107L80.9718 49.799ZM81.0222 49.7771L81.0328 49.7977L81.0129 49.8107L81.0222 49.7771ZM74.855 53.7585L80.9811 49.7654L81.0129 49.8107L74.8868 53.8037L74.855 53.7585ZM54.0758 65.1972L67.6087 58.3192L67.6339 58.3671L54.101 65.245L54.0612 65.2256L54.0758 65.1972ZM54.101 65.245L54.0679 65.2618L54.0612 65.2256L54.101 65.245ZM48.6802 60.5847L48.6855 60.5304L48.9891 60.564L49.2834 60.6041L49.5671 60.6533L49.8428 60.7089L50.1093 60.7722L50.3665 60.8421L50.6144 60.9196L50.853 61.005L51.0824 61.0981L51.3038 61.1977L51.5159 61.305L51.72 61.4201L51.9149 61.5416L52.1018 61.6709L52.2808 61.808L52.4505 61.9515L52.6122 62.1028L52.766 62.2606L52.9118 62.4261L53.0497 62.5981L53.1796 62.7778L53.3016 62.9653L53.4156 63.1593L53.5217 63.3597L53.6211 63.5679L53.7139 63.7825L53.7987 64.0037L53.8756 64.2325L53.9459 64.4679L54.0095 64.711L54.0665 64.9606L54.1156 65.2166L54.0612 65.2256L54.0122 64.9709L53.9552 64.7239L53.8929 64.4821L53.8226 64.2481L53.7457 64.0218L53.6622 63.8019L53.5707 63.5886L53.4726 63.383L53.3666 63.1838L53.2539 62.9925L53.1332 62.8076L53.0046 62.6304L52.8681 62.4597L52.7249 62.2968L52.5725 62.1403L52.412 61.9916L52.245 61.8494L52.0687 61.7149L51.8844 61.5869L51.6909 61.4653L51.4894 61.3528L51.2786 61.2468L51.0598 61.1472L50.8318 61.0554L50.5958 60.9714L50.3492 60.8938L50.0947 60.824L49.8309 60.7606L49.5578 60.7063L49.2741 60.6584L48.9824 60.6171L48.6802 60.5847Z" fill="#2B2A29"/>
<path d="M55.1712 23.196L55.2256 23.2077L55.1951 23.2283L54.979 23.1999L54.7629 23.1715L54.5468 23.143L54.3307 23.1146L54.116 23.0848L53.9025 23.0564L53.6878 23.0279L53.4757 22.9995L53.2635 22.971L53.0514 22.9426L52.8406 22.9141L52.6312 22.887L52.4217 22.8598L52.2136 22.834L52.0068 22.8081L51.8013 22.7835L51.5958 22.759L51.393 22.7357L51.1901 22.7124L50.9886 22.6904L50.7884 22.6697L50.5896 22.6503L50.3921 22.6322L50.1958 22.6154L50.001 22.5986L49.8074 22.5844L49.6165 22.5715L49.4256 22.5598L49.2374 22.5495L49.0504 22.5404L48.8662 22.534L48.6819 22.5288L48.6832 22.4758L48.8675 22.4809L49.0531 22.4874L49.24 22.4952L49.4296 22.5055L49.6205 22.5171L49.8114 22.5301L50.0049 22.5456L50.2011 22.5611L50.3974 22.5779L50.5949 22.5973L50.7937 22.6167L50.9939 22.6374L51.1954 22.6594L51.3996 22.6814L51.6024 22.7046L51.8079 22.7292L52.0147 22.7551L52.2215 22.7809L52.4297 22.8068L52.6391 22.834L52.8486 22.8611L53.0594 22.8896L53.2702 22.9167L53.4836 22.9452L53.6957 22.9749L53.9092 23.0034L54.1239 23.0318L54.3387 23.0602L54.5535 23.09L54.7695 23.1184L54.9856 23.1469L55.2031 23.1753L55.1712 23.196ZM55.2256 23.2077L55.2203 23.2322L55.1951 23.2283L55.2256 23.2077ZM60.1413 16.7008L60.0856 16.7047L60.136 16.7189L59.9796 16.9206L59.8165 17.1198L59.6495 17.3163L59.4771 17.5116L59.3021 17.7043L59.1232 17.8956L58.9416 18.0857L58.7586 18.2745L58.573 18.462L58.3874 18.6495L58.2005 18.837L58.0149 19.0245L57.8293 19.212L57.645 19.4008L57.4634 19.5896L57.2844 19.7797L57.1081 19.971L56.9358 20.165L56.7674 20.3603L56.6043 20.5581L56.4452 20.7585L56.2941 20.9616L56.1483 21.1672L56.0091 21.3766L55.8792 21.59L55.7559 21.8072L55.6432 22.0284L55.5385 22.2547L55.4443 22.4848L55.3595 22.7202L55.2879 22.9607L55.2256 23.2077L55.1712 23.196L55.2335 22.9477L55.3065 22.7034L55.3913 22.4654L55.4868 22.2327L55.5928 22.0051L55.7068 21.7827L55.8301 21.5628L55.9627 21.3482L56.1019 21.1374L56.2477 20.9305L56.4015 20.7262L56.5606 20.5245L56.7236 20.3266L56.8933 20.1301L57.0657 19.9361L57.2433 19.7435L57.4223 19.5534L57.6052 19.3633L57.7895 19.1745L57.9751 18.987L58.1607 18.7995L58.3463 18.612L58.5332 18.4245L58.7175 18.237L58.9005 18.0482L59.0821 17.8594L59.2597 17.668L59.436 17.4767L59.6071 17.2827L59.7728 17.0862L59.9345 16.887L60.0909 16.6866L60.1413 16.7008ZM60.0909 16.6866L60.136 16.6271L60.1413 16.7008L60.0909 16.6866ZM60.3097 19.737L60.0856 16.7047L60.1413 16.7008L60.3654 19.7331L60.3574 19.7538L60.3097 19.737ZM60.3574 19.7538L60.3137 19.8004L60.3097 19.737L60.3574 19.7538ZM75.1099 13.2314L75.0542 13.2405L75.094 13.2612L74.63 13.4577L74.162 13.6414L73.6914 13.8146L73.2181 13.9776L72.7409 14.1327L72.2623 14.2801L71.7824 14.4211L71.2998 14.5582L70.8173 14.6913L70.3347 14.8232L69.8508 14.9526L69.3669 15.0832L68.8844 15.2163L68.4018 15.3508L67.9219 15.4905L67.4433 15.6353L66.9674 15.7879L66.4928 15.9469L66.0222 16.1163L65.5555 16.2974L65.0915 16.4887L64.6328 16.6944L64.1781 16.9129L63.7274 17.1495L63.2833 17.4017L62.8458 17.6719L62.4123 17.9629L61.9867 18.2732L61.5691 18.6068L61.1568 18.9637L60.7538 19.3452L60.3574 19.7538L60.3163 19.7176L60.714 19.3077L61.1197 18.9249L61.532 18.5667L61.9522 18.2318L62.3804 17.9189L62.814 17.6267L63.2541 17.3551L63.7009 17.1017L64.1516 16.865L64.6076 16.6452L65.069 16.4396L65.5343 16.2469L66.0023 16.0659L66.4742 15.8965L66.9488 15.7362L67.4261 15.5849L67.906 15.4388L68.3859 15.2991L68.8685 15.1633L69.3524 15.0314L69.8349 14.9008L70.3188 14.7702L70.8027 14.6396L71.2852 14.5064L71.7665 14.3694L72.2464 14.2284L72.7236 14.081L73.1996 13.9271L73.6728 13.7642L74.1422 13.5909L74.6088 13.4073L75.0701 13.2121L75.1099 13.2314ZM75.0701 13.2121L75.1033 13.1965L75.1099 13.2314L75.0701 13.2121ZM72.8642 36.3946L72.8323 36.4399L72.8244 36.4037L73.1068 35.9239L73.3759 35.4287L73.6318 34.9179L73.8744 34.3916L74.1037 33.8498L74.3185 33.2925L74.52 32.7184L74.7082 32.13L74.8832 31.5261L75.0436 30.9054L75.1895 30.2705L75.3234 29.6188L75.4427 28.9516L75.5474 28.2688L75.6389 27.5693L75.7171 26.8542L75.7807 26.1236L75.8311 25.3775L75.8669 24.6145L75.8894 23.8374L75.8974 23.0421L75.8908 22.2314L75.8709 21.4051L75.8364 20.5633L75.7887 19.7047L75.7264 18.8292L75.6495 17.9383L75.5593 17.0306L75.4546 16.1073L75.3353 15.1685L75.2014 14.2116L75.0542 13.2405L75.1099 13.2314L75.2571 14.2051L75.391 15.1607L75.5103 16.1021L75.615 17.0254L75.7052 17.9331L75.7821 18.8254L75.8444 19.7008L75.8921 20.5607L75.9266 21.4038L75.9464 22.2314L75.9531 23.0421L75.9451 23.8374L75.9226 24.6171L75.8868 25.3801L75.8364 26.1288L75.7728 26.8594L75.6946 27.5757L75.6031 28.2753L75.497 28.9606L75.3777 29.6279L75.2451 30.2809L75.0967 30.9184L74.9363 31.5391L74.7613 32.1455L74.573 32.7352L74.3715 33.3106L74.1554 33.8692L73.9261 34.4123L73.6835 34.9399L73.4263 35.4533L73.1558 35.9498L72.8721 36.4308L72.8642 36.3946ZM72.8323 36.4399L72.8111 36.4244L72.8244 36.4037L72.8323 36.4399ZM78.2876 40.1782L72.8323 36.4399L72.8642 36.3946L78.3208 40.133L78.2876 40.1782Z" fill="#2B2A29"/>
<path d="M42.1394 23.2077L42.1938 23.196L42.1633 23.1753L42.3794 23.1469L42.5954 23.1184L42.8115 23.09L43.0263 23.0602L43.2411 23.0318L43.4558 23.0034L43.6693 22.9749L43.8827 22.9452L44.0948 22.9167L44.3056 22.8896L44.5164 22.8611L44.7272 22.834L44.9367 22.8068L45.1448 22.7809L45.3516 22.7551L45.5571 22.7292L45.7626 22.7046L45.9667 22.6814L46.1696 22.6594L46.3711 22.6374L46.5713 22.6167L46.7701 22.5973L46.969 22.5779L47.1652 22.5611L47.3601 22.5456L47.5536 22.5301L47.7458 22.5171L47.9367 22.5055L48.125 22.4952L48.3119 22.4874L48.4975 22.4809L48.6818 22.4758L48.6831 22.5288L48.5002 22.534L48.3146 22.5404L48.1276 22.5495L47.9394 22.5598L47.7498 22.5715L47.5576 22.5844L47.364 22.5986L47.1705 22.6154L46.9743 22.6322L46.7767 22.6503L46.5779 22.6697L46.3777 22.6904L46.1762 22.7124L45.9734 22.7357L45.7692 22.759L45.5637 22.7835L45.3582 22.8081L45.1514 22.834L44.9433 22.8598L44.7338 22.887L44.5244 22.9141L44.3136 22.9426L44.1028 22.971L43.8907 22.9995L43.6772 23.0279L43.4638 23.0564L43.249 23.0848L43.0343 23.1146L42.8195 23.143L42.6034 23.1715L42.3873 23.1999L42.1699 23.2283L42.1394 23.2077ZM42.1699 23.2283L42.1447 23.2322L42.1394 23.2077L42.1699 23.2283ZM37.2794 16.7047L37.2237 16.7008L37.274 16.6866L37.4305 16.887L37.5922 17.0862L37.7593 17.2827L37.9303 17.4767L38.1053 17.668L38.2829 17.8594L38.4645 18.0482L38.6475 18.237L38.8331 18.4245L39.0187 18.612L39.2043 18.7995L39.3912 18.987L39.5768 19.1745L39.7598 19.3633L39.9427 19.5534L40.123 19.7435L40.2993 19.9361L40.4717 20.1301L40.6413 20.3266L40.8057 20.5245L40.9648 20.7262L41.1173 20.9305L41.2644 21.1374L41.4036 21.3482L41.5349 21.5628L41.6582 21.7827L41.7735 22.0051L41.8782 22.2327L41.9737 22.4654L42.0585 22.7034L42.1315 22.9477L42.1938 23.196L42.1394 23.2077L42.0784 22.9607L42.0055 22.7202L41.922 22.4848L41.8265 22.2547L41.7231 22.0284L41.6091 21.8072L41.4872 21.59L41.3559 21.3766L41.218 21.1672L41.0722 20.9616L40.9198 20.7585L40.762 20.5581L40.5976 20.3603L40.4292 20.165L40.2569 19.971L40.0806 19.7797L39.9016 19.5896L39.72 19.4008L39.5357 19.212L39.3501 19.0245L39.1645 18.837L38.9789 18.6495L38.792 18.462L38.6077 18.2745L38.4234 18.0857L38.2418 17.8956L38.0642 17.7043L37.8878 17.5116L37.7168 17.3163L37.5485 17.1198L37.3867 16.9206L37.229 16.7189L37.2794 16.7047ZM37.2237 16.7008L37.229 16.6271L37.274 16.6866L37.2237 16.7008ZM37.0009 19.7331L37.2237 16.7008L37.2794 16.7047L37.0553 19.737L37.0076 19.7538L37.0009 19.7331ZM37.0553 19.737L37.0513 19.8004L37.0076 19.7538L37.0553 19.737ZM22.3108 13.2405L22.2564 13.2314L22.2948 13.2108L22.7575 13.4073L23.2228 13.5909L23.6935 13.7642L24.1654 13.9271L24.6414 14.081L25.1186 14.2284L25.5985 14.3694L26.0811 14.5064L26.5636 14.6396L27.0462 14.7702L27.5301 14.9008L28.014 15.0314L28.4965 15.1633L28.9791 15.2991L29.4603 15.4388L29.9389 15.5849L30.4161 15.7362L30.8908 15.8965L31.3627 16.0659L31.832 16.2469L32.296 16.4396L32.7574 16.6452L33.2134 16.865L33.6641 17.1017L34.1109 17.3551L34.551 17.6267L34.9845 17.9189L35.4128 18.2318L35.833 18.5667L36.2466 18.9249L36.6523 19.3077L37.0487 19.7176L37.0076 19.7538L36.6125 19.3452L36.2082 18.9637L35.7972 18.6068L35.3783 18.2732L34.9527 17.9629L34.5205 17.6719L34.0817 17.4017L33.6376 17.1495L33.1882 16.9129L32.7335 16.6944L32.2735 16.4887L31.8108 16.2974L31.3428 16.1163L30.8722 15.9469L30.3989 15.7879L29.9217 15.6353L29.4431 15.4905L28.9632 15.3508L28.4819 15.2163L27.9981 15.0832L27.5155 14.9526L27.0316 14.8232L26.5477 14.6913L26.0652 14.5582L25.5826 14.4211L25.1027 14.2801L24.6241 14.1327L24.1482 13.9776L23.6736 13.8146L23.203 13.6414L22.735 13.4577L22.2723 13.2599L22.3108 13.2405ZM22.2564 13.2314L22.2617 13.1965L22.2948 13.2108L22.2564 13.2314ZM24.534 36.4399L24.5008 36.3946L24.4929 36.4308L24.2092 35.9498L23.9387 35.4533L23.6829 34.9399L23.4389 34.4123L23.2096 33.8692L22.9935 33.3106L22.792 32.7352L22.6037 32.1455L22.4287 31.5391L22.2683 30.9184L22.1212 30.2809L21.9873 29.6279L21.868 28.9606L21.7619 28.2753L21.6704 27.5757L21.5935 26.8594L21.5286 26.1288L21.4795 25.3801L21.4424 24.6171L21.4212 23.8374L21.4132 23.0421L21.4186 22.2314L21.4384 21.4038L21.4729 20.5607L21.5206 19.7008L21.5843 18.8254L21.6598 17.9331L21.7513 17.0254L21.856 16.1008L21.9753 15.1607L22.1079 14.2051L22.2564 13.2314L22.3108 13.2405L22.1636 14.2116L22.0297 15.1685L21.9117 16.1073L21.8057 17.0306L21.7155 17.9383L21.6386 18.8292L21.5763 19.7047L21.5286 20.5633L21.4941 21.4051L21.4742 22.2314L21.4689 23.0421L21.4769 23.8374L21.4981 24.6145L21.5339 25.3775L21.5843 26.1236L21.6479 26.8542L21.7261 27.5693L21.8176 28.2688L21.9236 28.9516L22.043 29.6188L22.1755 30.2705L22.3227 30.9054L22.4831 31.5261L22.6568 32.13L22.845 32.7184L23.0465 33.2925L23.2613 33.8498L23.4906 34.3916L23.7332 34.9179L23.9891 35.4287L24.2582 35.9239L24.5419 36.4037L24.534 36.4399ZM24.5419 36.4037L24.5552 36.4244L24.534 36.4399L24.5419 36.4037ZM19.0455 40.133L24.5008 36.3946L24.534 36.4399L19.0773 40.1782L19.0628 40.1821L19.0455 40.133ZM19.0628 40.1821L18.9686 40.186L19.0455 40.133L19.0628 40.1821ZM22.0231 40.0722L19.0628 40.1821L19.0601 40.1291L22.0204 40.0192L22.0403 40.0657L22.0231 40.0722ZM22.0204 40.0192L22.0986 40.0166L22.0403 40.0657L22.0204 40.0192ZM13.744 47.0872L22.0032 40.0256L22.0403 40.0657L13.7811 47.1273L13.7586 47.1338L13.744 47.0872ZM13.7586 47.1338L13.6963 47.1273L13.744 47.0872L13.7586 47.1338ZM17.4679 47.5256L13.7586 47.1338L13.7652 47.0807L17.4746 47.4726L17.4958 47.5101L17.4679 47.5256ZM17.4746 47.4726L17.513 47.4764L17.4958 47.5101L17.4746 47.4726ZM16.3424 49.7768L17.4454 47.4881L17.4958 47.5101L16.3928 49.7988L16.3517 49.8105L16.3424 49.7768ZM16.3517 49.8105L16.3331 49.7975L16.3424 49.7768L16.3517 49.8105ZM22.4791 53.8035L16.3517 49.8105L16.3835 49.7652L22.5096 53.7583L22.4791 53.8035ZM43.2636 65.2448L29.7308 58.3669L29.7573 58.319L43.2888 65.197L43.3034 65.2254L43.2636 65.2448ZM43.3034 65.2254L43.2967 65.2616L43.2636 65.2448L43.3034 65.2254ZM48.6805 60.5302L48.6858 60.5845L48.3835 60.6168L48.0905 60.6582L47.8081 60.7061L47.5337 60.7604L47.2699 60.8237L47.0154 60.8936L46.7688 60.9712L46.5328 61.0552L46.3048 61.147L46.086 61.2466L45.8753 61.3526L45.6737 61.4664L45.4815 61.5867L45.2959 61.7147L45.1209 61.8492L44.9526 61.9914L44.7922 62.1401L44.641 62.2966L44.4965 62.4595L44.3613 62.6302L44.2327 62.8073L44.1121 62.9923L43.998 63.1836L43.8933 63.3828L43.7939 63.5884L43.7037 63.8017L43.6189 64.0216L43.542 64.2479L43.4731 64.4819L43.4094 64.7237L43.3538 64.9707L43.3034 65.2254L43.249 65.2164L43.2994 64.9603L43.3551 64.7108L43.4187 64.4677L43.489 64.2323L43.5672 64.0035L43.652 63.7823L43.7435 63.5677L43.8429 63.3595L43.949 63.1591L44.0643 62.9651L44.1863 62.7776L44.3162 62.5979L44.4541 62.4259L44.5999 62.2604L44.7524 62.1026L44.9154 61.9513L45.0851 61.8078L45.2628 61.6707L45.4497 61.5414L45.6446 61.4199L45.8487 61.3048L46.0609 61.1974L46.2822 61.0979L46.5129 61.0048L46.7516 60.9194L46.9995 60.8418L47.2553 60.772L47.5218 60.7087L47.7975 60.653L48.0826 60.6039L48.3769 60.5638L48.6805 60.5302Z" fill="#2B2A29"/>
<path d="M16.3425 49.7771L17.4455 47.4883L17.4959 47.5103L16.3929 49.799L16.3518 49.8107L16.3425 49.7771ZM16.3518 49.8107L16.3333 49.7977L16.3425 49.7771L16.3518 49.8107ZM22.4792 53.8037L16.3518 49.8107L16.3836 49.7654L22.5097 53.7585L22.4792 53.8037ZM43.2637 65.245L29.7309 58.3671L29.7574 58.3192L43.2889 65.1972L43.3035 65.2256L43.2637 65.245ZM43.3035 65.2256L43.2969 65.2618L43.2637 65.245L43.3035 65.2256ZM48.6806 60.5304L48.6859 60.5847L48.3836 60.6171L48.0906 60.6584L47.8083 60.7063L47.5338 60.7606L47.27 60.824L47.0155 60.8938L46.7689 60.9714L46.5329 61.0554L46.3049 61.1472L46.0862 61.2468L45.8754 61.3528L45.6739 61.4653L45.4816 61.5869L45.296 61.7149L45.1211 61.8494L44.9527 61.9916L44.7923 62.1403L44.6411 62.2968L44.4966 62.4597L44.3614 62.6304L44.2328 62.8076L44.1122 62.9925L43.9982 63.1838L43.8934 63.383L43.794 63.5886L43.7039 63.8019L43.619 64.0218L43.5421 64.2481L43.4732 64.4821L43.4096 64.7239L43.3539 64.9709L43.3035 65.2256L43.2491 65.2166L43.2995 64.9606L43.3552 64.711L43.4188 64.4679L43.4891 64.2325L43.5673 64.0037L43.6522 63.7825L43.7436 63.5679L43.8431 63.3597L43.9491 63.1593L44.0645 62.9653L44.1864 62.7778L44.3163 62.5981L44.4542 62.4261L44.6 62.2606L44.7525 62.1028L44.9142 61.9515L45.0853 61.808L45.2629 61.6709L45.4498 61.5416L45.6447 61.4201L45.8489 61.305L46.061 61.1977L46.2824 61.0981L46.513 61.005L46.7517 60.9196L46.9996 60.8421L47.2554 60.7722L47.5219 60.7089L47.7977 60.6533L48.0827 60.6041L48.3757 60.564L48.6806 60.5304Z" fill="#2B2A29"/>
<path d="M22.0231 40.0722L18.9381 40.1873L18.9368 40.133L22.0204 40.0192L22.0403 40.0657L22.0231 40.0722ZM22.0204 40.0192L22.0986 40.0166L22.0403 40.0657L22.0204 40.0192ZM13.744 47.0872L22.0032 40.0257L22.0403 40.0657L13.7811 47.1273L13.7586 47.1338L13.744 47.0872ZM13.7586 47.1338L13.6963 47.1273L13.744 47.0872L13.7586 47.1338ZM17.4679 47.5256L13.7586 47.1338L13.7652 47.0808L17.4746 47.4726L17.4679 47.5256Z" fill="#2B2A29"/>
<path d="M42.1393 23.2077L42.1936 23.196L42.1631 23.1753L42.3792 23.1469L42.5953 23.1184L42.8114 23.09L43.0262 23.0602L43.2409 23.0318L43.4557 23.0034L43.6692 22.9749L43.8826 22.9452L44.0947 22.9167L44.3055 22.8896L44.5163 22.8611L44.7271 22.834L44.9365 22.8068L45.1447 22.7809L45.3515 22.7551L45.557 22.7292L45.7624 22.7046L45.9666 22.6814L46.1694 22.6594L46.3709 22.6374L46.5711 22.6167L46.77 22.5973L46.9688 22.5779L47.1651 22.5611L47.3599 22.5456L47.5535 22.5301L47.7457 22.5171L47.9366 22.5055L48.1249 22.4952L48.3118 22.4874L48.4974 22.4809L48.6817 22.4758L48.683 22.5288L48.5 22.534L48.3144 22.5404L48.1275 22.5495L47.9393 22.5598L47.7497 22.5715L47.5575 22.5844L47.3639 22.5986L47.1704 22.6154L46.9741 22.6322L46.7766 22.6503L46.5778 22.6697L46.3776 22.6904L46.1761 22.7124L45.9732 22.7357L45.7691 22.759L45.5636 22.7835L45.3581 22.8081L45.1513 22.834L44.9432 22.8598L44.7337 22.887L44.5242 22.9141L44.3134 22.9426L44.1027 22.971L43.8905 22.9995L43.6771 23.0279L43.4637 23.0564L43.2489 23.0848L43.0341 23.1146L42.8194 23.143L42.6033 23.1715L42.3872 23.1999L42.1698 23.2283L42.1393 23.2077ZM42.1698 23.2283L42.1446 23.2322L42.1393 23.2077L42.1698 23.2283ZM37.2792 16.7047L37.2235 16.7008L37.2739 16.6866L37.4304 16.887L37.5921 17.0862L37.7591 17.2827L37.9302 17.4767L38.1051 17.668L38.2828 17.8594L38.4644 18.0482L38.6474 18.237L38.833 18.4245L39.0186 18.612L39.2042 18.7995L39.3911 18.987L39.5767 19.1745L39.7596 19.3633L39.9426 19.5534L40.1229 19.7435L40.2992 19.9361L40.4715 20.1301L40.6412 20.3266L40.8056 20.5245L40.9647 20.7262L41.1172 20.9305L41.2643 21.1374L41.4035 21.3482L41.5348 21.5628L41.6581 21.7827L41.7734 22.0051L41.8781 22.2327L41.9736 22.4654L42.0584 22.7034L42.1313 22.9477L42.1936 23.196L42.1393 23.2077L42.0783 22.9607L42.0054 22.7202L41.9219 22.4848L41.8264 22.2547L41.723 22.0284L41.609 21.8072L41.487 21.59L41.3558 21.3766L41.2179 21.1672L41.0721 20.9616L40.9196 20.7585L40.7619 20.5581L40.5975 20.3603L40.4291 20.165L40.2568 19.971L40.0805 19.7797L39.9015 19.5896L39.7199 19.4008L39.5356 19.212L39.35 19.0245L39.1644 18.837L38.9788 18.6495L38.7919 18.462L38.6076 18.2745L38.4233 18.0857L38.2417 17.8956L38.0641 17.7043L37.8877 17.5116L37.7167 17.3163L37.5483 17.1198L37.3866 16.9206L37.2289 16.7189L37.2792 16.7047ZM37.2235 16.7008L37.2289 16.6271L37.2739 16.6866L37.2235 16.7008ZM37.0008 19.7331L37.2235 16.7008L37.2792 16.7047L37.0552 19.737L37.0075 19.7538L37.0008 19.7331ZM37.0552 19.737L37.0512 19.8004L37.0075 19.7538L37.0552 19.737ZM22.3106 13.2405L22.2563 13.2314L22.2947 13.2121L22.7574 13.4073L23.2227 13.5909L23.6934 13.7642L24.1653 13.9271L24.6412 14.081L25.1185 14.2284L25.5984 14.3694L26.081 14.5064L26.5635 14.6396L27.0461 14.7702L27.53 14.9008L28.0138 15.0314L28.4964 15.1633L28.979 15.2991L29.4602 15.4388L29.9388 15.5849L30.416 15.7362L30.8906 15.8965L31.3626 16.0659L31.8319 16.2469L32.2959 16.4396L32.7572 16.6452L33.2133 16.865L33.6653 17.1017L34.1108 17.3551L34.5509 17.6267L34.9844 17.9189L35.4126 18.2318L35.8329 18.5667L36.2465 18.9249L36.6522 19.3077L37.0486 19.7176L37.0075 19.7538L36.6124 19.3452L36.2081 18.9637L35.7971 18.6068L35.3782 18.2732L34.9526 17.9629L34.5204 17.6719L34.0816 17.4017L33.6375 17.1495L33.1881 16.9129L32.7334 16.6944L32.2733 16.4887L31.8107 16.2974L31.3427 16.1163L30.8721 15.9469L30.3988 15.7879L29.9215 15.6353L29.443 15.4905L28.963 15.3508L28.4818 15.2163L27.9979 15.0832L27.5154 14.9526L27.0315 14.8232L26.5476 14.6913L26.065 14.5582L25.5825 14.4211L25.1026 14.2801L24.624 14.1327L24.1481 13.9776L23.6735 13.8146L23.2028 13.6414L22.7349 13.4577L22.2722 13.2612L22.3106 13.2405ZM22.2563 13.2314L22.2616 13.1965L22.2947 13.2121L22.2563 13.2314ZM24.5339 36.4399L24.5007 36.3946L24.4941 36.4308L24.2091 35.9498L23.9386 35.4533L23.6827 34.9399L23.4388 34.4123L23.2095 33.8692L22.9934 33.3106L22.7919 32.7352L22.6036 32.1455L22.4286 31.5391L22.2682 30.9184L22.1211 30.2809L21.9872 29.6279L21.8678 28.9606L21.7618 28.2753L21.6703 27.5757L21.5934 26.8594L21.5285 26.1288L21.4794 25.3801L21.4423 24.6171L21.4211 23.8374L21.4131 23.0421L21.4184 22.2314L21.4383 21.4038L21.4728 20.5607L21.5205 19.7008L21.5841 18.8254L21.6597 17.9331L21.7512 17.0254L21.8559 16.1021L21.9752 15.1607L22.1078 14.2051L22.2563 13.2314L22.3106 13.2405L22.1635 14.2116L22.0296 15.1685L21.9116 16.1073L21.8055 17.0306L21.7154 17.9383L21.6385 18.8292L21.5762 19.7047L21.5285 20.5633L21.494 21.4051L21.4741 22.2314L21.4688 23.0421L21.4768 23.8374L21.498 24.6145L21.5338 25.3775L21.5841 26.1236L21.6478 26.8542L21.726 27.5693L21.8175 28.2688L21.9235 28.9516L22.0428 29.6188L22.1754 30.2705L22.3226 30.9054L22.483 31.5261L22.6566 32.13L22.8449 32.7184L23.0464 33.2925L23.2612 33.8498L23.4905 34.3916L23.7331 34.9179L23.989 35.4287L24.2581 35.9239L24.5418 36.4037L24.5339 36.4399ZM24.5418 36.4037L24.5551 36.4244L24.5339 36.4399L24.5418 36.4037ZM19.0454 40.133L24.5007 36.3946L24.5339 36.4399L19.0772 40.1782L19.0454 40.133Z" fill="#2B2A29"/>
<path d="M29.7385 58.3502L22.4895 53.7881L22.4988 53.7739L29.7478 58.336L29.7385 58.3502Z" fill="#2B2A29"/>
<path d="M67.6169 58.336L74.8659 53.7739L74.8752 53.7881L67.6262 58.3502L67.6169 58.336Z" fill="#2B2A29"/>
<path fill-rule="evenodd" clip-rule="evenodd" d="M67.6208 58.3422L74.8711 53.7802L80.9972 49.7871L79.8942 47.4997L83.6035 47.1079L75.343 40.0463L78.3046 40.1549L72.848 36.4179C75.9436 31.3722 76.7324 23.6964 75.0818 13.2366C70.1674 15.4025 64.5186 15.2331 60.3373 19.7357L60.1133 16.7021C58.476 18.8693 55.7901 20.527 55.1988 23.2024C52.8855 22.9024 50.6318 22.5468 48.683 22.5016C46.7329 22.5468 44.4792 22.9024 42.1658 23.2024C41.5758 20.527 38.89 18.8693 37.2514 16.7021L37.0273 19.7357C32.846 15.2331 27.1985 15.4025 22.2828 13.2366C20.6323 23.6964 21.4224 31.3722 24.5179 36.4179L19.0613 40.1549L22.0216 40.0463L13.7625 47.1079L17.4705 47.4997L16.3675 49.7871L22.4936 53.7802L29.7439 58.3422L43.2767 65.2215C43.7699 62.4582 45.4005 60.8715 48.683 60.5573C51.9654 60.8715 53.5947 62.4582 54.0892 65.2215L67.6208 58.3422Z" fill="black"/>
<path d="M48.4513 28.7615L48.2895 58.3358L48.2365 58.3346L48.3982 28.7602L48.4155 28.7369L48.4513 28.7615ZM48.4155 28.7369L48.4513 28.724V28.7615L48.4155 28.7369ZM45.7959 29.6835L48.4155 28.7369L48.434 28.7848L45.8144 29.7313L45.7839 29.6925L45.7959 29.6835ZM45.8144 29.7313L45.7362 29.7598L45.7839 29.6925L45.8144 29.7313ZM52.0532 24.1749L52.0771 24.1297L52.0691 24.1775L51.7722 24.2318L51.4872 24.299L51.2101 24.3766L50.9436 24.4671L50.6877 24.5693L50.4385 24.6805L50.1999 24.8021L49.9679 24.934L49.7438 25.0749L49.5278 25.2236L49.3183 25.3814L49.1141 25.5469L48.9179 25.7189L48.727 25.8973L48.5401 26.0835L48.3598 26.2749L48.1835 26.4702L48.0111 26.6719L47.8428 26.8775L47.6784 27.087L47.5167 27.299L47.3576 27.515L47.2011 27.7335L47.046 27.9533L46.8922 28.1744L46.7398 28.3969L46.5887 28.6193L46.4375 28.8417L46.2851 29.0641L46.1339 29.2852L45.9815 29.505L45.8277 29.7223L45.7839 29.6925L45.9377 29.4753L46.0902 29.2568L46.2413 29.0356L46.3924 28.8132L46.5449 28.5908L46.696 28.3684L46.8485 28.146L47.0023 27.9249L47.1574 27.7038L47.3151 27.4852L47.4742 27.2693L47.636 27.0559L47.8017 26.8464L47.97 26.6395L48.1437 26.4378L48.32 26.24L48.503 26.0486L48.6899 25.8611L48.8821 25.6814L49.0797 25.5081L49.2851 25.3413L49.4959 25.1822L49.7147 25.0322L49.9401 24.89L50.1734 24.7581L50.416 24.6353L50.6665 24.5215L50.9251 24.4193L51.1942 24.3288L51.4726 24.2486L51.7616 24.1814L52.0612 24.1271L52.0532 24.1749ZM52.0771 24.1297L52.1513 24.1646L52.0691 24.1775L52.0771 24.1297ZM42.2642 24.2551L42.3146 24.2447L42.2854 24.2241L42.646 24.1775L43.0066 24.1297L43.3645 24.0818L43.7198 24.0327L44.0751 23.9861L44.4264 23.9383L44.7764 23.893L45.1237 23.8491L45.4684 23.8064L45.8105 23.7663L46.1485 23.7288L46.4826 23.6939L46.8127 23.6616L47.1402 23.6331L47.4623 23.6098L47.7805 23.5891L48.0947 23.5736L48.4022 23.5633L48.7058 23.5581H49.0041L49.2958 23.5646L49.5821 23.5775L49.8632 23.5969L50.1376 23.6228L50.4054 23.6564L50.6665 23.6978L50.9197 23.7482L51.1663 23.8064L51.4063 23.8723L51.637 23.9486L51.861 24.034L52.0771 24.1297L52.0532 24.1749L51.8411 24.0818L51.6197 23.9965L51.3904 23.9215L51.1531 23.8555L50.9078 23.7973L50.6559 23.7482L50.3974 23.7068L50.131 23.6732L49.8592 23.6473L49.5795 23.6279L49.2944 23.615L49.0028 23.6098L48.7058 23.6085L48.4036 23.6137L48.096 23.6253L47.7831 23.6396L47.4663 23.6603L47.1441 23.6848L46.818 23.712L46.4879 23.7443L46.1538 23.7792L45.8158 23.8167L45.4751 23.8568L45.1304 23.8995L44.7844 23.9434L44.4344 23.99L44.0817 24.0365L43.7278 24.0844L43.3712 24.1322L43.0132 24.1801L42.6539 24.2279L42.2934 24.2745L42.2642 24.2551ZM42.2934 24.2745L42.2682 24.2784L42.2642 24.2551L42.2934 24.2745ZM37.6613 18.0987L37.6083 18.0961L37.656 18.0819L37.8045 18.2732L37.957 18.4607L38.1147 18.6456L38.2778 18.8306L38.4435 19.0116L38.6119 19.1926L38.7842 19.3724L38.9565 19.5508L39.1315 19.728L39.3078 19.9051L39.4842 20.0823L39.6605 20.2607L39.8368 20.4379L40.0105 20.6163L40.1828 20.7961L40.3538 20.9758L40.5209 21.1581L40.6853 21.3417L40.8443 21.528L41.0008 21.7154L41.1506 21.9055L41.2964 22.0995L41.4343 22.296L41.5669 22.4952L41.6915 22.6982L41.8081 22.9064L41.9169 23.1172L42.0163 23.3331L42.1064 23.5529L42.1873 23.7779L42.2562 24.0081L42.3146 24.2447L42.2642 24.2551L42.2059 24.021L42.1369 23.7935L42.0574 23.571L41.9686 23.3525L41.8691 23.1391L41.7617 22.9297L41.6451 22.7241L41.5218 22.5223L41.3905 22.3245L41.2527 22.1292L41.1082 21.9366L40.9584 21.7478L40.8046 21.5603L40.6442 21.3754L40.4811 21.1917L40.3141 21.0107L40.1444 20.831L39.972 20.6512L39.7984 20.4728L39.6234 20.2956L39.4471 20.1185L39.2707 19.9413L39.0944 19.7629L38.9194 19.5857L38.7458 19.4073L38.5734 19.2275L38.4037 19.0465L38.238 18.8629L38.0749 18.6793L37.9159 18.4931L37.7621 18.3043L37.6136 18.1129L37.6613 18.0987ZM37.6083 18.0961L37.6136 18.0263L37.656 18.0819L37.6083 18.0961ZM37.3975 20.9667L37.6083 18.0961L37.6613 18.0987L37.4492 20.9706L37.4041 20.9861L37.3975 20.9667ZM37.4492 20.9706L37.4452 21.0301L37.4041 20.9861L37.4492 20.9706ZM23.4855 14.8207L23.4338 14.8129L23.4709 14.7935L23.9084 14.9784L24.3499 15.153L24.794 15.3159L25.2421 15.4711L25.6928 15.6172L26.1449 15.7556L26.5996 15.8901L27.0556 16.0194L27.513 16.1448L27.9704 16.2689L28.4277 16.3918L28.8864 16.5159L29.3438 16.6414L29.8012 16.7694L30.2559 16.9013L30.7106 17.0396L31.1614 17.1832L31.6121 17.3344L32.0589 17.4961L32.5017 17.6668L32.9418 17.8491L33.3793 18.0431L33.8101 18.2525L34.2383 18.4762L34.6599 18.7155L35.0775 18.9728L35.4885 19.2482L35.8928 19.5443L36.2919 19.8612L36.6829 20.2012L37.0674 20.5633L37.4426 20.9512L37.4041 20.9861L37.029 20.5995L36.6472 20.2387L36.2574 19.8999L35.861 19.5844L35.458 19.2909L35.0483 19.0155L34.6334 18.7594L34.2118 18.5202L33.7863 18.2978L33.3554 18.0896L32.9206 17.8957L32.4818 17.7133L32.039 17.5439L31.5935 17.3836L31.1455 17.231L30.6934 17.0875L30.24 16.9504L29.7853 16.8185L29.3292 16.6905L28.8719 16.5651L28.4145 16.4409L27.9558 16.3181L27.4984 16.1939L27.0411 16.0685L26.585 15.9392L26.1303 15.8047L25.6769 15.6651L25.2248 15.5189L24.7767 15.3638L24.33 15.2008L23.8885 15.0263L23.4484 14.8401L23.4855 14.8207ZM23.4338 14.8129L23.4391 14.7793L23.4709 14.7935L23.4338 14.8129ZM25.5894 36.78L25.5616 36.736L25.5523 36.7722L25.2845 36.3158L25.0286 35.8451L24.7847 35.3602L24.554 34.861L24.3379 34.3464L24.1324 33.8175L23.9415 33.2731L23.7626 32.7145L23.5982 32.1417L23.4457 31.5533L23.3065 30.9507L23.1793 30.3326L23.0666 29.7003L22.9671 29.0525L22.8797 28.3891L22.8054 27.7115L22.7458 27.0197L22.698 26.3124L22.6636 25.5896L22.6423 24.8512L22.6357 24.0986L22.641 23.3305L22.6596 22.5469L22.6927 21.7491L22.7378 20.9357L22.7975 20.1068L22.869 19.2625L22.9552 18.4038L23.0546 17.5284L23.1673 16.6388L23.2946 15.7336L23.4338 14.8129L23.4855 14.8207L23.3463 15.7401L23.2204 16.6452L23.1077 17.5349L23.0082 18.409L22.9221 19.2676L22.8492 20.1107L22.7908 20.9383L22.7444 21.7517L22.7126 22.5495L22.6941 23.3318L22.6874 24.0986L22.6954 24.8499L22.7166 25.587L22.7511 26.3085L22.7975 27.0158L22.8584 27.7076L22.9314 28.3839L23.0188 29.0447L23.1183 29.6912L23.231 30.3236L23.3569 30.9404L23.4961 31.5417L23.6486 32.1287L23.8143 32.7003L23.9919 33.2576L24.1828 33.8007L24.387 34.3283L24.6031 34.8403L24.8324 35.3395L25.075 35.8218L25.3309 36.2912L25.5987 36.7451L25.5894 36.78ZM25.5987 36.7451L25.6119 36.7671L25.5894 36.78L25.5987 36.7451ZM20.3767 39.7231L25.5616 36.736L25.5894 36.78L20.4045 39.767L20.3767 39.7231Z" fill="#2B2A29"/>
<path d="M23.3381 39.5978L20.4865 39.7853L20.4825 39.7349L23.3354 39.5474L23.3553 39.5914L23.3381 39.5978ZM23.3354 39.5474L23.4084 39.5422L23.3553 39.5914L23.3354 39.5474ZM15.3719 46.8586L23.3182 39.5539L23.3553 39.5914L15.4077 46.8961L15.3865 46.9025L15.3719 46.8586ZM15.3865 46.9025L15.3308 46.8973L15.3719 46.8586L15.3865 46.9025ZM18.3839 47.2051L15.3865 46.9025L15.3931 46.8521L18.3892 47.1534L18.3839 47.2051Z" fill="#2B2A29"/>
<path d="M17.281 49.5765L18.3243 47.2541L18.3721 47.2748L17.3301 49.5972L17.2929 49.6088L17.281 49.5765ZM17.2929 49.6088L17.2717 49.5985L17.281 49.5765L17.2929 49.6088ZM23.6457 53.2166L17.2929 49.6088L17.3195 49.5649L23.6723 53.1713L23.6855 53.1933L23.6457 53.2166ZM23.6855 53.1933L23.6868 53.2385L23.6457 53.2166L23.6855 53.1933ZM32.8395 39.4852L32.8594 39.4374L32.8608 39.4852L32.3822 39.7102L31.9115 39.9468L31.4462 40.1925L30.9889 40.4486L30.5394 40.7162L30.098 40.9942L29.6671 41.2839L29.2455 41.5852L28.8346 41.8994L28.4342 42.2253L28.0458 42.5641L27.6693 42.9158L27.306 43.2817L26.9574 43.6606L26.622 44.0537L26.3011 44.461L25.9962 44.8826L25.7072 45.3196L25.4341 45.7722L25.1796 46.2403L24.9423 46.7239L24.7222 47.2244L24.5234 47.7403L24.3431 48.2744L24.1827 48.8252L24.0448 49.3942L23.9268 49.9812L23.8313 50.5851L23.7598 51.2084L23.7107 51.8511L23.6855 52.5131V53.1933L23.6325 53.1946V52.5118L23.6577 51.8485L23.7067 51.2045L23.7796 50.5786L23.8751 49.9722L23.9931 49.3838L24.1323 48.8123L24.2927 48.2601L24.473 47.7235L24.6745 47.205L24.8932 46.7032L25.1319 46.217L25.3877 45.7477L25.6621 45.2925L25.9525 44.8541L26.2587 44.43L26.5809 44.0214L26.9176 43.627L27.2676 43.2468L27.6322 42.8796L28.01 42.5266L28.3997 42.1865L28.8014 41.8593L29.2137 41.5451L29.6366 41.2425L30.0688 40.9516L30.5116 40.6723L30.9623 40.4046L31.421 40.1473L31.8864 39.9016L32.3596 39.6649L32.8382 39.4387L32.8395 39.4852ZM32.8594 39.4374L32.9151 39.4593L32.8608 39.4852L32.8594 39.4374ZM29.8143 38.2697L32.8594 39.4374L32.8395 39.4852L29.7957 38.3175L29.797 38.2684L29.8143 38.2697ZM29.7957 38.3175L29.7268 38.2904L29.797 38.2684L29.7957 38.3175ZM44.9526 40.6412L44.9937 40.6736L44.9512 40.6723L44.7391 40.3994L44.4992 40.1369L44.2327 39.8848L43.941 39.6417L43.6255 39.4115L43.2875 39.1917L42.9269 38.9822L42.5451 38.7856L42.1434 38.6007L41.7231 38.4275L41.2856 38.2684L40.8296 38.121L40.359 37.9865L39.8738 37.8662L39.374 37.7589L38.8622 37.6671L38.3399 37.5882L37.8057 37.5236L37.2621 37.4744L36.7106 37.4408L36.1512 37.4227L35.5864 37.4201L35.015 37.4331L34.4397 37.4628L33.8617 37.5081L33.2823 37.5714L32.7003 37.6516L32.1184 37.7486L31.539 37.8637L30.9597 37.9969L30.3843 38.1481L29.8129 38.3175L29.797 38.2684L30.3697 38.099L30.9464 37.9477L31.5271 37.8132L32.1091 37.6981L32.6924 37.6012L33.2757 37.521L33.8577 37.4576L34.437 37.4111L35.0137 37.3813L35.5851 37.3684L36.1525 37.371L36.7133 37.3904L37.2661 37.424L37.811 37.4732L38.3465 37.5378L38.8715 37.6167L39.3846 37.7098L39.8857 37.8158L40.3736 37.9374L40.8455 38.0719L41.3029 38.2193L41.743 38.3809L42.1659 38.5542L42.5689 38.7404L42.9521 38.9382L43.3153 39.1477L43.656 39.3688L43.9742 39.6029L44.2685 39.846L44.5363 40.102L44.7789 40.3671L44.995 40.6425L44.9526 40.6412ZM44.9937 40.6736L44.9711 40.7007L44.9512 40.6723L44.9937 40.6736ZM45.7467 39.7555L44.9937 40.6736L44.9526 40.6412L45.7056 39.7231L45.752 39.7361L45.7467 39.7555ZM45.7056 39.7231L45.744 39.6753L45.752 39.7361L45.7056 39.7231ZM30.5368 57.4889L30.5129 57.5342L30.5209 57.4864L31.4741 57.3312L32.4021 57.1566L33.3062 56.9627L34.1851 56.7493L35.0389 56.5139L35.8648 56.2579L36.6629 55.9786L37.4331 55.6773L38.1755 55.3515L38.8874 55.0023L39.5688 54.6273L40.2198 54.2265L40.8389 53.7997L41.4262 53.3459L41.9803 52.8648L42.5013 52.3541L42.9865 51.8148L43.4386 51.2459L43.8535 50.6472L44.2327 50.0162L44.5761 49.3528L44.8796 48.6571L45.1461 47.9278L45.3741 47.1636L45.5611 46.3658L45.7082 45.5317L45.8129 44.6615L45.8779 43.755L45.8978 42.8097L45.8766 41.827L45.8103 40.8042L45.6989 39.7425L45.752 39.7361L45.8633 40.8003L45.9296 41.8244L45.9508 42.8097L45.9296 43.7576L45.866 44.6666L45.7599 45.5395L45.6128 46.3761L45.4245 47.1765L45.1965 47.9433L44.93 48.6752L44.6238 49.3735L44.2791 50.0394L43.8986 50.6743L43.481 51.2756L43.0276 51.8485L42.5398 52.389L42.0161 52.9023L41.4606 53.386L40.8707 53.8411L40.2489 54.2691L39.5954 54.6713L38.9113 55.0476L38.1981 55.398L37.4543 55.7239L36.6814 56.0264L35.882 56.3058L35.0535 56.5631L34.1997 56.7984L33.3195 57.0131L32.4127 57.207L31.4833 57.3816L30.5288 57.5368L30.5368 57.4889ZM30.5129 57.5342L30.4413 57.4993L30.5209 57.4864L30.5129 57.5342ZM43.3286 64.0449L30.5129 57.5342L30.5368 57.4889L43.3524 63.9997L43.3657 64.0268L43.3286 64.0449ZM43.3657 64.0268L43.3604 64.0617L43.3286 64.0449L43.3657 64.0268ZM51.943 59.7105L51.9908 59.6859L51.9642 59.7234L51.4565 59.6691L50.9673 59.6277L50.494 59.5993L50.0393 59.5825L49.6005 59.5786L49.1789 59.5876L48.7733 59.6083L48.3848 59.6419L48.011 59.6872L47.6544 59.7441L47.3123 59.8152L46.9862 59.8967L46.676 59.9911L46.379 60.0971L46.098 60.2148L45.8315 60.3454L45.5796 60.4876L45.341 60.6415L45.1169 60.807L44.9062 60.9842L44.7099 61.173L44.5257 61.3747L44.3547 61.5867L44.1969 61.8118L44.0511 62.0484L43.9172 62.2954L43.7965 62.5553L43.6878 62.8268L43.5897 63.11L43.5036 63.4035L43.4293 63.71L43.3657 64.0268L43.314 64.0191L43.3776 63.6997L43.4532 63.3906L43.5394 63.0945L43.6374 62.81L43.7475 62.5359L43.8694 62.2734L44.0047 62.0238L44.1518 61.7846L44.3122 61.557L44.4846 61.3424L44.6715 61.138L44.8704 60.9467L45.0838 60.7669L45.3105 60.5988L45.5518 60.4437L45.8063 60.3001L46.0754 60.1682L46.3605 60.0493L46.6587 59.9419L46.9716 59.8475L47.3004 59.7648L47.6437 59.695L48.003 59.6368L48.3782 59.5902L48.7693 59.5579L49.1763 59.5359L49.6005 59.5281L50.0406 59.532L50.4967 59.5475L50.9713 59.5773L51.4618 59.6187L51.9695 59.673L51.943 59.7105ZM51.9908 59.6859L52.0133 59.7286L51.9642 59.7234L51.9908 59.6859ZM48.2589 58.3605L48.2655 58.3101L48.4577 58.3346L48.6447 58.3618L48.8276 58.3889L49.0053 58.4174L49.1789 58.4471L49.3473 58.4782L49.5117 58.5105L49.6708 58.5428L49.8245 58.5777L49.9743 58.6126L50.1188 58.6488L50.258 58.6863L50.3933 58.7251L50.5232 58.7652L50.6478 58.8066L50.7684 58.8493L50.8838 58.8919L50.9938 58.9372L51.0985 58.9825L51.198 59.029L51.2934 59.0769L51.3823 59.126L51.4671 59.1764L51.5466 59.2281L51.6209 59.2812L51.6898 59.3355L51.7534 59.3911L51.8118 59.4467L51.8635 59.5049L51.9112 59.5644L51.9536 59.6238L51.9908 59.6859L51.943 59.7105L51.9086 59.651L51.8688 59.5941L51.8237 59.5372L51.7733 59.4816L51.7163 59.4273L51.6553 59.3743L51.5877 59.3213L51.5161 59.2708L51.4379 59.2204L51.3557 59.17L51.2682 59.1221L51.1741 59.0743L51.076 59.029L50.9726 58.9838L50.8639 58.9398L50.7499 58.8971L50.6306 58.8544L50.5073 58.8144L50.3774 58.7743L50.2435 58.7355L50.1056 58.698L49.9611 58.6618L49.8126 58.6269L49.6588 58.5932L49.5011 58.5596L49.338 58.5286L49.1696 58.4976L48.9973 58.4678L48.8197 58.4394L48.6367 58.4122L48.4511 58.3863L48.2589 58.3605Z" fill="#2B2A29"/>
<path d="M31.2221 31.4266L31.2645 31.4576L31.2207 31.455L31.1359 31.3128L31.0457 31.1718L30.9543 31.0322L30.8575 30.8938L30.7581 30.7567L30.6533 30.621L30.5473 30.4865L30.4359 30.352L30.3232 30.2201L30.2066 30.0882L30.0859 29.9589L29.9626 29.8296L29.8367 29.7003L29.7068 29.5736L29.5755 29.4481L29.4403 29.3227L29.3024 29.1986L29.1632 29.0744L29.0201 28.9516L28.8756 28.83L28.7271 28.7098L28.5773 28.5895L28.4248 28.4706L28.271 28.3516L28.1146 28.2339L27.9555 28.1162L27.7951 27.9999L27.632 27.8835L27.4677 27.7684L27.3019 27.6546L27.1336 27.5395L26.9652 27.427L26.9944 27.3844L27.1641 27.4981L27.3324 27.6119L27.4981 27.727L27.6639 27.8434L27.8256 27.9585L27.9873 28.0762L28.1464 28.1925L28.3028 28.3115L28.458 28.4305L28.6104 28.5494L28.7615 28.6697L28.9087 28.7912L29.0545 28.9128L29.1977 29.0369L29.3382 29.1598L29.4774 29.2852L29.6126 29.4106L29.7452 29.5374L29.8738 29.6654L30.0011 29.7947L30.1244 29.924L30.245 30.0546L30.363 30.1865L30.477 30.3197L30.5884 30.4542L30.6958 30.5899L30.8005 30.727L30.9012 30.8654L30.998 31.0037L31.0908 31.1447L31.181 31.2869L31.2658 31.4291L31.2221 31.4266ZM31.2645 31.4576L31.2406 31.4899L31.2207 31.455L31.2645 31.4576ZM36.0781 27.705L36.1259 27.6831L36.1126 27.7167L35.9151 27.8072L35.7202 27.899L35.528 27.9921L35.3397 28.0878L35.1541 28.1848L34.9725 28.2843L34.7935 28.3852L34.6172 28.4874L34.4435 28.5921L34.2738 28.6981L34.1068 28.8068L33.9437 28.9154L33.782 29.0279L33.6242 29.1404L33.4691 29.2555L33.3167 29.3718L33.1682 29.4895L33.0224 29.6098L32.8779 29.7313L32.7373 29.8542L32.5995 29.9796L32.4643 30.1063L32.333 30.2343L32.2031 30.3636L32.0771 30.4942L31.9525 30.6274L31.8319 30.7619L31.7126 30.8977L31.5972 31.036L31.4832 31.1744L31.3732 31.3154L31.2645 31.4576L31.2221 31.4266L31.3308 31.2843L31.4421 31.1434L31.5561 31.0037L31.6715 30.8654L31.7908 30.7283L31.9128 30.5938L32.0374 30.4606L32.1646 30.3287L32.2946 30.1981L32.4285 30.0688L32.5637 29.9421L32.7016 29.8167L32.8434 29.6925L32.9879 29.571L33.1351 29.4507L33.2849 29.3318L33.4373 29.2154L33.5924 29.099L33.7515 28.9865L33.9133 28.874L34.0776 28.7641L34.2447 28.6555L34.4157 28.5494L34.5894 28.4447L34.7657 28.3412L34.946 28.2404L35.1289 28.1408L35.3145 28.0425L35.5041 27.9468L35.6963 27.8525L35.8925 27.7606L36.0914 27.6701L36.0781 27.705ZM36.1259 27.6831L36.1365 27.7063L36.1126 27.7167L36.1259 27.6831ZM28.0947 21.2447L28.0457 21.2641L28.0815 21.2318L28.4407 21.4012L28.7947 21.5732L29.1433 21.7465L29.4867 21.921L29.8234 22.0969L30.1535 22.2753L30.4783 22.4564L30.7965 22.6374L31.1081 22.821L31.413 23.0072L31.7112 23.1947L32.0016 23.3848L32.2866 23.5775L32.5637 23.7715L32.8328 23.968L33.094 24.1658L33.3485 24.3663L33.5951 24.5693L33.8324 24.7749L34.0631 24.9831L34.2845 25.1939L34.4979 25.4059L34.7021 25.6219L34.8969 25.8404L35.0839 26.0602L35.2615 26.2839L35.4299 26.5102L35.589 26.7391L35.7374 26.9706L35.8766 27.2059L36.0065 27.4425L36.1259 27.6831L36.0781 27.705L35.9588 27.4658L35.8302 27.2305L35.6924 26.9964L35.5439 26.7663L35.3861 26.5387L35.2191 26.315L35.0428 26.0926L34.8572 25.8727L34.6623 25.6555L34.4594 25.4421L34.2473 25.2301L34.0259 25.0206L33.7966 24.8137L33.5593 24.6081L33.314 24.4064L33.0608 24.2059L32.801 24.0081L32.5319 23.8128L32.2561 23.6189L31.9724 23.4275L31.6821 23.2374L31.3838 23.0499L31.0802 22.865L30.7687 22.6814L30.4518 22.5003L30.127 22.3206L29.7969 22.1422L29.4615 21.9663L29.1195 21.7917L28.7708 21.6185L28.4182 21.4478L28.0589 21.2771L28.0947 21.2447ZM28.0457 21.2641L28.0205 21.2034L28.0815 21.2318L28.0457 21.2641ZM30.7342 27.6197L30.762 27.5757L30.7209 27.5938L30.7514 27.3546L30.766 27.1219L30.7673 26.893L30.7567 26.6693L30.7329 26.4494L30.6984 26.2348L30.652 26.024L30.5963 25.8158L30.5314 25.6128L30.4571 25.4111L30.3749 25.2133L30.2861 25.0193L30.1907 24.8253L30.0886 24.6352L29.9812 24.4464L29.8698 24.2589L29.7545 24.0727L29.6352 23.8878L29.5145 23.7042L29.3926 23.5206L29.268 23.337L29.1447 23.1546L29.0214 22.971L28.8981 22.7861L28.7788 22.6025L28.6608 22.4163L28.5455 22.2288L28.4354 22.04L28.3294 21.8499L28.2286 21.6572L28.1332 21.462L28.0457 21.2641L28.0947 21.2447L28.1822 21.4413L28.275 21.6353L28.3758 21.8266L28.4805 22.0154L28.5905 22.2029L28.7059 22.3891L28.8225 22.5753L28.9432 22.759L29.0651 22.9426L29.1884 23.1262L29.313 23.3098L29.4363 23.4921L29.5596 23.6771L29.6803 23.8607L29.7996 24.0469L29.9149 24.2331L30.0276 24.4206L30.135 24.6107L30.2371 24.8033L30.3338 24.9973L30.424 25.1939L30.5062 25.393L30.5817 25.596L30.648 25.8029L30.7037 26.0124L30.7501 26.2257L30.7859 26.443L30.8098 26.6654L30.8204 26.8917L30.819 27.1231L30.8031 27.3598L30.774 27.6016L30.7342 27.6197ZM30.774 27.6016L30.7673 27.6404L30.7342 27.6197L30.774 27.6016ZM26.9944 27.3844L26.9652 27.427L26.9732 27.3805L27.0978 27.3494L27.2237 27.3197L27.3483 27.29L27.473 27.2628L27.5962 27.2369L27.7209 27.2124L27.8442 27.1904L27.9674 27.1697L28.0907 27.1516L28.2127 27.1361L28.3347 27.1219L28.4566 27.1102L28.5773 27.1012L28.6979 27.0947L28.8185 27.0921L28.9379 27.0908L29.0572 27.0934L29.1765 27.0986L29.2945 27.1076L29.4111 27.1206L29.5278 27.1361L29.6445 27.1555L29.7598 27.1788L29.8738 27.2059L29.9878 27.2369L30.1005 27.2719L30.2132 27.3119L30.3246 27.3546L30.4346 27.4038L30.5446 27.4568L30.6533 27.5137L30.762 27.5757L30.7342 27.6197L30.6281 27.5576L30.5208 27.502L30.4121 27.449L30.3033 27.4025L30.1946 27.3598L30.0846 27.321L29.9732 27.2861L29.8606 27.255L29.7479 27.2292L29.6339 27.2059L29.5199 27.1865L29.4045 27.171L29.2892 27.1594L29.1725 27.1503L29.0559 27.1451L28.9379 27.1425H28.8199L28.7006 27.1464L28.5812 27.1529L28.4606 27.1606L28.34 27.1723L28.2193 27.1865L28.0974 27.202L27.9754 27.2201L27.8534 27.2408L27.7301 27.2628L27.6068 27.2874L27.4836 27.3132L27.3603 27.3404L27.2357 27.3688L27.111 27.3986L26.9864 27.4309L26.9944 27.3844ZM26.9652 27.427L26.9175 27.3947L26.9732 27.3805L26.9652 27.427Z" fill="#2B2A29"/>
<path d="M37.8507 48.4088V48.3519L38.2882 48.3429L38.6859 48.3157L39.0451 48.2731L39.3673 48.2149L39.6523 48.1425L39.9029 48.0558L40.119 47.9575L40.3019 47.8476L40.453 47.7261L40.5737 47.5968L40.6665 47.4584L40.7301 47.3123L40.7686 47.1584L40.7818 46.9981L40.7699 46.8325L40.7341 46.6606L40.6771 46.4847L40.5975 46.3063L40.4981 46.1239L40.3788 45.9416L40.2423 45.7593L40.0871 45.577L39.9161 45.3959L39.7305 45.2175L39.5304 45.0429L39.3182 44.8722L39.0942 44.708L38.8595 44.5489L38.6156 44.3977L38.3637 44.2541L38.1039 44.1196L37.8374 43.9955L37.8626 43.9425L38.1304 44.0692L38.3916 44.2037L38.6461 44.3485L38.8927 44.5011L39.1287 44.6614L39.3554 44.8283L39.5701 45.0002L39.7716 45.1761L39.9586 45.3558L40.1322 45.5395L40.2887 45.7244L40.4279 45.9093L40.5498 46.0955L40.6506 46.2804L40.7328 46.4653L40.7924 46.6463L40.8282 46.8248L40.8402 46.9981L40.8269 47.1675L40.7871 47.3304L40.7182 47.4856L40.6214 47.6317L40.4941 47.7687L40.3364 47.8942L40.1468 48.008L39.9254 48.1088L39.6696 48.1968L39.3792 48.2718L39.0544 48.33L38.6912 48.3739L38.2908 48.3998L37.8507 48.4088ZM34.4529 46.1744H34.5125L34.5165 46.2856L34.5298 46.3955L34.5497 46.5041L34.5788 46.6114L34.6159 46.7162L34.661 46.8183L34.7127 46.9192L34.7724 47.0175L34.8387 47.1144L34.9116 47.2075L34.9924 47.2994L35.0786 47.3873L35.1714 47.4726L35.2708 47.5554L35.3756 47.6343L35.4856 47.7106L35.6009 47.783L35.7229 47.8515L35.8489 47.9162L35.9801 47.9769L36.1153 48.0338L36.2545 48.0868L36.399 48.136L36.5475 48.18L36.7 48.2187L36.8551 48.2537L37.0142 48.2821L37.1759 48.3067L37.3403 48.3261L37.5073 48.3403L37.6783 48.3493L37.8507 48.3519V48.4088L37.6757 48.4062L37.5033 48.3972L37.335 48.383L37.1679 48.3636L37.0036 48.339L36.8431 48.3093L36.6854 48.2743L36.5316 48.2343L36.3805 48.1903L36.2346 48.1412L36.0928 48.0881L35.9549 48.03L35.8223 47.9679L35.6937 47.9019L35.5705 47.8321L35.4525 47.7584L35.3398 47.6808L35.2324 47.5994L35.1316 47.5153L35.0362 47.4287L34.9487 47.3381L34.8665 47.2438L34.7909 47.1481L34.722 47.0485L34.661 46.9463L34.6067 46.8429L34.5603 46.7356L34.5231 46.6282L34.4927 46.517L34.4701 46.4045L34.4569 46.2907L34.4529 46.1744ZM37.8626 43.9425L37.8374 43.9955L37.5869 43.8908L37.3482 43.8054L37.1215 43.7395L36.9081 43.6903L36.7053 43.658L36.513 43.6425L36.3327 43.6412L36.1644 43.6541L36.0053 43.6813L35.8555 43.7201L35.7163 43.7705L35.5864 43.8326L35.4657 43.905L35.353 43.9865L35.2496 44.077L35.1542 44.1752L35.0667 44.28L34.9858 44.3912L34.9129 44.5089L34.8479 44.6317L34.7883 44.7571L34.7353 44.8864L34.6902 45.0183L34.6491 45.1515L34.6146 45.286L34.5855 45.4192L34.5629 45.5524L34.543 45.683L34.5298 45.8123L34.5192 45.9377L34.5139 46.058L34.5125 46.1744H34.4529L34.4542 46.0567L34.4608 45.9339L34.4701 45.8071L34.4847 45.6765L34.5033 45.5433L34.5271 45.4089L34.5576 45.2731L34.5921 45.136L34.6332 45.0015L34.6796 44.867L34.7339 44.7352L34.7936 44.6058L34.8612 44.4804L34.9368 44.3602L35.019 44.2451L35.1091 44.1365L35.2085 44.0356L35.3159 43.9412L35.4326 43.8571L35.5585 43.7821L35.6924 43.7175L35.8382 43.6658L35.992 43.6244L36.1564 43.5972L36.3314 43.583L36.517 43.5843L36.7119 43.6011L36.9187 43.6347L37.1374 43.6839L37.3668 43.7511L37.6094 43.8377L37.8626 43.9425Z" fill="#2B2A29"/>
<path d="M66.0578 31.4266L66.0127 31.4291L66.0989 31.2869L66.1877 31.1447L66.2819 31.0037L66.3786 30.8654L66.4794 30.727L66.5828 30.5899L66.6915 30.4542L66.8015 30.3197L66.9169 30.1865L67.0335 30.0546L67.1542 29.924L67.2788 29.7947L67.4047 29.6654L67.5347 29.5374L67.6672 29.4106L67.8025 29.2852L67.9403 29.1598L68.0809 29.0369L68.224 28.9128L68.3699 28.7912L68.5183 28.6697L68.6681 28.5494L68.8219 28.4305L68.9757 28.3115L69.1335 28.1925L69.2926 28.0762L69.453 27.9585L69.616 27.8434L69.7804 27.727L69.9475 27.6119L70.1158 27.4981L70.2842 27.3844L70.3147 27.427L70.145 27.5395L69.9779 27.6546L69.8109 27.7684L69.6465 27.8835L69.4848 27.9999L69.3244 28.1162L69.1653 28.2339L69.0089 28.3516L68.8537 28.4706L68.7026 28.5895L68.5515 28.7098L68.4043 28.83L68.2598 28.9516L68.1166 29.0744L67.9761 29.1986L67.8383 29.3227L67.7044 29.4481L67.5718 29.5736L67.4432 29.7003L67.3172 29.8296L67.194 29.9589L67.0733 30.0882L66.9567 30.2201L66.8426 30.352L66.7326 30.4865L66.6252 30.621L66.5218 30.7567L66.4224 30.8938L66.3256 31.0322L66.2328 31.1718L66.144 31.3128L66.0591 31.455L66.0141 31.4576L66.0578 31.4266ZM66.0591 31.455L66.0393 31.4899L66.0141 31.4576L66.0591 31.455ZM61.2017 27.705L61.1885 27.6701L61.3873 27.7606L61.5822 27.8525L61.7745 27.9468L61.964 28.0425L62.1496 28.1408L62.3326 28.2404L62.5129 28.3412L62.6892 28.4447L62.8629 28.5494L63.0339 28.6555L63.2022 28.7641L63.3666 28.874L63.5284 28.9865L63.6861 29.099L63.8426 29.2154L63.995 29.3318L64.1448 29.4507L64.292 29.571L64.4365 29.6925L64.577 29.8167L64.7162 29.9421L64.8514 30.0688L64.984 30.1981L65.1139 30.3287L65.2412 30.4606L65.3658 30.5938L65.4878 30.7283L65.6071 30.8654L65.7237 31.0037L65.8378 31.1434L65.9491 31.2843L66.0578 31.4266L66.0141 31.4576L65.9067 31.3154L65.7953 31.1744L65.6826 31.036L65.5673 30.8977L65.448 30.7619L65.3274 30.6274L65.2027 30.4942L65.0755 30.3636L64.9469 30.2343L64.8143 30.1063L64.6791 29.9796L64.5412 29.8542L64.4007 29.7313L64.2575 29.6098L64.1117 29.4895L63.9619 29.3718L63.8094 29.2555L63.6543 29.1404L63.4966 29.0279L63.3361 28.9154L63.1718 28.8068L63.0047 28.6981L62.835 28.5921L62.6627 28.4874L62.4864 28.3852L62.3074 28.2843L62.1244 28.1848L61.9402 28.0878L61.7506 27.9921L61.5597 27.899L61.3648 27.8072L61.166 27.7167L61.154 27.6831L61.2017 27.705ZM61.166 27.7167L61.1421 27.7063L61.154 27.6831L61.166 27.7167ZM69.1852 21.2447L69.221 21.2771L68.8617 21.4478L68.5077 21.6185L68.1604 21.7917L67.8184 21.9663L67.4816 22.1422L67.1515 22.3206L66.8281 22.5003L66.5099 22.6814L66.1997 22.865L65.8948 23.0499L65.5978 23.2374L65.3075 23.4275L65.0238 23.6189L64.748 23.8128L64.4789 24.0081L64.2177 24.2059L63.9645 24.4064L63.7193 24.6081L63.482 24.8137L63.2526 25.0206L63.0326 25.2301L62.8204 25.4421L62.6163 25.6555L62.4227 25.8727L62.2371 26.0926L62.0608 26.315L61.8924 26.5387L61.7347 26.7663L61.5875 26.9964L61.4483 27.2305L61.3197 27.4658L61.2017 27.705L61.154 27.6831L61.2733 27.4425L61.4019 27.2059L61.5425 26.9706L61.6909 26.7391L61.85 26.5102L62.0184 26.2839L62.196 26.0602L62.3816 25.8404L62.5778 25.6219L62.782 25.4059L62.9954 25.1939L63.2168 24.9831L63.4462 24.7749L63.6848 24.5693L63.9314 24.3663L64.1846 24.1658L64.4471 23.968L64.7162 23.7715L64.9933 23.5775L65.277 23.3848L65.5686 23.1947L65.8669 23.0072L66.1718 22.821L66.4834 22.6374L66.8015 22.4564L67.1263 22.2753L67.4564 22.0969L67.7932 21.921L68.1365 21.7465L68.4839 21.5732L68.8378 21.4012L69.1971 21.2318L69.2329 21.2641L69.1852 21.2447ZM69.1971 21.2318L69.2594 21.2034L69.2329 21.2641L69.1971 21.2318ZM66.5457 27.6197L66.5059 27.6016L66.4754 27.3598L66.4608 27.1231L66.4582 26.8917L66.4701 26.6654L66.494 26.443L66.5298 26.2257L66.5762 26.0124L66.6319 25.8029L66.6981 25.596L66.7724 25.393L66.8559 25.1939L66.946 24.9973L67.0415 24.8033L67.1449 24.6107L67.2523 24.4206L67.365 24.2331L67.4803 24.0469L67.5996 23.8607L67.7203 23.6771L67.8436 23.4921L67.9668 23.3098L68.0901 23.1262L68.2148 22.9426L68.3367 22.759L68.456 22.5753L68.574 22.3891L68.688 22.2029L68.7981 22.0154L68.9041 21.8266L69.0036 21.6353L69.0977 21.4413L69.1852 21.2447L69.2329 21.2641L69.1454 21.462L69.0513 21.6572L68.9505 21.8499L68.8445 22.04L68.7344 22.2288L68.6191 22.4163L68.5011 22.6025L68.3805 22.7861L68.2585 22.971L68.1352 23.1546L68.0106 23.337L67.8873 23.5206L67.7653 23.7042L67.6434 23.8878L67.5254 24.0727L67.41 24.2589L67.2987 24.4464L67.1913 24.6352L67.0892 24.8253L66.9938 25.0193L66.9036 25.2133L66.8214 25.4111L66.7485 25.6128L66.6822 25.8158L66.6266 26.024L66.5815 26.2348L66.5457 26.4494L66.5231 26.6693L66.5112 26.893L66.5125 27.1219L66.5285 27.3546L66.5576 27.5938L66.5178 27.5757L66.5457 27.6197ZM66.5457 27.6197L66.5112 27.6404L66.5059 27.6016L66.5457 27.6197ZM70.2842 27.3844L70.2935 27.4309L70.1688 27.3986L70.0442 27.3688L69.9196 27.3404L69.795 27.3132L69.6717 27.2874L69.5484 27.2628L69.4265 27.2408L69.3032 27.2201L69.1812 27.202L69.0606 27.1865L68.9386 27.1723L68.818 27.1606L68.6986 27.1529L68.5793 27.1464L68.46 27.1425H68.342L68.224 27.1451L68.106 27.1503L67.9907 27.1594L67.874 27.171L67.76 27.1865L67.6447 27.2059L67.532 27.2292L67.4193 27.255L67.3066 27.2861L67.1953 27.321L67.0852 27.3598L66.9752 27.4025L66.8665 27.449L66.7591 27.502L66.6517 27.5576L66.5457 27.6197L66.5178 27.5757L66.6252 27.5137L66.7339 27.4568L66.844 27.4038L66.9553 27.3546L67.0667 27.3119L67.178 27.2719L67.2921 27.2369L67.4047 27.2059L67.5201 27.1788L67.6354 27.1555L67.7508 27.1361L67.8674 27.1206L67.9854 27.1076L68.1034 27.0986L68.2214 27.0934L68.3407 27.0908L68.4613 27.0921L68.5806 27.0947L68.7013 27.1012L68.8233 27.1102L68.9439 27.1219L69.0672 27.1361L69.1891 27.1516L69.3124 27.1697L69.4357 27.1904L69.559 27.2124L69.6823 27.2369L69.8069 27.2628L69.9316 27.29L70.0562 27.3197L70.1808 27.3494L70.3067 27.3805L70.3147 27.427L70.2842 27.3844ZM70.3067 27.3805L70.3624 27.3947L70.3147 27.427L70.3067 27.3805Z" fill="#2B2A29"/>
<path d="M58.6778 48.4088L58.2377 48.3998L57.836 48.3739L57.4741 48.33L57.1479 48.2718L56.8576 48.1968L56.6031 48.1088L56.3804 48.008L56.1908 47.8942L56.033 47.7687L55.9058 47.6317L55.809 47.4856L55.7414 47.3304L55.7003 47.1675L55.687 46.9981L55.6989 46.8248L55.7361 46.6463L55.7957 46.4653L55.8766 46.2804L55.9787 46.0955L56.0993 45.9093L56.2385 45.7244L56.3963 45.5395L56.5686 45.3558L56.7569 45.1761L56.9584 45.0002L57.1718 44.8283L57.3985 44.6614L57.6345 44.5011L57.8811 44.3485L58.1356 44.2037L58.3968 44.0692L58.6646 43.9425L58.6897 43.9955L58.4246 44.1196L58.1648 44.2541L57.9116 44.3977L57.6676 44.5489L57.433 44.708L57.2089 44.8722L56.9968 45.0429L56.7966 45.2175L56.611 45.3959L56.44 45.577L56.2862 45.7593L56.1484 45.9416L56.029 46.1239L55.9296 46.3063L55.8501 46.4847L55.7931 46.6606L55.7573 46.8325L55.7467 46.9981L55.7586 47.1584L55.797 47.3123L55.862 47.4584L55.9535 47.5968L56.0741 47.7261L56.2252 47.8476L56.4082 47.9575L56.6243 48.0558L56.8748 48.1425L57.1612 48.2149L57.4833 48.2731L57.8426 48.3157L58.2403 48.3429L58.6778 48.3519V48.4088ZM62.0743 46.1744L62.0703 46.2907L62.057 46.4045L62.0358 46.517L62.0053 46.6282L61.9669 46.7356L61.9205 46.8429L61.8675 46.9463L61.8052 47.0485L61.7376 47.1481L61.662 47.2438L61.5798 47.3381L61.491 47.4287L61.3955 47.5153L61.2948 47.5994L61.1874 47.6808L61.0747 47.7584L60.9567 47.8321L60.8334 47.9019L60.7061 47.9679L60.5723 48.03L60.4344 48.0881L60.2925 48.1412L60.1467 48.1903L59.9969 48.2343L59.8431 48.2743L59.6854 48.3093L59.5236 48.339L59.3606 48.3636L59.1935 48.383L59.0238 48.3972L58.8515 48.4062L58.6778 48.4088V48.3519L58.8502 48.3493L59.0198 48.3403L59.1869 48.3261L59.3526 48.3067L59.5143 48.2821L59.6721 48.2537L59.8285 48.2187L59.9797 48.18L60.1281 48.136L60.2726 48.0868L60.4118 48.0338L60.5484 47.9769L60.6796 47.9162L60.8056 47.8515L60.9262 47.783L61.0416 47.7106L61.1529 47.6343L61.2576 47.5554L61.3557 47.4726L61.4485 47.3873L61.536 47.2994L61.6156 47.2075L61.6885 47.1144L61.7548 47.0175L61.8144 46.9192L61.8661 46.8183L61.9112 46.7162L61.9483 46.6114L61.9775 46.5041L61.9987 46.3955L62.0106 46.2856L62.016 46.1744H62.0743ZM58.6646 43.9425L58.9191 43.8377L59.1604 43.7511L59.3897 43.6839L59.6085 43.6347L59.8153 43.6011L60.0115 43.5843L60.1957 43.583L60.3707 43.5972L60.5351 43.6244L60.6902 43.6658L60.8347 43.7175L60.97 43.7821L61.0946 43.8571L61.2112 43.9412L61.3186 44.0356L61.4181 44.1365L61.5082 44.2451L61.5917 44.3602L61.666 44.4804L61.7336 44.6058L61.7946 44.7352L61.8476 44.867L61.894 45.0015L61.9351 45.136L61.9709 45.2731L62 45.4089L62.0239 45.5433L62.0425 45.6765L62.057 45.8071L62.0677 45.9339L62.073 46.0567L62.0743 46.1744H62.016L62.0133 46.058L62.008 45.9377L61.9987 45.8123L61.9841 45.683L61.9656 45.5524L61.9417 45.4192L61.9125 45.286L61.8781 45.1515L61.8383 45.0183L61.7919 44.8864L61.7389 44.7571L61.6805 44.6317L61.6143 44.5089L61.5413 44.3912L61.4618 44.28L61.373 44.1752L61.2775 44.077L61.1741 43.9865L61.0614 43.905L60.9408 43.8326L60.8109 43.7705L60.6717 43.7201L60.5232 43.6813L60.3641 43.6541L60.1944 43.6412L60.0141 43.6425L59.8232 43.658L59.6204 43.6903L59.4056 43.7395L59.1789 43.8054L58.9403 43.8908L58.6897 43.9955L58.6646 43.9425Z" fill="#2B2A29"/>
<path fill-rule="evenodd" clip-rule="evenodd" d="M61.178 27.6934C63.311 28.6452 64.8939 29.915 66.0367 31.4421C66.9263 29.9124 68.484 28.6141 70.3002 27.4051C68.9652 27.0637 67.6673 26.9124 66.5325 27.5977C66.1348 25.0025 68.3169 23.3693 69.2091 21.2551C65.35 23.0577 62.3923 25.1228 61.178 27.6934Z" fill="#FEFEFE"/>
<path fill-rule="evenodd" clip-rule="evenodd" d="M62.0451 46.1744C62.0451 44.9563 61.4366 42.7438 58.6778 43.9697C55.8036 45.246 53.7832 48.3804 58.6778 48.3804C60.5377 48.3804 62.0451 47.3925 62.0451 46.1744Z" fill="#FEFEFE"/>
<path fill-rule="evenodd" clip-rule="evenodd" d="M37.8506 48.3804C42.7438 48.3804 40.7234 45.246 37.8506 43.9697C35.0918 42.7438 34.4819 44.9563 34.4819 46.1744C34.4819 47.3925 35.9906 48.3804 37.8506 48.3804Z" fill="#FEFEFE"/>
<path fill-rule="evenodd" clip-rule="evenodd" d="M23.1924 52.9282C23.0599 45.5498 27.7158 41.8218 32.8489 39.462L29.8051 38.293C35.8821 36.3805 42.8381 37.6788 44.9739 40.6568L45.7255 39.74C48.2258 51.6597 40.5181 55.6192 29.0706 56.7881L43.3406 64.023C43.9584 60.5652 46.4573 59.0549 51.967 59.6976C51.617 59.0523 50.331 58.5971 48.2629 58.3359L48.4233 29.0435L45.3848 29.6538C47.034 27.3483 50.3867 24.6845 53.6228 24.1724C51.275 23.0629 46.2571 23.4871 42.2893 24.25C41.7298 21.7181 39.1858 20.1483 37.6347 18.0975L37.815 21.4569C33.8551 17.1962 28.1148 16.8677 23.4602 14.8169C21.8959 24.7181 22.6436 31.984 25.5761 36.7581L20.3899 39.7451L23.7426 39.2525L15.3906 46.8778L18.6665 46.636L17.3063 49.5869L23.1924 52.9282ZM31.2435 31.4422C30.3539 29.9125 28.7962 28.6142 26.98 27.4064C28.3136 27.0638 29.6115 26.9125 30.7477 27.5978C31.144 25.0026 28.9632 23.3694 28.071 21.2552C31.9302 23.0578 34.8865 25.1228 36.1022 27.6935C33.9691 28.6452 32.3849 29.915 31.2435 31.4422Z" fill="#FEFEFE"/>
<path d="M23.483 75.084C23.7946 73.3991 24.5807 72.1163 25.8401 71.2383C27.0982 70.3603 28.6016 69.9207 30.3476 69.9207C32.2221 69.9207 33.6605 70.4133 34.6627 71.4C35.6637 72.3853 35.9898 73.8193 35.6411 75.7021L35.1718 78.3102C35.1175 78.5792 34.9517 78.7137 34.676 78.7137H27.0121L26.9285 79.0913C26.6528 80.5072 27.2878 81.2145 28.8309 81.2145C29.9896 81.2145 31.1841 80.8563 32.4157 80.14C32.7086 79.9421 32.9208 79.9874 33.0494 80.2745L34.1802 82.3447C34.3088 82.6499 34.2531 82.8645 34.0145 82.9899C32.3785 84.0839 30.4576 84.6309 28.2516 84.6309C26.3956 84.6309 24.9387 84.1149 23.8821 83.0843C22.8255 82.0538 22.453 80.6857 22.7658 78.9827L23.483 75.084ZM31.5327 76.0254L31.6706 75.3529C31.7807 74.7788 31.6932 74.2991 31.4095 73.9137C31.1244 73.5284 30.6511 73.3357 29.9896 73.3357C29.3824 73.3357 28.872 73.5064 28.4584 73.8465C28.0448 74.1879 27.7744 74.6715 27.6458 75.2986L27.5079 76.0254H31.5327ZM45.8968 75.406L46.7519 70.7004C46.8063 70.4314 46.9812 70.2969 47.2756 70.2969H50.4732C50.8046 70.2969 50.9425 70.4586 50.8868 70.7819L48.4886 83.8512C48.4329 84.1369 48.2592 84.2805 47.9649 84.2805H44.766C44.4359 84.2805 44.298 84.1111 44.3537 83.7697L45.2353 78.9025H41.6506L40.7133 83.8512C40.6961 84.1369 40.5303 84.2805 40.2175 84.2805H37.0464C36.6977 84.2805 36.5506 84.1111 36.6062 83.7697L39.0323 70.7004C39.0508 70.4314 39.2152 70.2969 39.5281 70.2969H42.727C43.0571 70.2969 43.195 70.4586 43.1393 70.7819L42.3134 75.406H45.8968ZM64.4793 79.3059C64.1664 81.0089 63.3949 82.3227 62.1633 83.246C60.9317 84.1693 59.305 84.6309 57.2833 84.6309C55.4459 84.6309 54.0261 84.0438 53.0238 82.8684C52.0216 81.6943 51.6769 80.2473 51.9898 78.5262L52.5691 75.1913C52.882 73.5594 53.6721 72.2741 54.9395 71.3327C56.2082 70.3913 57.7977 69.9207 59.7094 69.9207C61.5654 69.9207 63.0038 70.5038 64.0246 71.6689C65.044 72.834 65.4073 74.2499 65.113 75.918L64.4793 79.3059ZM56.126 78.9296C55.9961 79.593 56.0743 80.1219 56.3593 80.5163C56.6443 80.9107 57.1083 81.1072 57.7526 81.1072C59.2043 81.1072 60.0501 80.4348 60.2887 79.0913L60.9224 75.6491C61.0324 75.0206 60.941 74.4969 60.6467 74.0754C60.3524 73.6538 59.8844 73.443 59.2414 73.443C58.5786 73.443 58.0271 73.6267 57.5869 73.9952C57.1455 74.3624 56.8697 74.8512 56.7597 75.4603L56.126 78.9296ZM67.7326 70.2969H78.3197C78.6498 70.2969 78.7877 70.4586 78.7333 70.7819L78.264 73.3629C78.2455 73.6318 78.0798 73.7663 77.7682 73.7663H74.5414L72.6669 83.8512C72.6125 84.1369 72.4375 84.2805 72.1432 84.2805H68.9456C68.6142 84.2805 68.4763 84.1111 68.532 83.7697L70.3787 73.7663H67.1811C66.8497 73.7663 66.7118 73.6047 66.7675 73.2827L67.2354 70.7004C67.254 70.4314 67.4197 70.2969 67.7326 70.2969Z" fill="#BCFF00"/>
<defs>
<linearGradient id="paint0_linear_51_19" x1="0.941895" y1="48.221" x2="96.1067" y2="48.221" gradientUnits="userSpaceOnUse">
<stop stop-color="#CD2183"/>
<stop offset="1" stop-color="#00A0E3"/>
</linearGradient>
</defs>
</svg>
