<svg width="28" height="29" viewBox="0 0 28 29" fill="none" xmlns="http://www.w3.org/2000/svg">
<path d="M28 14.3763C28 21.918 21.732 28.0318 14 28.0318C6.26801 28.0318 0 21.918 0 14.3763C0 6.8345 6.26801 0.720703 14 0.720703C21.732 0.720703 28 6.8345 28 14.3763Z" fill="#00CCFF"/>
<path fill-rule="evenodd" clip-rule="evenodd" d="M8.14143 15.7976C8.33375 16.0213 8.75247 16.916 8.98317 17.312C10.3532 19.6186 13.4977 22.8848 16.2636 23.6095C17.9195 24.0461 18.8017 23.6674 20.0868 23.1231C20.7579 22.6458 21.7492 21.1541 21.4728 20.6086C21.3287 20.314 19.0705 18.339 18.5247 17.8635C18.068 17.465 17.7974 17.2934 17.3233 17.6036C16.8615 17.9074 15.5738 18.8527 15.1728 18.9636C14.3587 19.1918 12.318 16.6089 11.7954 15.8639C11.6679 15.6798 11.6036 15.5245 11.4902 15.3446C11.1147 14.7543 10.6967 13.8246 10.4588 13.0595C10.3429 12.7079 10.1517 12.2029 10.1039 11.8316C10.0318 11.2268 10.6138 11.0649 10.9459 10.8781C12.4062 10.0394 12.3599 9.72877 12.2585 8.74314C12.1698 7.8317 12.0945 6.95974 12.0076 6.0589C11.9663 5.63426 11.9352 5.04655 11.5962 4.81409C11.3492 4.64946 10.2714 4.34105 9.96135 4.34352C9.24604 4.33997 8.24199 5.03926 7.72225 5.52677C6.16483 6.99987 6.04019 9.22465 6.39979 11.0419C6.57651 11.9194 6.87029 12.6709 7.16183 13.4622C7.31683 13.8858 7.45848 14.2048 7.62435 14.6266C7.79493 15.0499 7.96434 15.3624 8.14143 15.7976Z" fill="black"/>
</svg>
