<svg width="216" height="22" viewBox="0 0 216 22" fill="none" xmlns="http://www.w3.org/2000/svg">
<g id="Group 4290">
<g id="+7 (3452) 61-72-13">
<path d="M38.9801 9.15053H43.1434V10.9577H38.9801V15.0592H37.1273V10.9577H32.9744V9.15053H37.1273V5.00836H38.9801V9.15053Z" fill="white"/>
<path d="M46.8697 17.3841L52.8441 4.63272H44.9441V2.54133H55.4775V4.17586L49.503 17.3841H46.8697Z" fill="white"/>
<path d="M62.7634 11.6886C62.7634 10.5516 62.8744 9.44157 63.0965 8.35864C63.3255 7.27572 63.6724 6.24356 64.1373 5.26217C64.6022 4.28077 65.1886 3.37382 65.8964 2.54133H68.0301C67.0378 3.83406 66.2884 5.26555 65.7819 6.83579C65.2823 8.40602 65.0325 10.0169 65.0325 11.6683C65.0325 12.7445 65.1435 13.8105 65.3655 14.8663C65.5876 15.9222 65.9207 16.9374 66.3647 17.912C66.8088 18.8934 67.357 19.8139 68.0093 20.6735H65.8964C65.1886 19.8613 64.6022 18.9747 64.1373 18.0136C63.6724 17.0525 63.3255 16.0372 63.0965 14.9678C62.8744 13.8985 62.7634 12.8054 62.7634 11.6886Z" fill="white"/>
<path d="M79.3545 5.93222C79.3545 6.60228 79.2157 7.18435 78.9382 7.67843C78.6606 8.17252 78.279 8.57861 77.7932 8.89672C77.3145 9.20806 76.7593 9.43141 76.1279 9.56678V9.63784C77.3422 9.78675 78.2582 10.159 78.8757 10.7546C79.5002 11.3502 79.8125 12.1387 79.8125 13.1201C79.8125 13.9797 79.6009 14.7479 79.1776 15.4247C78.7543 16.0948 78.1055 16.6227 77.2312 17.0085C76.3569 17.3943 75.2328 17.5872 73.8588 17.5872C73.0331 17.5872 72.2663 17.5229 71.5586 17.3943C70.8577 17.2657 70.1916 17.0592 69.5601 16.775V14.6531C70.2055 14.9645 70.8924 15.2047 71.621 15.3739C72.3496 15.5431 73.04 15.6278 73.6923 15.6278C74.9621 15.6278 75.8677 15.3976 76.4089 14.9374C76.9502 14.4704 77.2208 13.8274 77.2208 13.0084C77.2208 12.4805 77.0785 12.0473 76.794 11.7089C76.5165 11.3705 76.0828 11.1167 75.493 10.9475C74.9101 10.7783 74.1572 10.6937 73.2343 10.6937H71.8916V8.77489H73.2447C74.126 8.77489 74.8338 8.67337 75.3681 8.47032C75.9024 8.2605 76.2875 7.97285 76.5234 7.60737C76.7663 7.24188 76.8877 6.81548 76.8877 6.32817C76.8877 5.69195 76.6761 5.19787 76.2528 4.84592C75.8295 4.4872 75.2015 4.30784 74.3689 4.30784C73.8554 4.30784 73.387 4.36537 72.9637 4.48043C72.5474 4.59549 72.1623 4.74101 71.8084 4.91698C71.4545 5.09296 71.1179 5.28247 70.7988 5.48552L69.6226 3.83068C70.1985 3.41105 70.8855 3.05571 71.6835 2.76468C72.4815 2.47364 73.4113 2.32812 74.4729 2.32812C76.0342 2.32812 77.2381 2.65639 78.0847 3.31291C78.9312 3.96266 79.3545 4.83576 79.3545 5.93222Z" fill="white"/>
<path d="M92.6878 14.1252H90.6269V17.3841H88.2121V14.1252H81.2905V12.3181L88.2434 2.50072H90.6269V12.1455H92.6878V14.1252ZM88.2121 12.1455V8.46017C88.2121 8.1556 88.2156 7.84764 88.2225 7.5363C88.2364 7.21819 88.2503 6.91362 88.2642 6.62259C88.278 6.33155 88.2919 6.0642 88.3058 5.82055C88.3197 5.57012 88.3301 5.36369 88.337 5.20125H88.2538C88.1219 5.47198 87.9762 5.74948 87.8166 6.03375C87.657 6.31125 87.487 6.58198 87.3066 6.84594L83.5595 12.1455H88.2121Z" fill="white"/>
<path d="M99.2035 8.10483C100.182 8.10483 101.042 8.27742 101.785 8.62261C102.534 8.96102 103.117 9.46187 103.533 10.1252C103.95 10.7817 104.158 11.5871 104.158 12.5414C104.158 13.5837 103.932 14.4839 103.481 15.242C103.03 15.9932 102.368 16.5719 101.493 16.978C100.619 17.3841 99.5539 17.5872 98.2979 17.5872C97.5 17.5872 96.754 17.5195 96.0601 17.3841C95.3732 17.2488 94.7799 17.0457 94.2803 16.775V14.6227C94.8007 14.9069 95.4252 15.1404 96.1538 15.3232C96.8824 15.4992 97.5798 15.5871 98.2459 15.5871C98.9537 15.5871 99.5608 15.4856 100.067 15.2826C100.574 15.0795 100.963 14.7682 101.233 14.3486C101.511 13.9289 101.649 13.3976 101.649 12.7546C101.649 11.9018 101.368 11.2453 100.806 10.7851C100.251 10.3181 99.3804 10.0845 98.1939 10.0845C97.7775 10.0845 97.3334 10.1218 96.8616 10.1962C96.3967 10.2639 96.0081 10.3384 95.6958 10.4196L94.6237 9.80028L95.1962 2.54133H103.107V4.64287H97.3508L97.0177 8.33834C97.2675 8.28419 97.5659 8.23343 97.9128 8.18605C98.2598 8.13191 98.69 8.10483 99.2035 8.10483Z" fill="white"/>
<path d="M116.534 17.3841H106.229V15.5871L110.174 11.6886C110.937 10.9306 111.565 10.2774 112.058 9.72922C112.551 9.17422 112.915 8.64968 113.151 8.1556C113.394 7.66151 113.515 7.12344 113.515 6.54137C113.515 5.82393 113.303 5.28247 112.88 4.91698C112.457 4.54473 111.898 4.3586 111.204 4.3586C110.545 4.3586 109.935 4.4872 109.373 4.74439C108.817 4.99482 108.241 5.35354 107.645 5.82055L106.302 4.24693C106.725 3.89498 107.176 3.57348 107.655 3.28245C108.141 2.99141 108.682 2.76129 109.279 2.59209C109.876 2.41611 110.556 2.32812 111.319 2.32812C112.283 2.32812 113.116 2.49733 113.817 2.83574C114.518 3.16739 115.056 3.63101 115.43 4.22662C115.812 4.82223 116.003 5.51597 116.003 6.30786C116.003 7.10652 115.84 7.84426 115.514 8.52108C115.187 9.19791 114.723 9.86797 114.119 10.5313C113.515 11.1878 112.797 11.9018 111.964 12.6734L109.331 15.181V15.2927H116.534V17.3841Z" fill="white"/>
<path d="M123.372 11.6785C123.372 12.802 123.261 13.8985 123.039 14.9678C122.817 16.0372 122.473 17.0525 122.008 18.0136C121.55 18.9747 120.961 19.8613 120.239 20.6735H118.136C118.789 19.8139 119.337 18.8934 119.781 17.912C120.225 16.9306 120.558 15.912 120.78 14.8562C121.002 13.8003 121.113 12.7343 121.113 11.6582C121.113 10.5617 120.999 9.47879 120.77 8.40941C120.548 7.34002 120.215 6.31125 119.771 5.32308C119.327 4.32815 118.775 3.40089 118.116 2.54133H120.239C120.961 3.37382 121.55 4.28077 122.008 5.26217C122.473 6.24356 122.817 7.27572 123.039 8.35864C123.261 9.4348 123.372 10.5414 123.372 11.6785Z" fill="white"/>
<path d="M130.752 11.0592C130.752 10.1861 130.814 9.3265 130.939 8.48047C131.071 7.63444 131.293 6.84255 131.605 6.10481C131.917 5.36707 132.348 4.71732 132.896 4.15555C133.451 3.59379 134.148 3.15385 134.988 2.83574C135.827 2.51087 136.837 2.34843 138.017 2.34843C138.322 2.34843 138.665 2.36197 139.047 2.38904C139.429 2.41611 139.744 2.46011 139.994 2.52102V4.50074C139.724 4.42629 139.425 4.36876 139.099 4.32815C138.78 4.28754 138.461 4.26723 138.142 4.26723C136.865 4.26723 135.869 4.50412 135.154 4.9779C134.44 5.44491 133.93 6.08789 133.624 6.90685C133.319 7.71904 133.142 8.64968 133.093 9.69876H133.218C133.427 9.36035 133.687 9.05916 133.999 8.7952C134.311 8.53123 134.693 8.32142 135.144 8.16575C135.595 8.00331 136.119 7.92209 136.716 7.92209C137.604 7.92209 138.378 8.10483 139.037 8.47032C139.696 8.82904 140.202 9.35019 140.556 10.0338C140.917 10.7174 141.098 11.5465 141.098 12.5211C141.098 13.5702 140.893 14.4738 140.483 15.2318C140.081 15.9899 139.505 16.5719 138.756 16.978C138.013 17.3841 137.128 17.5872 136.102 17.5872C135.345 17.5872 134.641 17.4518 133.989 17.1811C133.343 16.9103 132.778 16.5042 132.292 15.9628C131.806 15.4213 131.428 14.7445 131.157 13.9323C130.887 13.1133 130.752 12.1556 130.752 11.0592ZM136.06 15.6176C136.851 15.6176 137.486 15.3672 137.965 14.8663C138.45 14.3587 138.693 13.5837 138.693 12.5414C138.693 11.6954 138.478 11.0253 138.048 10.5313C137.625 10.0372 136.986 9.79013 136.133 9.79013C135.55 9.79013 135.04 9.91196 134.603 10.1556C134.166 10.3993 133.826 10.7072 133.583 11.0795C133.347 11.4517 133.229 11.8308 133.229 12.2166C133.229 12.6091 133.288 13.0051 133.406 13.4044C133.524 13.8037 133.701 14.1726 133.937 14.511C134.172 14.8426 134.467 15.11 134.821 15.313C135.175 15.5161 135.588 15.6176 136.06 15.6176Z" fill="white"/>
<path d="M150.122 17.3841H147.665V7.83072C147.665 7.51261 147.669 7.1945 147.676 6.87639C147.683 6.55829 147.69 6.24695 147.697 5.94238C147.71 5.6378 147.728 5.34677 147.749 5.06927C147.603 5.22494 147.422 5.39415 147.207 5.57689C146.999 5.75963 146.777 5.94914 146.541 6.14542L144.793 7.50584L143.564 5.99314L148.082 2.54133H150.122V17.3841Z" fill="white"/>
<path d="M154.92 12.8155V10.7952H160.291V12.8155H154.92Z" fill="white"/>
<path d="M163.736 17.3841L169.71 4.63272H161.81V2.54133H172.344V4.17586L166.369 17.3841H163.736Z" fill="white"/>
<path d="M184.501 17.3841H174.197V15.5871L178.141 11.6886C178.905 10.9306 179.533 10.2774 180.025 9.72922C180.518 9.17422 180.882 8.64968 181.118 8.1556C181.361 7.66151 181.482 7.12344 181.482 6.54137C181.482 5.82393 181.271 5.28247 180.848 4.91698C180.424 4.54473 179.866 4.3586 179.172 4.3586C178.513 4.3586 177.902 4.4872 177.34 4.74439C176.785 4.99482 176.209 5.35354 175.612 5.82055L174.269 4.24693C174.693 3.89498 175.144 3.57348 175.622 3.28245C176.108 2.99141 176.649 2.76129 177.246 2.59209C177.843 2.41611 178.523 2.32812 179.286 2.32812C180.251 2.32812 181.083 2.49733 181.784 2.83574C182.485 3.16739 183.023 3.63101 183.398 4.22662C183.779 4.82223 183.97 5.51597 183.97 6.30786C183.97 7.10652 183.807 7.84426 183.481 8.52108C183.155 9.19791 182.69 9.86797 182.086 10.5313C181.482 11.1878 180.764 11.9018 179.932 12.6734L177.298 15.181V15.2927H184.501V17.3841Z" fill="white"/>
<path d="M186.187 12.8155V10.7952H191.558V12.8155H186.187Z" fill="white"/>
<path d="M200.457 17.3841H198.001V7.83072C198.001 7.51261 198.004 7.1945 198.011 6.87639C198.018 6.55829 198.025 6.24695 198.032 5.94238C198.046 5.6378 198.063 5.34677 198.084 5.06927C197.938 5.22494 197.758 5.39415 197.543 5.57689C197.335 5.75963 197.113 5.94914 196.877 6.14542L195.128 7.50584L193.9 5.99314L198.417 2.54133H200.457V17.3841Z" fill="white"/>
<path d="M215.185 5.93222C215.185 6.60228 215.046 7.18435 214.769 7.67843C214.491 8.17252 214.11 8.57861 213.624 8.89672C213.145 9.20806 212.59 9.43141 211.958 9.56678V9.63784C213.173 9.78675 214.089 10.159 214.706 10.7546C215.331 11.3502 215.643 12.1387 215.643 13.1201C215.643 13.9797 215.431 14.7479 215.008 15.4247C214.585 16.0948 213.936 16.6227 213.062 17.0085C212.187 17.3943 211.063 17.5872 209.689 17.5872C208.864 17.5872 208.097 17.5229 207.389 17.3943C206.688 17.2657 206.022 17.0592 205.391 16.775V14.6531C206.036 14.9645 206.723 15.2047 207.452 15.3739C208.18 15.5431 208.871 15.6278 209.523 15.6278C210.793 15.6278 211.698 15.3976 212.239 14.9374C212.781 14.4704 213.051 13.8274 213.051 13.0084C213.051 12.4805 212.909 12.0473 212.625 11.7089C212.347 11.3705 211.913 11.1167 211.324 10.9475C210.741 10.7783 209.988 10.6937 209.065 10.6937H207.722V8.77489H209.075C209.957 8.77489 210.664 8.67337 211.199 8.47032C211.733 8.2605 212.118 7.97285 212.354 7.60737C212.597 7.24188 212.718 6.81548 212.718 6.32817C212.718 5.69195 212.507 5.19787 212.083 4.84592C211.66 4.4872 211.032 4.30784 210.199 4.30784C209.686 4.30784 209.218 4.36537 208.794 4.48043C208.378 4.59549 207.993 4.74101 207.639 4.91698C207.285 5.09296 206.949 5.28247 206.629 5.48552L205.453 3.83068C206.029 3.41105 206.716 3.05571 207.514 2.76468C208.312 2.47364 209.242 2.32812 210.304 2.32812C211.865 2.32812 213.069 2.65639 213.915 3.31291C214.762 3.96266 215.185 4.83576 215.185 5.93222Z" fill="white"/>
</g>
<g id="Group 4257">
<path id="Ellipse 34" d="M21.3166 10.6275C21.3166 16.3691 16.5447 21.0235 10.6583 21.0235C4.77187 21.0235 0 16.3691 0 10.6275C0 4.88591 4.77187 0.231445 10.6583 0.231445C16.5447 0.231445 21.3166 4.88591 21.3166 10.6275Z" fill="#B5F602"/>
<path id="Vector" fill-rule="evenodd" clip-rule="evenodd" d="M6.19799 11.7095C6.3444 11.8797 6.66317 12.5609 6.83881 12.8624C7.88185 14.6184 10.2757 17.105 12.3815 17.6567C13.6421 17.9891 14.3137 17.7008 15.292 17.2864C15.803 16.9231 16.5576 15.7874 16.3473 15.3721C16.2375 15.1478 14.5184 13.6443 14.1028 13.2823C13.7551 12.9789 13.5492 12.8482 13.1882 13.0844C12.8367 13.3157 11.8563 14.0354 11.551 14.1198C10.9312 14.2935 9.37764 12.3271 8.97977 11.7599C8.88272 11.6198 8.83374 11.5015 8.74744 11.3646C8.46152 10.9152 8.14334 10.2075 7.9622 9.62491C7.87397 9.35731 7.72838 8.9728 7.69199 8.69013C7.63713 8.22969 8.08019 8.10647 8.33304 7.9642C9.4448 7.32575 9.40954 7.08924 9.33236 6.33888C9.26482 5.64499 9.20747 4.98117 9.14131 4.29535C9.10988 3.97208 9.08621 3.52465 8.82813 3.34767C8.64009 3.22234 7.81953 2.98755 7.5835 2.98942C7.03893 2.98672 6.27454 3.5191 5.87886 3.89024C4.69319 5.01172 4.5983 6.70546 4.87207 8.08893C5.00661 8.75699 5.23026 9.3291 5.45221 9.93154C5.57022 10.254 5.67806 10.4969 5.80433 10.818C5.93419 11.1402 6.06316 11.3782 6.19799 11.7095Z" fill="black"/>
</g>
</g>
</svg>
