<svg width="319" height="159" viewBox="0 0 319 159" fill="none" xmlns="http://www.w3.org/2000/svg">
<g id="Group 4292">
<g id="Rectangle 473" filter="url(#filter0_d_51_563)">
<path d="M50.4465 50.8545H268.893V108.384H50.4465V50.8545Z" fill="#222123"/>
<path d="M50.9465 51.3545H268.393V107.884H50.9465V51.3545Z" stroke="#2F2D2C"/>
</g>
<g id="&#208;&#157;&#208;&#176;&#208;&#191;&#208;&#184;&#209;&#129;&#208;&#176;&#209;&#130;&#209;&#140; &#208;&#178; Telegram">
<mask id="path-3-outside-1_51_563" maskUnits="userSpaceOnUse" x="71.9141" y="69.9302" width="176" height="20" fill="black">
<rect fill="white" x="71.9141" y="69.9302" width="176" height="20"/>
<path d="M82.3858 83.881H80.9351V78.1546H74.3647V83.881H72.9141V71.7125H74.3647V76.8895H80.9351V71.7125H82.3858V83.881Z"/>
<path d="M91.354 83.881L91.0724 82.5826H91.0042C90.5377 83.1541 90.0712 83.5425 89.6047 83.7478C89.144 83.9475 88.5666 84.0474 87.8725 84.0474C86.9453 84.0474 86.2171 83.8144 85.6881 83.3483C85.1647 82.8822 84.903 82.2191 84.903 81.3591C84.903 79.5169 86.4134 78.5514 89.4341 78.4626L91.0212 78.4127V77.8467C91.0212 77.1309 90.862 76.6038 90.5434 76.2653C90.2305 75.9213 89.7271 75.7493 89.033 75.7493C88.2537 75.7493 87.3719 75.9823 86.3878 76.4484L85.9526 75.3914C86.4134 75.1472 86.9168 74.9558 87.4629 74.8171C88.0148 74.6784 88.5666 74.609 89.1184 74.609C90.2334 74.609 91.0582 74.8504 91.593 75.3331C92.1334 75.8159 92.4036 76.5899 92.4036 77.6553V83.881H91.354ZM88.1541 82.9072C89.0359 82.9072 89.7271 82.6713 90.2277 82.1997C90.734 81.728 90.9871 81.0677 90.9871 80.2188V79.3948L89.5706 79.4531C88.4443 79.4919 87.6308 79.6639 87.1302 79.9691C86.6352 80.2687 86.3878 80.7376 86.3878 81.3757C86.3878 81.8751 86.5414 82.2552 86.8486 82.516C87.1614 82.7768 87.5966 82.9072 88.1541 82.9072Z"/>
<path d="M96.7469 83.881H95.3304V74.7588H103.181V83.881H101.747V75.9573H96.7469V83.881Z"/>
<path d="M107.516 74.7588V80.5434L107.456 82.0582L107.43 82.5326L112.49 74.7588H114.257V83.881H112.934V78.3045L112.96 77.2058L113.002 76.1238L107.951 83.881H106.185V74.7588H107.516Z"/>
<path d="M120.998 84.0474C119.644 84.0474 118.594 83.6424 117.849 82.8322C117.11 82.0166 116.74 80.8652 116.74 79.3781C116.74 77.8522 117.115 76.6731 117.866 75.8408C118.623 75.0085 119.698 74.5924 121.092 74.5924C121.541 74.5924 121.991 74.6395 122.44 74.7338C122.889 74.8282 123.242 74.9391 123.498 75.0668L123.063 76.2403C122.75 76.1183 122.409 76.0184 122.039 75.9407C121.669 75.8575 121.342 75.8159 121.058 75.8159C119.158 75.8159 118.208 76.9977 118.208 79.3615C118.208 80.4824 118.438 81.3424 118.899 81.9417C119.365 82.5409 120.054 82.8406 120.964 82.8406C121.743 82.8406 122.542 82.6769 123.362 82.3495V83.573C122.736 83.8893 121.948 84.0474 120.998 84.0474Z"/>
<path d="M131.34 83.881L131.058 82.5826H130.99C130.524 83.1541 130.057 83.5425 129.591 83.7478C129.13 83.9475 128.553 84.0474 127.858 84.0474C126.931 84.0474 126.203 83.8144 125.674 83.3483C125.151 82.8822 124.889 82.2191 124.889 81.3591C124.889 79.5169 126.399 78.5514 129.42 78.4626L131.007 78.4127V77.8467C131.007 77.1309 130.848 76.6038 130.529 76.2653C130.216 75.9213 129.713 75.7493 129.019 75.7493C128.24 75.7493 127.358 75.9823 126.374 76.4484L125.939 75.3914C126.399 75.1472 126.903 74.9558 127.449 74.8171C128.001 74.6784 128.553 74.609 129.104 74.609C130.219 74.609 131.044 74.8504 131.579 75.3331C132.119 75.8159 132.39 76.5899 132.39 77.6553V83.881H131.34ZM128.14 82.9072C129.022 82.9072 129.713 82.6713 130.214 82.1997C130.72 81.728 130.973 81.0677 130.973 80.2188V79.3948L129.557 79.4531C128.43 79.4919 127.617 79.6639 127.116 79.9691C126.621 80.2687 126.374 80.7376 126.374 81.3757C126.374 81.8751 126.527 82.2552 126.835 82.516C127.147 82.7768 127.583 82.9072 128.14 82.9072Z"/>
<path d="M141.622 75.9407H138.585V83.881H137.168V75.9407H134.164V74.7588H141.622V75.9407Z"/>
<path d="M144.891 78.5292H147.775C150.164 78.5292 151.359 79.3865 151.359 81.101C151.359 81.9999 151.046 82.688 150.42 83.1652C149.8 83.6424 148.89 83.881 147.689 83.881H143.474V74.7588H144.891V78.5292ZM144.891 79.7194V82.724H147.621C148.372 82.724 148.947 82.5964 149.345 82.3412C149.743 82.0859 149.942 81.7003 149.942 81.1843C149.942 80.6793 149.757 80.3103 149.387 80.0773C149.023 79.8387 148.42 79.7194 147.578 79.7194H144.891Z"/>
<path d="M165.942 77.0477C165.942 77.6414 165.765 78.0936 165.413 78.4043C165.066 78.7095 164.576 78.9148 163.945 79.0203V79.0952C164.741 79.2006 165.322 79.4281 165.686 79.7777C166.055 80.1272 166.24 80.61 166.24 81.2259C166.24 82.0748 165.919 82.7296 165.276 83.1901C164.639 83.6507 163.706 83.881 162.477 83.881H158.356V74.7588H162.46C164.781 74.7588 165.942 75.5218 165.942 77.0477ZM164.824 81.1343C164.824 80.6405 164.63 80.2826 164.244 80.0606C163.862 79.8331 163.228 79.7194 162.341 79.7194H159.772V82.724H162.375C164.007 82.724 164.824 82.1941 164.824 81.1343ZM164.559 77.1808C164.559 76.7369 164.383 76.4234 164.03 76.2403C163.683 76.0517 163.154 75.9573 162.443 75.9573H159.772V78.5292H162.17C163.046 78.5292 163.663 78.4238 164.022 78.2129C164.38 78.0021 164.559 77.658 164.559 77.1808Z"/>
<path d="M176.898 83.881H175.447V72.9693H171.497V71.7125H180.849V72.9693H176.898V83.881Z"/>
<path d="M186.472 84.0474C185.09 84.0474 183.998 83.6368 183.195 82.8156C182.399 81.9944 182.001 80.8541 182.001 79.3948C182.001 77.9244 182.371 76.7564 183.11 75.8908C183.855 75.0252 184.854 74.5924 186.105 74.5924C187.277 74.5924 188.204 74.9697 188.887 75.7243C189.57 76.4734 189.911 77.4638 189.911 78.6957V79.5696H183.469C183.497 80.6405 183.773 81.4534 184.296 82.0083C184.825 82.5631 185.568 82.8406 186.523 82.8406C187.53 82.8406 188.526 82.6353 189.51 82.2247V83.4565C189.009 83.6673 188.534 83.8172 188.085 83.9059C187.641 84.0003 187.104 84.0474 186.472 84.0474ZM186.088 75.7493C185.337 75.7493 184.737 75.9879 184.288 76.4651C183.844 76.9422 183.582 77.6025 183.503 78.446H188.392C188.392 77.5748 188.193 76.909 187.795 76.4484C187.397 75.9823 186.828 75.7493 186.088 75.7493Z"/>
<path d="M193.751 83.881H192.334V70.9302H193.751V83.881Z"/>
<path d="M200.705 84.0474C199.323 84.0474 198.231 83.6368 197.429 82.8156C196.632 81.9944 196.234 80.8541 196.234 79.3948C196.234 77.9244 196.604 76.7564 197.343 75.8908C198.089 75.0252 199.087 74.5924 200.338 74.5924C201.51 74.5924 202.438 74.9697 203.12 75.7243C203.803 76.4734 204.144 77.4638 204.144 78.6957V79.5696H197.702C197.73 80.6405 198.006 81.4534 198.529 82.0083C199.058 82.5631 199.801 82.8406 200.757 82.8406C201.763 82.8406 202.759 82.6353 203.743 82.2247V83.4565C203.242 83.6673 202.767 83.8172 202.318 83.9059C201.874 84.0003 201.337 84.0474 200.705 84.0474ZM200.321 75.7493C199.57 75.7493 198.97 75.9879 198.521 76.4651C198.077 76.9422 197.815 77.6025 197.736 78.446H202.625C202.625 77.5748 202.426 76.909 202.028 76.4484C201.63 75.9823 201.061 75.7493 200.321 75.7493Z"/>
<path d="M214.222 74.7588V75.6327L212.489 75.8325C212.649 76.0267 212.791 76.2819 212.916 76.5982C213.041 76.909 213.104 77.2613 213.104 77.6553C213.104 78.5486 212.791 79.2616 212.165 79.7943C211.539 80.327 210.68 80.5933 209.588 80.5933C209.309 80.5933 209.048 80.5711 208.803 80.5267C208.2 80.8375 207.899 81.2287 207.899 81.7003C207.899 81.95 208.004 82.1359 208.214 82.258C208.425 82.3745 208.786 82.4327 209.298 82.4327H210.954C211.966 82.4327 212.743 82.6408 213.283 83.057C213.829 83.4731 214.102 84.0779 214.102 84.8714C214.102 85.8813 213.687 86.6498 212.856 87.1769C212.026 87.7096 210.814 87.9759 209.221 87.9759C207.998 87.9759 207.054 87.754 206.388 87.3101C205.728 86.8662 205.398 86.2392 205.398 85.4291C205.398 84.8742 205.581 84.3942 205.945 83.9892C206.309 83.5841 206.821 83.3094 207.481 83.1652C207.242 83.0597 207.04 82.8961 206.875 82.6741C206.715 82.4522 206.636 82.1941 206.636 81.9001C206.636 81.5671 206.727 81.2758 206.909 81.0261C207.091 80.7764 207.378 80.5351 207.771 80.302C207.287 80.1078 206.892 79.7777 206.585 79.3116C206.283 78.8455 206.132 78.3128 206.132 77.7135C206.132 76.7147 206.44 75.9462 207.054 75.408C207.668 74.8642 208.539 74.5924 209.665 74.5924C210.154 74.5924 210.595 74.6478 210.988 74.7588H214.222ZM206.764 85.4124C206.764 85.9063 206.977 86.2808 207.404 86.536C207.83 86.7913 208.442 86.9189 209.238 86.9189C210.427 86.9189 211.306 86.7441 211.875 86.3945C212.45 86.0505 212.737 85.5817 212.737 84.9879C212.737 84.4941 212.581 84.1501 212.268 83.9559C211.955 83.7672 211.366 83.6729 210.501 83.6729H208.803C208.16 83.6729 207.66 83.8227 207.301 84.1223C206.943 84.422 206.764 84.852 206.764 85.4124ZM207.532 77.6802C207.532 78.3183 207.717 78.8011 208.086 79.1285C208.456 79.4558 208.971 79.6195 209.631 79.6195C211.013 79.6195 211.704 78.9648 211.704 77.6553C211.704 76.2847 211.005 75.5994 209.605 75.5994C208.94 75.5994 208.428 75.7742 208.069 76.1238C207.711 76.4734 207.532 76.9922 207.532 77.6802Z"/>
<path d="M220.408 74.5924C220.823 74.5924 221.196 74.6256 221.526 74.6922L221.33 75.974C220.943 75.8908 220.602 75.8491 220.306 75.8491C219.549 75.8491 218.901 76.1488 218.36 76.748C217.826 77.3473 217.558 78.0936 217.558 78.987V83.881H216.142V74.7588H217.311L217.473 76.4484H217.541C217.888 75.8547 218.306 75.3969 218.795 75.0751C219.285 74.7533 219.822 74.5924 220.408 74.5924Z"/>
<path d="M229.027 83.881L228.745 82.5826H228.677C228.21 83.1541 227.744 83.5425 227.277 83.7478C226.817 83.9475 226.239 84.0474 225.545 84.0474C224.618 84.0474 223.89 83.8144 223.361 83.3483C222.837 82.8822 222.576 82.2191 222.576 81.3591C222.576 79.5169 224.086 78.5514 227.107 78.4626L228.694 78.4127V77.8467C228.694 77.1309 228.535 76.6038 228.216 76.2653C227.903 75.9213 227.4 75.7493 226.706 75.7493C225.926 75.7493 225.044 75.9823 224.06 76.4484L223.625 75.3914C224.086 75.1472 224.589 74.9558 225.135 74.8171C225.687 74.6784 226.239 74.609 226.791 74.609C227.906 74.609 228.731 74.8504 229.266 75.3331C229.806 75.8159 230.076 76.5899 230.076 77.6553V83.881H229.027ZM225.827 82.9072C226.708 82.9072 227.4 82.6713 227.9 82.1997C228.407 81.728 228.66 81.0677 228.66 80.2188V79.3948L227.243 79.4531C226.117 79.4919 225.303 79.6639 224.803 79.9691C224.308 80.2687 224.06 80.7376 224.06 81.3757C224.06 81.8751 224.214 82.2552 224.521 82.516C224.834 82.7768 225.269 82.9072 225.827 82.9072Z"/>
<path d="M244.924 83.881V77.9466C244.924 77.2197 244.764 76.6759 244.446 76.3152C244.127 75.949 243.632 75.7659 242.961 75.7659C242.079 75.7659 241.428 76.0128 241.007 76.5067C240.586 77.0005 240.376 77.7607 240.376 78.7872V83.881H238.959V77.9466C238.959 77.2197 238.8 76.6759 238.481 76.3152C238.163 75.949 237.665 75.7659 236.988 75.7659C236.1 75.7659 235.449 76.0267 235.034 76.5483C234.624 77.0643 234.419 77.9133 234.419 79.0952V83.881H233.003V74.7588H234.155L234.385 76.0073H234.454C234.721 75.5634 235.096 75.2166 235.58 74.9669C236.069 74.7172 236.615 74.5924 237.218 74.5924C238.68 74.5924 239.636 75.1084 240.085 76.1405H240.154C240.432 75.6633 240.836 75.2859 241.365 75.0085C241.894 74.7311 242.497 74.5924 243.174 74.5924C244.233 74.5924 245.023 74.8587 245.547 75.3914C246.076 75.9185 246.34 76.7647 246.34 77.9299V83.881H244.924Z"/>
</mask>
<path d="M82.3858 83.881H80.9351V78.1546H74.3647V83.881H72.9141V71.7125H74.3647V76.8895H80.9351V71.7125H82.3858V83.881Z" fill="#00CCFF"/>
<path d="M91.354 83.881L91.0724 82.5826H91.0042C90.5377 83.1541 90.0712 83.5425 89.6047 83.7478C89.144 83.9475 88.5666 84.0474 87.8725 84.0474C86.9453 84.0474 86.2171 83.8144 85.6881 83.3483C85.1647 82.8822 84.903 82.2191 84.903 81.3591C84.903 79.5169 86.4134 78.5514 89.4341 78.4626L91.0212 78.4127V77.8467C91.0212 77.1309 90.862 76.6038 90.5434 76.2653C90.2305 75.9213 89.7271 75.7493 89.033 75.7493C88.2537 75.7493 87.3719 75.9823 86.3878 76.4484L85.9526 75.3914C86.4134 75.1472 86.9168 74.9558 87.4629 74.8171C88.0148 74.6784 88.5666 74.609 89.1184 74.609C90.2334 74.609 91.0582 74.8504 91.593 75.3331C92.1334 75.8159 92.4036 76.5899 92.4036 77.6553V83.881H91.354ZM88.1541 82.9072C89.0359 82.9072 89.7271 82.6713 90.2277 82.1997C90.734 81.728 90.9871 81.0677 90.9871 80.2188V79.3948L89.5706 79.4531C88.4443 79.4919 87.6308 79.6639 87.1302 79.9691C86.6352 80.2687 86.3878 80.7376 86.3878 81.3757C86.3878 81.8751 86.5414 82.2552 86.8486 82.516C87.1614 82.7768 87.5966 82.9072 88.1541 82.9072Z" fill="#00CCFF"/>
<path d="M96.7469 83.881H95.3304V74.7588H103.181V83.881H101.747V75.9573H96.7469V83.881Z" fill="#00CCFF"/>
<path d="M107.516 74.7588V80.5434L107.456 82.0582L107.43 82.5326L112.49 74.7588H114.257V83.881H112.934V78.3045L112.96 77.2058L113.002 76.1238L107.951 83.881H106.185V74.7588H107.516Z" fill="#00CCFF"/>
<path d="M120.998 84.0474C119.644 84.0474 118.594 83.6424 117.849 82.8322C117.11 82.0166 116.74 80.8652 116.74 79.3781C116.74 77.8522 117.115 76.6731 117.866 75.8408C118.623 75.0085 119.698 74.5924 121.092 74.5924C121.541 74.5924 121.991 74.6395 122.44 74.7338C122.889 74.8282 123.242 74.9391 123.498 75.0668L123.063 76.2403C122.75 76.1183 122.409 76.0184 122.039 75.9407C121.669 75.8575 121.342 75.8159 121.058 75.8159C119.158 75.8159 118.208 76.9977 118.208 79.3615C118.208 80.4824 118.438 81.3424 118.899 81.9417C119.365 82.5409 120.054 82.8406 120.964 82.8406C121.743 82.8406 122.542 82.6769 123.362 82.3495V83.573C122.736 83.8893 121.948 84.0474 120.998 84.0474Z" fill="#00CCFF"/>
<path d="M131.34 83.881L131.058 82.5826H130.99C130.524 83.1541 130.057 83.5425 129.591 83.7478C129.13 83.9475 128.553 84.0474 127.858 84.0474C126.931 84.0474 126.203 83.8144 125.674 83.3483C125.151 82.8822 124.889 82.2191 124.889 81.3591C124.889 79.5169 126.399 78.5514 129.42 78.4626L131.007 78.4127V77.8467C131.007 77.1309 130.848 76.6038 130.529 76.2653C130.216 75.9213 129.713 75.7493 129.019 75.7493C128.24 75.7493 127.358 75.9823 126.374 76.4484L125.939 75.3914C126.399 75.1472 126.903 74.9558 127.449 74.8171C128.001 74.6784 128.553 74.609 129.104 74.609C130.219 74.609 131.044 74.8504 131.579 75.3331C132.119 75.8159 132.39 76.5899 132.39 77.6553V83.881H131.34ZM128.14 82.9072C129.022 82.9072 129.713 82.6713 130.214 82.1997C130.72 81.728 130.973 81.0677 130.973 80.2188V79.3948L129.557 79.4531C128.43 79.4919 127.617 79.6639 127.116 79.9691C126.621 80.2687 126.374 80.7376 126.374 81.3757C126.374 81.8751 126.527 82.2552 126.835 82.516C127.147 82.7768 127.583 82.9072 128.14 82.9072Z" fill="#00CCFF"/>
<path d="M141.622 75.9407H138.585V83.881H137.168V75.9407H134.164V74.7588H141.622V75.9407Z" fill="#00CCFF"/>
<path d="M144.891 78.5292H147.775C150.164 78.5292 151.359 79.3865 151.359 81.101C151.359 81.9999 151.046 82.688 150.42 83.1652C149.8 83.6424 148.89 83.881 147.689 83.881H143.474V74.7588H144.891V78.5292ZM144.891 79.7194V82.724H147.621C148.372 82.724 148.947 82.5964 149.345 82.3412C149.743 82.0859 149.942 81.7003 149.942 81.1843C149.942 80.6793 149.757 80.3103 149.387 80.0773C149.023 79.8387 148.42 79.7194 147.578 79.7194H144.891Z" fill="#00CCFF"/>
<path d="M165.942 77.0477C165.942 77.6414 165.765 78.0936 165.413 78.4043C165.066 78.7095 164.576 78.9148 163.945 79.0203V79.0952C164.741 79.2006 165.322 79.4281 165.686 79.7777C166.055 80.1272 166.24 80.61 166.24 81.2259C166.24 82.0748 165.919 82.7296 165.276 83.1901C164.639 83.6507 163.706 83.881 162.477 83.881H158.356V74.7588H162.46C164.781 74.7588 165.942 75.5218 165.942 77.0477ZM164.824 81.1343C164.824 80.6405 164.63 80.2826 164.244 80.0606C163.862 79.8331 163.228 79.7194 162.341 79.7194H159.772V82.724H162.375C164.007 82.724 164.824 82.1941 164.824 81.1343ZM164.559 77.1808C164.559 76.7369 164.383 76.4234 164.03 76.2403C163.683 76.0517 163.154 75.9573 162.443 75.9573H159.772V78.5292H162.17C163.046 78.5292 163.663 78.4238 164.022 78.2129C164.38 78.0021 164.559 77.658 164.559 77.1808Z" fill="#00CCFF"/>
<path d="M176.898 83.881H175.447V72.9693H171.497V71.7125H180.849V72.9693H176.898V83.881Z" fill="#00CCFF"/>
<path d="M186.472 84.0474C185.09 84.0474 183.998 83.6368 183.195 82.8156C182.399 81.9944 182.001 80.8541 182.001 79.3948C182.001 77.9244 182.371 76.7564 183.11 75.8908C183.855 75.0252 184.854 74.5924 186.105 74.5924C187.277 74.5924 188.204 74.9697 188.887 75.7243C189.57 76.4734 189.911 77.4638 189.911 78.6957V79.5696H183.469C183.497 80.6405 183.773 81.4534 184.296 82.0083C184.825 82.5631 185.568 82.8406 186.523 82.8406C187.53 82.8406 188.526 82.6353 189.51 82.2247V83.4565C189.009 83.6673 188.534 83.8172 188.085 83.9059C187.641 84.0003 187.104 84.0474 186.472 84.0474ZM186.088 75.7493C185.337 75.7493 184.737 75.9879 184.288 76.4651C183.844 76.9422 183.582 77.6025 183.503 78.446H188.392C188.392 77.5748 188.193 76.909 187.795 76.4484C187.397 75.9823 186.828 75.7493 186.088 75.7493Z" fill="#00CCFF"/>
<path d="M193.751 83.881H192.334V70.9302H193.751V83.881Z" fill="#00CCFF"/>
<path d="M200.705 84.0474C199.323 84.0474 198.231 83.6368 197.429 82.8156C196.632 81.9944 196.234 80.8541 196.234 79.3948C196.234 77.9244 196.604 76.7564 197.343 75.8908C198.089 75.0252 199.087 74.5924 200.338 74.5924C201.51 74.5924 202.438 74.9697 203.12 75.7243C203.803 76.4734 204.144 77.4638 204.144 78.6957V79.5696H197.702C197.73 80.6405 198.006 81.4534 198.529 82.0083C199.058 82.5631 199.801 82.8406 200.757 82.8406C201.763 82.8406 202.759 82.6353 203.743 82.2247V83.4565C203.242 83.6673 202.767 83.8172 202.318 83.9059C201.874 84.0003 201.337 84.0474 200.705 84.0474ZM200.321 75.7493C199.57 75.7493 198.97 75.9879 198.521 76.4651C198.077 76.9422 197.815 77.6025 197.736 78.446H202.625C202.625 77.5748 202.426 76.909 202.028 76.4484C201.63 75.9823 201.061 75.7493 200.321 75.7493Z" fill="#00CCFF"/>
<path d="M214.222 74.7588V75.6327L212.489 75.8325C212.649 76.0267 212.791 76.2819 212.916 76.5982C213.041 76.909 213.104 77.2613 213.104 77.6553C213.104 78.5486 212.791 79.2616 212.165 79.7943C211.539 80.327 210.68 80.5933 209.588 80.5933C209.309 80.5933 209.048 80.5711 208.803 80.5267C208.2 80.8375 207.899 81.2287 207.899 81.7003C207.899 81.95 208.004 82.1359 208.214 82.258C208.425 82.3745 208.786 82.4327 209.298 82.4327H210.954C211.966 82.4327 212.743 82.6408 213.283 83.057C213.829 83.4731 214.102 84.0779 214.102 84.8714C214.102 85.8813 213.687 86.6498 212.856 87.1769C212.026 87.7096 210.814 87.9759 209.221 87.9759C207.998 87.9759 207.054 87.754 206.388 87.3101C205.728 86.8662 205.398 86.2392 205.398 85.4291C205.398 84.8742 205.581 84.3942 205.945 83.9892C206.309 83.5841 206.821 83.3094 207.481 83.1652C207.242 83.0597 207.04 82.8961 206.875 82.6741C206.715 82.4522 206.636 82.1941 206.636 81.9001C206.636 81.5671 206.727 81.2758 206.909 81.0261C207.091 80.7764 207.378 80.5351 207.771 80.302C207.287 80.1078 206.892 79.7777 206.585 79.3116C206.283 78.8455 206.132 78.3128 206.132 77.7135C206.132 76.7147 206.44 75.9462 207.054 75.408C207.668 74.8642 208.539 74.5924 209.665 74.5924C210.154 74.5924 210.595 74.6478 210.988 74.7588H214.222ZM206.764 85.4124C206.764 85.9063 206.977 86.2808 207.404 86.536C207.83 86.7913 208.442 86.9189 209.238 86.9189C210.427 86.9189 211.306 86.7441 211.875 86.3945C212.45 86.0505 212.737 85.5817 212.737 84.9879C212.737 84.4941 212.581 84.1501 212.268 83.9559C211.955 83.7672 211.366 83.6729 210.501 83.6729H208.803C208.16 83.6729 207.66 83.8227 207.301 84.1223C206.943 84.422 206.764 84.852 206.764 85.4124ZM207.532 77.6802C207.532 78.3183 207.717 78.8011 208.086 79.1285C208.456 79.4558 208.971 79.6195 209.631 79.6195C211.013 79.6195 211.704 78.9648 211.704 77.6553C211.704 76.2847 211.005 75.5994 209.605 75.5994C208.94 75.5994 208.428 75.7742 208.069 76.1238C207.711 76.4734 207.532 76.9922 207.532 77.6802Z" fill="#00CCFF"/>
<path d="M220.408 74.5924C220.823 74.5924 221.196 74.6256 221.526 74.6922L221.33 75.974C220.943 75.8908 220.602 75.8491 220.306 75.8491C219.549 75.8491 218.901 76.1488 218.36 76.748C217.826 77.3473 217.558 78.0936 217.558 78.987V83.881H216.142V74.7588H217.311L217.473 76.4484H217.541C217.888 75.8547 218.306 75.3969 218.795 75.0751C219.285 74.7533 219.822 74.5924 220.408 74.5924Z" fill="#00CCFF"/>
<path d="M229.027 83.881L228.745 82.5826H228.677C228.21 83.1541 227.744 83.5425 227.277 83.7478C226.817 83.9475 226.239 84.0474 225.545 84.0474C224.618 84.0474 223.89 83.8144 223.361 83.3483C222.837 82.8822 222.576 82.2191 222.576 81.3591C222.576 79.5169 224.086 78.5514 227.107 78.4626L228.694 78.4127V77.8467C228.694 77.1309 228.535 76.6038 228.216 76.2653C227.903 75.9213 227.4 75.7493 226.706 75.7493C225.926 75.7493 225.044 75.9823 224.06 76.4484L223.625 75.3914C224.086 75.1472 224.589 74.9558 225.135 74.8171C225.687 74.6784 226.239 74.609 226.791 74.609C227.906 74.609 228.731 74.8504 229.266 75.3331C229.806 75.8159 230.076 76.5899 230.076 77.6553V83.881H229.027ZM225.827 82.9072C226.708 82.9072 227.4 82.6713 227.9 82.1997C228.407 81.728 228.66 81.0677 228.66 80.2188V79.3948L227.243 79.4531C226.117 79.4919 225.303 79.6639 224.803 79.9691C224.308 80.2687 224.06 80.7376 224.06 81.3757C224.06 81.8751 224.214 82.2552 224.521 82.516C224.834 82.7768 225.269 82.9072 225.827 82.9072Z" fill="#00CCFF"/>
<path d="M244.924 83.881V77.9466C244.924 77.2197 244.764 76.6759 244.446 76.3152C244.127 75.949 243.632 75.7659 242.961 75.7659C242.079 75.7659 241.428 76.0128 241.007 76.5067C240.586 77.0005 240.376 77.7607 240.376 78.7872V83.881H238.959V77.9466C238.959 77.2197 238.8 76.6759 238.481 76.3152C238.163 75.949 237.665 75.7659 236.988 75.7659C236.1 75.7659 235.449 76.0267 235.034 76.5483C234.624 77.0643 234.419 77.9133 234.419 79.0952V83.881H233.003V74.7588H234.155L234.385 76.0073H234.454C234.721 75.5634 235.096 75.2166 235.58 74.9669C236.069 74.7172 236.615 74.5924 237.218 74.5924C238.68 74.5924 239.636 75.1084 240.085 76.1405H240.154C240.432 75.6633 240.836 75.2859 241.365 75.0085C241.894 74.7311 242.497 74.5924 243.174 74.5924C244.233 74.5924 245.023 74.8587 245.547 75.3914C246.076 75.9185 246.34 76.7647 246.34 77.9299V83.881H244.924Z" fill="#00CCFF"/>
<path d="M82.3858 83.881H80.9351V78.1546H74.3647V83.881H72.9141V71.7125H74.3647V76.8895H80.9351V71.7125H82.3858V83.881Z" stroke="#2F2D2C" stroke-width="2" mask="url(#path-3-outside-1_51_563)"/>
<path d="M91.354 83.881L91.0724 82.5826H91.0042C90.5377 83.1541 90.0712 83.5425 89.6047 83.7478C89.144 83.9475 88.5666 84.0474 87.8725 84.0474C86.9453 84.0474 86.2171 83.8144 85.6881 83.3483C85.1647 82.8822 84.903 82.2191 84.903 81.3591C84.903 79.5169 86.4134 78.5514 89.4341 78.4626L91.0212 78.4127V77.8467C91.0212 77.1309 90.862 76.6038 90.5434 76.2653C90.2305 75.9213 89.7271 75.7493 89.033 75.7493C88.2537 75.7493 87.3719 75.9823 86.3878 76.4484L85.9526 75.3914C86.4134 75.1472 86.9168 74.9558 87.4629 74.8171C88.0148 74.6784 88.5666 74.609 89.1184 74.609C90.2334 74.609 91.0582 74.8504 91.593 75.3331C92.1334 75.8159 92.4036 76.5899 92.4036 77.6553V83.881H91.354ZM88.1541 82.9072C89.0359 82.9072 89.7271 82.6713 90.2277 82.1997C90.734 81.728 90.9871 81.0677 90.9871 80.2188V79.3948L89.5706 79.4531C88.4443 79.4919 87.6308 79.6639 87.1302 79.9691C86.6352 80.2687 86.3878 80.7376 86.3878 81.3757C86.3878 81.8751 86.5414 82.2552 86.8486 82.516C87.1614 82.7768 87.5966 82.9072 88.1541 82.9072Z" stroke="#2F2D2C" stroke-width="2" mask="url(#path-3-outside-1_51_563)"/>
<path d="M96.7469 83.881H95.3304V74.7588H103.181V83.881H101.747V75.9573H96.7469V83.881Z" stroke="#2F2D2C" stroke-width="2" mask="url(#path-3-outside-1_51_563)"/>
<path d="M107.516 74.7588V80.5434L107.456 82.0582L107.43 82.5326L112.49 74.7588H114.257V83.881H112.934V78.3045L112.96 77.2058L113.002 76.1238L107.951 83.881H106.185V74.7588H107.516Z" stroke="#2F2D2C" stroke-width="2" mask="url(#path-3-outside-1_51_563)"/>
<path d="M120.998 84.0474C119.644 84.0474 118.594 83.6424 117.849 82.8322C117.11 82.0166 116.74 80.8652 116.74 79.3781C116.74 77.8522 117.115 76.6731 117.866 75.8408C118.623 75.0085 119.698 74.5924 121.092 74.5924C121.541 74.5924 121.991 74.6395 122.44 74.7338C122.889 74.8282 123.242 74.9391 123.498 75.0668L123.063 76.2403C122.75 76.1183 122.409 76.0184 122.039 75.9407C121.669 75.8575 121.342 75.8159 121.058 75.8159C119.158 75.8159 118.208 76.9977 118.208 79.3615C118.208 80.4824 118.438 81.3424 118.899 81.9417C119.365 82.5409 120.054 82.8406 120.964 82.8406C121.743 82.8406 122.542 82.6769 123.362 82.3495V83.573C122.736 83.8893 121.948 84.0474 120.998 84.0474Z" stroke="#2F2D2C" stroke-width="2" mask="url(#path-3-outside-1_51_563)"/>
<path d="M131.34 83.881L131.058 82.5826H130.99C130.524 83.1541 130.057 83.5425 129.591 83.7478C129.13 83.9475 128.553 84.0474 127.858 84.0474C126.931 84.0474 126.203 83.8144 125.674 83.3483C125.151 82.8822 124.889 82.2191 124.889 81.3591C124.889 79.5169 126.399 78.5514 129.42 78.4626L131.007 78.4127V77.8467C131.007 77.1309 130.848 76.6038 130.529 76.2653C130.216 75.9213 129.713 75.7493 129.019 75.7493C128.24 75.7493 127.358 75.9823 126.374 76.4484L125.939 75.3914C126.399 75.1472 126.903 74.9558 127.449 74.8171C128.001 74.6784 128.553 74.609 129.104 74.609C130.219 74.609 131.044 74.8504 131.579 75.3331C132.119 75.8159 132.39 76.5899 132.39 77.6553V83.881H131.34ZM128.14 82.9072C129.022 82.9072 129.713 82.6713 130.214 82.1997C130.72 81.728 130.973 81.0677 130.973 80.2188V79.3948L129.557 79.4531C128.43 79.4919 127.617 79.6639 127.116 79.9691C126.621 80.2687 126.374 80.7376 126.374 81.3757C126.374 81.8751 126.527 82.2552 126.835 82.516C127.147 82.7768 127.583 82.9072 128.14 82.9072Z" stroke="#2F2D2C" stroke-width="2" mask="url(#path-3-outside-1_51_563)"/>
<path d="M141.622 75.9407H138.585V83.881H137.168V75.9407H134.164V74.7588H141.622V75.9407Z" stroke="#2F2D2C" stroke-width="2" mask="url(#path-3-outside-1_51_563)"/>
<path d="M144.891 78.5292H147.775C150.164 78.5292 151.359 79.3865 151.359 81.101C151.359 81.9999 151.046 82.688 150.42 83.1652C149.8 83.6424 148.89 83.881 147.689 83.881H143.474V74.7588H144.891V78.5292ZM144.891 79.7194V82.724H147.621C148.372 82.724 148.947 82.5964 149.345 82.3412C149.743 82.0859 149.942 81.7003 149.942 81.1843C149.942 80.6793 149.757 80.3103 149.387 80.0773C149.023 79.8387 148.42 79.7194 147.578 79.7194H144.891Z" stroke="#2F2D2C" stroke-width="2" mask="url(#path-3-outside-1_51_563)"/>
<path d="M165.942 77.0477C165.942 77.6414 165.765 78.0936 165.413 78.4043C165.066 78.7095 164.576 78.9148 163.945 79.0203V79.0952C164.741 79.2006 165.322 79.4281 165.686 79.7777C166.055 80.1272 166.24 80.61 166.24 81.2259C166.24 82.0748 165.919 82.7296 165.276 83.1901C164.639 83.6507 163.706 83.881 162.477 83.881H158.356V74.7588H162.46C164.781 74.7588 165.942 75.5218 165.942 77.0477ZM164.824 81.1343C164.824 80.6405 164.63 80.2826 164.244 80.0606C163.862 79.8331 163.228 79.7194 162.341 79.7194H159.772V82.724H162.375C164.007 82.724 164.824 82.1941 164.824 81.1343ZM164.559 77.1808C164.559 76.7369 164.383 76.4234 164.03 76.2403C163.683 76.0517 163.154 75.9573 162.443 75.9573H159.772V78.5292H162.17C163.046 78.5292 163.663 78.4238 164.022 78.2129C164.38 78.0021 164.559 77.658 164.559 77.1808Z" stroke="#2F2D2C" stroke-width="2" mask="url(#path-3-outside-1_51_563)"/>
<path d="M176.898 83.881H175.447V72.9693H171.497V71.7125H180.849V72.9693H176.898V83.881Z" stroke="#2F2D2C" stroke-width="2" mask="url(#path-3-outside-1_51_563)"/>
<path d="M186.472 84.0474C185.09 84.0474 183.998 83.6368 183.195 82.8156C182.399 81.9944 182.001 80.8541 182.001 79.3948C182.001 77.9244 182.371 76.7564 183.11 75.8908C183.855 75.0252 184.854 74.5924 186.105 74.5924C187.277 74.5924 188.204 74.9697 188.887 75.7243C189.57 76.4734 189.911 77.4638 189.911 78.6957V79.5696H183.469C183.497 80.6405 183.773 81.4534 184.296 82.0083C184.825 82.5631 185.568 82.8406 186.523 82.8406C187.53 82.8406 188.526 82.6353 189.51 82.2247V83.4565C189.009 83.6673 188.534 83.8172 188.085 83.9059C187.641 84.0003 187.104 84.0474 186.472 84.0474ZM186.088 75.7493C185.337 75.7493 184.737 75.9879 184.288 76.4651C183.844 76.9422 183.582 77.6025 183.503 78.446H188.392C188.392 77.5748 188.193 76.909 187.795 76.4484C187.397 75.9823 186.828 75.7493 186.088 75.7493Z" stroke="#2F2D2C" stroke-width="2" mask="url(#path-3-outside-1_51_563)"/>
<path d="M193.751 83.881H192.334V70.9302H193.751V83.881Z" stroke="#2F2D2C" stroke-width="2" mask="url(#path-3-outside-1_51_563)"/>
<path d="M200.705 84.0474C199.323 84.0474 198.231 83.6368 197.429 82.8156C196.632 81.9944 196.234 80.8541 196.234 79.3948C196.234 77.9244 196.604 76.7564 197.343 75.8908C198.089 75.0252 199.087 74.5924 200.338 74.5924C201.51 74.5924 202.438 74.9697 203.12 75.7243C203.803 76.4734 204.144 77.4638 204.144 78.6957V79.5696H197.702C197.73 80.6405 198.006 81.4534 198.529 82.0083C199.058 82.5631 199.801 82.8406 200.757 82.8406C201.763 82.8406 202.759 82.6353 203.743 82.2247V83.4565C203.242 83.6673 202.767 83.8172 202.318 83.9059C201.874 84.0003 201.337 84.0474 200.705 84.0474ZM200.321 75.7493C199.57 75.7493 198.97 75.9879 198.521 76.4651C198.077 76.9422 197.815 77.6025 197.736 78.446H202.625C202.625 77.5748 202.426 76.909 202.028 76.4484C201.63 75.9823 201.061 75.7493 200.321 75.7493Z" stroke="#2F2D2C" stroke-width="2" mask="url(#path-3-outside-1_51_563)"/>
<path d="M214.222 74.7588V75.6327L212.489 75.8325C212.649 76.0267 212.791 76.2819 212.916 76.5982C213.041 76.909 213.104 77.2613 213.104 77.6553C213.104 78.5486 212.791 79.2616 212.165 79.7943C211.539 80.327 210.68 80.5933 209.588 80.5933C209.309 80.5933 209.048 80.5711 208.803 80.5267C208.2 80.8375 207.899 81.2287 207.899 81.7003C207.899 81.95 208.004 82.1359 208.214 82.258C208.425 82.3745 208.786 82.4327 209.298 82.4327H210.954C211.966 82.4327 212.743 82.6408 213.283 83.057C213.829 83.4731 214.102 84.0779 214.102 84.8714C214.102 85.8813 213.687 86.6498 212.856 87.1769C212.026 87.7096 210.814 87.9759 209.221 87.9759C207.998 87.9759 207.054 87.754 206.388 87.3101C205.728 86.8662 205.398 86.2392 205.398 85.4291C205.398 84.8742 205.581 84.3942 205.945 83.9892C206.309 83.5841 206.821 83.3094 207.481 83.1652C207.242 83.0597 207.04 82.8961 206.875 82.6741C206.715 82.4522 206.636 82.1941 206.636 81.9001C206.636 81.5671 206.727 81.2758 206.909 81.0261C207.091 80.7764 207.378 80.5351 207.771 80.302C207.287 80.1078 206.892 79.7777 206.585 79.3116C206.283 78.8455 206.132 78.3128 206.132 77.7135C206.132 76.7147 206.44 75.9462 207.054 75.408C207.668 74.8642 208.539 74.5924 209.665 74.5924C210.154 74.5924 210.595 74.6478 210.988 74.7588H214.222ZM206.764 85.4124C206.764 85.9063 206.977 86.2808 207.404 86.536C207.83 86.7913 208.442 86.9189 209.238 86.9189C210.427 86.9189 211.306 86.7441 211.875 86.3945C212.45 86.0505 212.737 85.5817 212.737 84.9879C212.737 84.4941 212.581 84.1501 212.268 83.9559C211.955 83.7672 211.366 83.6729 210.501 83.6729H208.803C208.16 83.6729 207.66 83.8227 207.301 84.1223C206.943 84.422 206.764 84.852 206.764 85.4124ZM207.532 77.6802C207.532 78.3183 207.717 78.8011 208.086 79.1285C208.456 79.4558 208.971 79.6195 209.631 79.6195C211.013 79.6195 211.704 78.9648 211.704 77.6553C211.704 76.2847 211.005 75.5994 209.605 75.5994C208.94 75.5994 208.428 75.7742 208.069 76.1238C207.711 76.4734 207.532 76.9922 207.532 77.6802Z" stroke="#2F2D2C" stroke-width="2" mask="url(#path-3-outside-1_51_563)"/>
<path d="M220.408 74.5924C220.823 74.5924 221.196 74.6256 221.526 74.6922L221.33 75.974C220.943 75.8908 220.602 75.8491 220.306 75.8491C219.549 75.8491 218.901 76.1488 218.36 76.748C217.826 77.3473 217.558 78.0936 217.558 78.987V83.881H216.142V74.7588H217.311L217.473 76.4484H217.541C217.888 75.8547 218.306 75.3969 218.795 75.0751C219.285 74.7533 219.822 74.5924 220.408 74.5924Z" stroke="#2F2D2C" stroke-width="2" mask="url(#path-3-outside-1_51_563)"/>
<path d="M229.027 83.881L228.745 82.5826H228.677C228.21 83.1541 227.744 83.5425 227.277 83.7478C226.817 83.9475 226.239 84.0474 225.545 84.0474C224.618 84.0474 223.89 83.8144 223.361 83.3483C222.837 82.8822 222.576 82.2191 222.576 81.3591C222.576 79.5169 224.086 78.5514 227.107 78.4626L228.694 78.4127V77.8467C228.694 77.1309 228.535 76.6038 228.216 76.2653C227.903 75.9213 227.4 75.7493 226.706 75.7493C225.926 75.7493 225.044 75.9823 224.06 76.4484L223.625 75.3914C224.086 75.1472 224.589 74.9558 225.135 74.8171C225.687 74.6784 226.239 74.609 226.791 74.609C227.906 74.609 228.731 74.8504 229.266 75.3331C229.806 75.8159 230.076 76.5899 230.076 77.6553V83.881H229.027ZM225.827 82.9072C226.708 82.9072 227.4 82.6713 227.9 82.1997C228.407 81.728 228.66 81.0677 228.66 80.2188V79.3948L227.243 79.4531C226.117 79.4919 225.303 79.6639 224.803 79.9691C224.308 80.2687 224.06 80.7376 224.06 81.3757C224.06 81.8751 224.214 82.2552 224.521 82.516C224.834 82.7768 225.269 82.9072 225.827 82.9072Z" stroke="#2F2D2C" stroke-width="2" mask="url(#path-3-outside-1_51_563)"/>
<path d="M244.924 83.881V77.9466C244.924 77.2197 244.764 76.6759 244.446 76.3152C244.127 75.949 243.632 75.7659 242.961 75.7659C242.079 75.7659 241.428 76.0128 241.007 76.5067C240.586 77.0005 240.376 77.7607 240.376 78.7872V83.881H238.959V77.9466C238.959 77.2197 238.8 76.6759 238.481 76.3152C238.163 75.949 237.665 75.7659 236.988 75.7659C236.1 75.7659 235.449 76.0267 235.034 76.5483C234.624 77.0643 234.419 77.9133 234.419 79.0952V83.881H233.003V74.7588H234.155L234.385 76.0073H234.454C234.721 75.5634 235.096 75.2166 235.58 74.9669C236.069 74.7172 236.615 74.5924 237.218 74.5924C238.68 74.5924 239.636 75.1084 240.085 76.1405H240.154C240.432 75.6633 240.836 75.2859 241.365 75.0085C241.894 74.7311 242.497 74.5924 243.174 74.5924C244.233 74.5924 245.023 74.8587 245.547 75.3914C246.076 75.9185 246.34 76.7647 246.34 77.9299V83.881H244.924Z" stroke="#2F2D2C" stroke-width="2" mask="url(#path-3-outside-1_51_563)"/>
</g>
</g>
<defs>
<filter id="filter0_d_51_563" x="0.446533" y="0.854492" width="318.447" height="157.529" filterUnits="userSpaceOnUse" color-interpolation-filters="sRGB">
<feFlood flood-opacity="0" result="BackgroundImageFix"/>
<feColorMatrix in="SourceAlpha" type="matrix" values="0 0 0 0 0 0 0 0 0 0 0 0 0 0 0 0 0 0 127 0" result="hardAlpha"/>
<feOffset/>
<feGaussianBlur stdDeviation="25"/>
<feComposite in2="hardAlpha" operator="out"/>
<feColorMatrix type="matrix" values="0 0 0 0 0 0 0 0 0 0 0 0 0 0 0 0 0 0 0.5 0"/>
<feBlend mode="normal" in2="BackgroundImageFix" result="effect1_dropShadow_51_563"/>
<feBlend mode="normal" in="SourceGraphic" in2="effect1_dropShadow_51_563" result="shape"/>
</filter>
</defs>
</svg>
