<svg width="319" height="159" viewBox="0 0 319 159" fill="none" xmlns="http://www.w3.org/2000/svg">
<g id="Group 4293">
<g id="Rectangle 472" filter="url(#filter0_d_51_560)">
<path d="M50 50.8545H268.447V108.384H50V50.8545Z" fill="#222123"/>
<path d="M50.5 51.3545H267.947V107.884H50.5V51.3545Z" stroke="#2F2D2C"/>
</g>
<g id="&#208;&#157;&#208;&#176;&#208;&#191;&#208;&#184;&#209;&#129;&#208;&#176;&#209;&#130;&#209;&#140; &#208;&#178; WhatsApp">
<mask id="path-3-outside-1_51_560" maskUnits="userSpaceOnUse" x="67.0986" y="68.9302" width="184" height="21" fill="black">
<rect fill="white" x="67.0986" y="68.9302" width="184" height="21"/>
<path d="M77.5703 83.881H76.1197V78.1546H69.5493V83.881H68.0986V71.7125H69.5493V76.8895H76.1197V71.7125H77.5703V83.881Z"/>
<path d="M86.5386 83.881L86.257 82.5826H86.1887C85.7223 83.1541 85.2558 83.5425 84.7893 83.7478C84.3285 83.9475 83.7511 84.0474 83.0571 84.0474C82.1298 84.0474 81.4017 83.8144 80.8726 83.3483C80.3493 82.8822 80.0876 82.2191 80.0876 81.3591C80.0876 79.5169 81.5979 78.5514 84.6187 78.4626L86.2058 78.4127V77.8467C86.2058 77.1309 86.0465 76.6038 85.728 76.2653C85.4151 75.9213 84.9116 75.7493 84.2176 75.7493C83.4382 75.7493 82.5565 75.9823 81.5724 76.4484L81.1372 75.3914C81.5979 75.1472 82.1014 74.9558 82.6475 74.8171C83.1993 74.6784 83.7511 74.609 84.3029 74.609C85.4179 74.609 86.2428 74.8504 86.7775 75.3331C87.318 75.8159 87.5882 76.5899 87.5882 77.6553V83.881H86.5386ZM83.3387 82.9072C84.2204 82.9072 84.9116 82.6713 85.4122 82.1997C85.9185 81.728 86.1717 81.0677 86.1717 80.2188V79.3948L84.7552 79.4531C83.6288 79.4919 82.8153 79.6639 82.3147 79.9691C81.8198 80.2687 81.5724 80.7376 81.5724 81.3757C81.5724 81.8751 81.7259 82.2552 82.0331 82.516C82.346 82.7768 82.7812 82.9072 83.3387 82.9072Z"/>
<path d="M91.9315 83.881H90.515V74.7588H98.3654V83.881H96.9319V75.9573H91.9315V83.881Z"/>
<path d="M102.7 74.7588V80.5434L102.64 82.0582L102.615 82.5326L107.675 74.7588H109.441V83.881H108.119V78.3045L108.144 77.2058L108.187 76.1238L103.135 83.881H101.369V74.7588H102.7Z"/>
<path d="M116.182 84.0474C114.829 84.0474 113.779 83.6424 113.034 82.8322C112.294 82.0166 111.924 80.8652 111.924 79.3781C111.924 77.8522 112.3 76.6731 113.051 75.8408C113.807 75.0085 114.883 74.5924 116.276 74.5924C116.726 74.5924 117.175 74.6395 117.625 74.7338C118.074 74.8282 118.427 74.9391 118.683 75.0668L118.247 76.2403C117.935 76.1183 117.593 76.0184 117.224 75.9407C116.854 75.8575 116.527 75.8159 116.242 75.8159C114.342 75.8159 113.392 76.9977 113.392 79.3615C113.392 80.4824 113.623 81.3424 114.083 81.9417C114.55 82.5409 115.238 82.8406 116.148 82.8406C116.928 82.8406 117.727 82.6769 118.546 82.3495V83.573C117.92 83.8893 117.132 84.0474 116.182 84.0474Z"/>
<path d="M126.525 83.881L126.243 82.5826H126.175C125.708 83.1541 125.242 83.5425 124.775 83.7478C124.314 83.9475 123.737 84.0474 123.043 84.0474C122.116 84.0474 121.388 83.8144 120.859 83.3483C120.335 82.8822 120.074 82.2191 120.074 81.3591C120.074 79.5169 121.584 78.5514 124.605 78.4626L126.192 78.4127V77.8467C126.192 77.1309 126.032 76.6038 125.714 76.2653C125.401 75.9213 124.898 75.7493 124.204 75.7493C123.424 75.7493 122.542 75.9823 121.558 76.4484L121.123 75.3914C121.584 75.1472 122.087 74.9558 122.633 74.8171C123.185 74.6784 123.737 74.609 124.289 74.609C125.404 74.609 126.229 74.8504 126.763 75.3331C127.304 75.8159 127.574 76.5899 127.574 77.6553V83.881H126.525ZM123.325 82.9072C124.206 82.9072 124.898 82.6713 125.398 82.1997C125.904 81.728 126.158 81.0677 126.158 80.2188V79.3948L124.741 79.4531C123.615 79.4919 122.801 79.6639 122.301 79.9691C121.806 80.2687 121.558 80.7376 121.558 81.3757C121.558 81.8751 121.712 82.2552 122.019 82.516C122.332 82.7768 122.767 82.9072 123.325 82.9072Z"/>
<path d="M136.807 75.9407H133.769V83.881H132.353V75.9407H129.349V74.7588H136.807V75.9407Z"/>
<path d="M140.075 78.5292H142.959C145.349 78.5292 146.543 79.3865 146.543 81.101C146.543 81.9999 146.23 82.688 145.605 83.1652C144.984 83.6424 144.074 83.881 142.874 83.881H138.659V74.7588H140.075V78.5292ZM140.075 79.7194V82.724H142.806C143.557 82.724 144.131 82.5964 144.529 82.3412C144.928 82.0859 145.127 81.7003 145.127 81.1843C145.127 80.6793 144.942 80.3103 144.572 80.0773C144.208 79.8387 143.605 79.7194 142.763 79.7194H140.075Z"/>
<path d="M161.126 77.0477C161.126 77.6414 160.95 78.0936 160.597 78.4043C160.25 78.7095 159.761 78.9148 159.129 79.0203V79.0952C159.926 79.2006 160.506 79.4281 160.87 79.7777C161.24 80.1272 161.425 80.61 161.425 81.2259C161.425 82.0748 161.103 82.7296 160.461 83.1901C159.823 83.6507 158.89 83.881 157.662 83.881H153.54V74.7588H157.645C159.966 74.7588 161.126 75.5218 161.126 77.0477ZM160.008 81.1343C160.008 80.6405 159.815 80.2826 159.428 80.0606C159.047 79.8331 158.413 79.7194 157.525 79.7194H154.957V82.724H157.559C159.192 82.724 160.008 82.1941 160.008 81.1343ZM159.744 77.1808C159.744 76.7369 159.567 76.4234 159.215 76.2403C158.868 76.0517 158.339 75.9573 157.628 75.9573H154.957V78.5292H157.355C158.231 78.5292 158.848 78.4238 159.206 78.2129C159.565 78.0021 159.744 77.658 159.744 77.1808Z"/>
<path d="M179.131 83.881H177.697L175.18 75.7326C175.061 75.372 174.927 74.917 174.779 74.3676C174.631 73.8183 174.554 73.4881 174.549 73.3772C174.424 74.1096 174.224 74.9114 173.951 75.7826L171.511 83.881H170.077L166.758 71.7125H168.294L170.265 79.2283C170.538 80.2826 170.737 81.237 170.862 82.0915C171.016 81.0761 171.244 80.0828 171.545 79.1118L173.781 71.7125H175.317L177.663 79.1784C177.936 80.0385 178.167 81.0095 178.354 82.0915C178.463 81.3036 178.667 80.3436 178.969 79.2117L180.931 71.7125H182.467L179.131 83.881Z"/>
<path d="M190.608 83.881V77.9799C190.608 77.2363 190.434 76.6815 190.087 76.3152C189.74 75.949 189.197 75.7659 188.458 75.7659C187.473 75.7659 186.754 76.0267 186.299 76.5483C185.849 77.0699 185.625 77.9244 185.625 79.1118V83.881H184.208V70.9302H185.625V74.8504C185.625 75.322 185.602 75.7132 185.556 76.0239H185.642C185.92 75.5856 186.316 75.2416 186.828 74.9919C187.345 74.7366 187.934 74.609 188.594 74.609C189.738 74.609 190.594 74.8753 191.163 75.408C191.737 75.9351 192.024 76.7758 192.024 77.9299V83.881H190.608Z"/>
<path d="M200.694 83.881L200.412 82.5826H200.344C199.878 83.1541 199.411 83.5425 198.945 83.7478C198.484 83.9475 197.907 84.0474 197.213 84.0474C196.285 84.0474 195.557 83.8144 195.028 83.3483C194.505 82.8822 194.243 82.2191 194.243 81.3591C194.243 79.5169 195.753 78.5514 198.774 78.4626L200.361 78.4127V77.8467C200.361 77.1309 200.202 76.6038 199.883 76.2653C199.57 75.9213 199.067 75.7493 198.373 75.7493C197.594 75.7493 196.712 75.9823 195.728 76.4484L195.293 75.3914C195.753 75.1472 196.257 74.9558 196.803 74.8171C197.355 74.6784 197.907 74.609 198.458 74.609C199.573 74.609 200.398 74.8504 200.933 75.3331C201.473 75.8159 201.744 76.5899 201.744 77.6553V83.881H200.694ZM197.494 82.9072C198.376 82.9072 199.067 82.6713 199.568 82.1997C200.074 81.728 200.327 81.0677 200.327 80.2188V79.3948L198.911 79.4531C197.784 79.4919 196.971 79.6639 196.47 79.9691C195.975 80.2687 195.728 80.7376 195.728 81.3757C195.728 81.8751 195.881 82.2552 196.189 82.516C196.501 82.7768 196.937 82.9072 197.494 82.9072Z"/>
<path d="M207.691 82.9072C207.941 82.9072 208.183 82.8905 208.416 82.8572C208.65 82.8184 208.835 82.7795 208.971 82.7407V83.7977C208.817 83.8699 208.59 83.9281 208.288 83.9725C207.993 84.0225 207.725 84.0474 207.486 84.0474C205.677 84.0474 204.773 83.118 204.773 81.2592V75.8325H203.433V75.1666L204.773 74.5924L205.37 72.6447H206.189V74.7588H208.903V75.8325H206.189V81.2009C206.189 81.7502 206.323 82.1719 206.59 82.466C206.858 82.7601 207.225 82.9072 207.691 82.9072Z"/>
<path d="M216.881 81.3923C216.881 82.2413 216.557 82.8961 215.908 83.3566C215.26 83.8172 214.35 84.0474 213.178 84.0474C211.938 84.0474 210.971 83.856 210.277 83.4731V82.1914C210.726 82.4133 211.207 82.5881 211.719 82.7157C212.236 82.8433 212.734 82.9072 213.212 82.9072C213.952 82.9072 214.52 82.7934 214.919 82.5659C215.317 82.3329 215.516 81.9805 215.516 81.5089C215.516 81.1537 215.357 80.8513 215.038 80.6016C214.725 80.3464 214.111 80.0468 213.195 79.7028C212.325 79.3865 211.705 79.1118 211.335 78.8788C210.971 78.6402 210.698 78.3711 210.516 78.0714C210.339 77.7718 210.251 77.4139 210.251 76.9977C210.251 76.2542 210.561 75.6688 211.181 75.2416C211.801 74.8088 212.652 74.5924 213.733 74.5924C214.739 74.5924 215.724 74.7921 216.685 75.1916L216.182 76.3152C215.243 75.9379 214.392 75.7493 213.63 75.7493C212.959 75.7493 212.453 75.8519 212.111 76.0572C211.77 76.2625 211.599 76.5455 211.599 76.9062C211.599 77.1503 211.662 77.3584 211.787 77.5304C211.918 77.7024 212.125 77.8661 212.41 78.0215C212.694 78.1768 213.24 78.4016 214.048 78.6957C215.158 79.0896 215.906 79.4864 216.292 79.8859C216.685 80.2854 216.881 80.7875 216.881 81.3923Z"/>
<path d="M227.249 83.881L225.696 80.0107H220.696L219.16 83.881H217.692L222.624 71.6626H223.844L228.751 83.881H227.249ZM225.244 78.7373L223.793 74.9669C223.605 74.4897 223.412 73.9043 223.213 73.2107C223.088 73.7434 222.908 74.3288 222.675 74.9669L221.208 78.7373H225.244Z"/>
<path d="M234.604 84.0474C233.996 84.0474 233.438 83.9392 232.932 83.7228C232.431 83.5009 232.01 83.1624 231.669 82.7074H231.567C231.635 83.2401 231.669 83.745 231.669 84.2222V87.9759H230.253V74.7588H231.405L231.601 76.0073H231.669C232.033 75.5079 232.457 75.1472 232.94 74.9253C233.424 74.7033 233.979 74.5924 234.604 74.5924C235.845 74.5924 236.8 75.0057 237.472 75.8325C238.148 76.6593 238.487 77.819 238.487 79.3116C238.487 80.8097 238.143 81.975 237.454 82.8073C236.772 83.634 235.822 84.0474 234.604 84.0474ZM234.4 75.7659C233.444 75.7659 232.753 76.0239 232.326 76.54C231.899 77.056 231.68 77.8772 231.669 79.0036V79.3116C231.669 80.5933 231.888 81.5116 232.326 82.0665C232.764 82.6158 233.467 82.8905 234.434 82.8905C235.242 82.8905 235.873 82.5715 236.328 81.9333C236.789 81.2952 237.019 80.4158 237.019 79.2949C237.019 78.1574 236.789 77.2863 236.328 76.6815C235.873 76.0711 235.23 75.7659 234.4 75.7659Z"/>
<path d="M245.322 84.0474C244.713 84.0474 244.156 83.9392 243.649 83.7228C243.149 83.5009 242.728 83.1624 242.387 82.7074H242.284C242.352 83.2401 242.387 83.745 242.387 84.2222V87.9759H240.97V74.7588H242.122L242.318 76.0073H242.387C242.751 75.5079 243.174 75.1472 243.658 74.9253C244.142 74.7033 244.696 74.5924 245.322 74.5924C246.562 74.5924 247.518 75.0057 248.189 75.8325C248.866 76.6593 249.205 77.819 249.205 79.3116C249.205 80.8097 248.86 81.975 248.172 82.8073C247.489 83.634 246.539 84.0474 245.322 84.0474ZM245.117 75.7659C244.161 75.7659 243.47 76.0239 243.044 76.54C242.617 77.056 242.398 77.8772 242.387 79.0036V79.3116C242.387 80.5933 242.606 81.5116 243.044 82.0665C243.482 82.6158 244.184 82.8905 245.151 82.8905C245.959 82.8905 246.591 82.5715 247.046 81.9333C247.506 81.2952 247.737 80.4158 247.737 79.2949C247.737 78.1574 247.506 77.2863 247.046 76.6815C246.591 76.0711 245.948 75.7659 245.117 75.7659Z"/>
</mask>
<path d="M77.5703 83.881H76.1197V78.1546H69.5493V83.881H68.0986V71.7125H69.5493V76.8895H76.1197V71.7125H77.5703V83.881Z" fill="#15FF00"/>
<path d="M86.5386 83.881L86.257 82.5826H86.1887C85.7223 83.1541 85.2558 83.5425 84.7893 83.7478C84.3285 83.9475 83.7511 84.0474 83.0571 84.0474C82.1298 84.0474 81.4017 83.8144 80.8726 83.3483C80.3493 82.8822 80.0876 82.2191 80.0876 81.3591C80.0876 79.5169 81.5979 78.5514 84.6187 78.4626L86.2058 78.4127V77.8467C86.2058 77.1309 86.0465 76.6038 85.728 76.2653C85.4151 75.9213 84.9116 75.7493 84.2176 75.7493C83.4382 75.7493 82.5565 75.9823 81.5724 76.4484L81.1372 75.3914C81.5979 75.1472 82.1014 74.9558 82.6475 74.8171C83.1993 74.6784 83.7511 74.609 84.3029 74.609C85.4179 74.609 86.2428 74.8504 86.7775 75.3331C87.318 75.8159 87.5882 76.5899 87.5882 77.6553V83.881H86.5386ZM83.3387 82.9072C84.2204 82.9072 84.9116 82.6713 85.4122 82.1997C85.9185 81.728 86.1717 81.0677 86.1717 80.2188V79.3948L84.7552 79.4531C83.6288 79.4919 82.8153 79.6639 82.3147 79.9691C81.8198 80.2687 81.5724 80.7376 81.5724 81.3757C81.5724 81.8751 81.7259 82.2552 82.0331 82.516C82.346 82.7768 82.7812 82.9072 83.3387 82.9072Z" fill="#15FF00"/>
<path d="M91.9315 83.881H90.515V74.7588H98.3654V83.881H96.9319V75.9573H91.9315V83.881Z" fill="#15FF00"/>
<path d="M102.7 74.7588V80.5434L102.64 82.0582L102.615 82.5326L107.675 74.7588H109.441V83.881H108.119V78.3045L108.144 77.2058L108.187 76.1238L103.135 83.881H101.369V74.7588H102.7Z" fill="#15FF00"/>
<path d="M116.182 84.0474C114.829 84.0474 113.779 83.6424 113.034 82.8322C112.294 82.0166 111.924 80.8652 111.924 79.3781C111.924 77.8522 112.3 76.6731 113.051 75.8408C113.807 75.0085 114.883 74.5924 116.276 74.5924C116.726 74.5924 117.175 74.6395 117.625 74.7338C118.074 74.8282 118.427 74.9391 118.683 75.0668L118.247 76.2403C117.935 76.1183 117.593 76.0184 117.224 75.9407C116.854 75.8575 116.527 75.8159 116.242 75.8159C114.342 75.8159 113.392 76.9977 113.392 79.3615C113.392 80.4824 113.623 81.3424 114.083 81.9417C114.55 82.5409 115.238 82.8406 116.148 82.8406C116.928 82.8406 117.727 82.6769 118.546 82.3495V83.573C117.92 83.8893 117.132 84.0474 116.182 84.0474Z" fill="#15FF00"/>
<path d="M126.525 83.881L126.243 82.5826H126.175C125.708 83.1541 125.242 83.5425 124.775 83.7478C124.314 83.9475 123.737 84.0474 123.043 84.0474C122.116 84.0474 121.388 83.8144 120.859 83.3483C120.335 82.8822 120.074 82.2191 120.074 81.3591C120.074 79.5169 121.584 78.5514 124.605 78.4626L126.192 78.4127V77.8467C126.192 77.1309 126.032 76.6038 125.714 76.2653C125.401 75.9213 124.898 75.7493 124.204 75.7493C123.424 75.7493 122.542 75.9823 121.558 76.4484L121.123 75.3914C121.584 75.1472 122.087 74.9558 122.633 74.8171C123.185 74.6784 123.737 74.609 124.289 74.609C125.404 74.609 126.229 74.8504 126.763 75.3331C127.304 75.8159 127.574 76.5899 127.574 77.6553V83.881H126.525ZM123.325 82.9072C124.206 82.9072 124.898 82.6713 125.398 82.1997C125.904 81.728 126.158 81.0677 126.158 80.2188V79.3948L124.741 79.4531C123.615 79.4919 122.801 79.6639 122.301 79.9691C121.806 80.2687 121.558 80.7376 121.558 81.3757C121.558 81.8751 121.712 82.2552 122.019 82.516C122.332 82.7768 122.767 82.9072 123.325 82.9072Z" fill="#15FF00"/>
<path d="M136.807 75.9407H133.769V83.881H132.353V75.9407H129.349V74.7588H136.807V75.9407Z" fill="#15FF00"/>
<path d="M140.075 78.5292H142.959C145.349 78.5292 146.543 79.3865 146.543 81.101C146.543 81.9999 146.23 82.688 145.605 83.1652C144.984 83.6424 144.074 83.881 142.874 83.881H138.659V74.7588H140.075V78.5292ZM140.075 79.7194V82.724H142.806C143.557 82.724 144.131 82.5964 144.529 82.3412C144.928 82.0859 145.127 81.7003 145.127 81.1843C145.127 80.6793 144.942 80.3103 144.572 80.0773C144.208 79.8387 143.605 79.7194 142.763 79.7194H140.075Z" fill="#15FF00"/>
<path d="M161.126 77.0477C161.126 77.6414 160.95 78.0936 160.597 78.4043C160.25 78.7095 159.761 78.9148 159.129 79.0203V79.0952C159.926 79.2006 160.506 79.4281 160.87 79.7777C161.24 80.1272 161.425 80.61 161.425 81.2259C161.425 82.0748 161.103 82.7296 160.461 83.1901C159.823 83.6507 158.89 83.881 157.662 83.881H153.54V74.7588H157.645C159.966 74.7588 161.126 75.5218 161.126 77.0477ZM160.008 81.1343C160.008 80.6405 159.815 80.2826 159.428 80.0606C159.047 79.8331 158.413 79.7194 157.525 79.7194H154.957V82.724H157.559C159.192 82.724 160.008 82.1941 160.008 81.1343ZM159.744 77.1808C159.744 76.7369 159.567 76.4234 159.215 76.2403C158.868 76.0517 158.339 75.9573 157.628 75.9573H154.957V78.5292H157.355C158.231 78.5292 158.848 78.4238 159.206 78.2129C159.565 78.0021 159.744 77.658 159.744 77.1808Z" fill="#15FF00"/>
<path d="M179.131 83.881H177.697L175.18 75.7326C175.061 75.372 174.927 74.917 174.779 74.3676C174.631 73.8183 174.554 73.4881 174.549 73.3772C174.424 74.1096 174.224 74.9114 173.951 75.7826L171.511 83.881H170.077L166.758 71.7125H168.294L170.265 79.2283C170.538 80.2826 170.737 81.237 170.862 82.0915C171.016 81.0761 171.244 80.0828 171.545 79.1118L173.781 71.7125H175.317L177.663 79.1784C177.936 80.0385 178.167 81.0095 178.354 82.0915C178.463 81.3036 178.667 80.3436 178.969 79.2117L180.931 71.7125H182.467L179.131 83.881Z" fill="#15FF00"/>
<path d="M190.608 83.881V77.9799C190.608 77.2363 190.434 76.6815 190.087 76.3152C189.74 75.949 189.197 75.7659 188.458 75.7659C187.473 75.7659 186.754 76.0267 186.299 76.5483C185.849 77.0699 185.625 77.9244 185.625 79.1118V83.881H184.208V70.9302H185.625V74.8504C185.625 75.322 185.602 75.7132 185.556 76.0239H185.642C185.92 75.5856 186.316 75.2416 186.828 74.9919C187.345 74.7366 187.934 74.609 188.594 74.609C189.738 74.609 190.594 74.8753 191.163 75.408C191.737 75.9351 192.024 76.7758 192.024 77.9299V83.881H190.608Z" fill="#15FF00"/>
<path d="M200.694 83.881L200.412 82.5826H200.344C199.878 83.1541 199.411 83.5425 198.945 83.7478C198.484 83.9475 197.907 84.0474 197.213 84.0474C196.285 84.0474 195.557 83.8144 195.028 83.3483C194.505 82.8822 194.243 82.2191 194.243 81.3591C194.243 79.5169 195.753 78.5514 198.774 78.4626L200.361 78.4127V77.8467C200.361 77.1309 200.202 76.6038 199.883 76.2653C199.57 75.9213 199.067 75.7493 198.373 75.7493C197.594 75.7493 196.712 75.9823 195.728 76.4484L195.293 75.3914C195.753 75.1472 196.257 74.9558 196.803 74.8171C197.355 74.6784 197.907 74.609 198.458 74.609C199.573 74.609 200.398 74.8504 200.933 75.3331C201.473 75.8159 201.744 76.5899 201.744 77.6553V83.881H200.694ZM197.494 82.9072C198.376 82.9072 199.067 82.6713 199.568 82.1997C200.074 81.728 200.327 81.0677 200.327 80.2188V79.3948L198.911 79.4531C197.784 79.4919 196.971 79.6639 196.47 79.9691C195.975 80.2687 195.728 80.7376 195.728 81.3757C195.728 81.8751 195.881 82.2552 196.189 82.516C196.501 82.7768 196.937 82.9072 197.494 82.9072Z" fill="#15FF00"/>
<path d="M207.691 82.9072C207.941 82.9072 208.183 82.8905 208.416 82.8572C208.65 82.8184 208.835 82.7795 208.971 82.7407V83.7977C208.817 83.8699 208.59 83.9281 208.288 83.9725C207.993 84.0225 207.725 84.0474 207.486 84.0474C205.677 84.0474 204.773 83.118 204.773 81.2592V75.8325H203.433V75.1666L204.773 74.5924L205.37 72.6447H206.189V74.7588H208.903V75.8325H206.189V81.2009C206.189 81.7502 206.323 82.1719 206.59 82.466C206.858 82.7601 207.225 82.9072 207.691 82.9072Z" fill="#15FF00"/>
<path d="M216.881 81.3923C216.881 82.2413 216.557 82.8961 215.908 83.3566C215.26 83.8172 214.35 84.0474 213.178 84.0474C211.938 84.0474 210.971 83.856 210.277 83.4731V82.1914C210.726 82.4133 211.207 82.5881 211.719 82.7157C212.236 82.8433 212.734 82.9072 213.212 82.9072C213.952 82.9072 214.52 82.7934 214.919 82.5659C215.317 82.3329 215.516 81.9805 215.516 81.5089C215.516 81.1537 215.357 80.8513 215.038 80.6016C214.725 80.3464 214.111 80.0468 213.195 79.7028C212.325 79.3865 211.705 79.1118 211.335 78.8788C210.971 78.6402 210.698 78.3711 210.516 78.0714C210.339 77.7718 210.251 77.4139 210.251 76.9977C210.251 76.2542 210.561 75.6688 211.181 75.2416C211.801 74.8088 212.652 74.5924 213.733 74.5924C214.739 74.5924 215.724 74.7921 216.685 75.1916L216.182 76.3152C215.243 75.9379 214.392 75.7493 213.63 75.7493C212.959 75.7493 212.453 75.8519 212.111 76.0572C211.77 76.2625 211.599 76.5455 211.599 76.9062C211.599 77.1503 211.662 77.3584 211.787 77.5304C211.918 77.7024 212.125 77.8661 212.41 78.0215C212.694 78.1768 213.24 78.4016 214.048 78.6957C215.158 79.0896 215.906 79.4864 216.292 79.8859C216.685 80.2854 216.881 80.7875 216.881 81.3923Z" fill="#15FF00"/>
<path d="M227.249 83.881L225.696 80.0107H220.696L219.16 83.881H217.692L222.624 71.6626H223.844L228.751 83.881H227.249ZM225.244 78.7373L223.793 74.9669C223.605 74.4897 223.412 73.9043 223.213 73.2107C223.088 73.7434 222.908 74.3288 222.675 74.9669L221.208 78.7373H225.244Z" fill="#15FF00"/>
<path d="M234.604 84.0474C233.996 84.0474 233.438 83.9392 232.932 83.7228C232.431 83.5009 232.01 83.1624 231.669 82.7074H231.567C231.635 83.2401 231.669 83.745 231.669 84.2222V87.9759H230.253V74.7588H231.405L231.601 76.0073H231.669C232.033 75.5079 232.457 75.1472 232.94 74.9253C233.424 74.7033 233.979 74.5924 234.604 74.5924C235.845 74.5924 236.8 75.0057 237.472 75.8325C238.148 76.6593 238.487 77.819 238.487 79.3116C238.487 80.8097 238.143 81.975 237.454 82.8073C236.772 83.634 235.822 84.0474 234.604 84.0474ZM234.4 75.7659C233.444 75.7659 232.753 76.0239 232.326 76.54C231.899 77.056 231.68 77.8772 231.669 79.0036V79.3116C231.669 80.5933 231.888 81.5116 232.326 82.0665C232.764 82.6158 233.467 82.8905 234.434 82.8905C235.242 82.8905 235.873 82.5715 236.328 81.9333C236.789 81.2952 237.019 80.4158 237.019 79.2949C237.019 78.1574 236.789 77.2863 236.328 76.6815C235.873 76.0711 235.23 75.7659 234.4 75.7659Z" fill="#15FF00"/>
<path d="M245.322 84.0474C244.713 84.0474 244.156 83.9392 243.649 83.7228C243.149 83.5009 242.728 83.1624 242.387 82.7074H242.284C242.352 83.2401 242.387 83.745 242.387 84.2222V87.9759H240.97V74.7588H242.122L242.318 76.0073H242.387C242.751 75.5079 243.174 75.1472 243.658 74.9253C244.142 74.7033 244.696 74.5924 245.322 74.5924C246.562 74.5924 247.518 75.0057 248.189 75.8325C248.866 76.6593 249.205 77.819 249.205 79.3116C249.205 80.8097 248.86 81.975 248.172 82.8073C247.489 83.634 246.539 84.0474 245.322 84.0474ZM245.117 75.7659C244.161 75.7659 243.47 76.0239 243.044 76.54C242.617 77.056 242.398 77.8772 242.387 79.0036V79.3116C242.387 80.5933 242.606 81.5116 243.044 82.0665C243.482 82.6158 244.184 82.8905 245.151 82.8905C245.959 82.8905 246.591 82.5715 247.046 81.9333C247.506 81.2952 247.737 80.4158 247.737 79.2949C247.737 78.1574 247.506 77.2863 247.046 76.6815C246.591 76.0711 245.948 75.7659 245.117 75.7659Z" fill="#15FF00"/>
<path d="M77.5703 83.881H76.1197V78.1546H69.5493V83.881H68.0986V71.7125H69.5493V76.8895H76.1197V71.7125H77.5703V83.881Z" stroke="#2F2D2C" stroke-width="2" mask="url(#path-3-outside-1_51_560)"/>
<path d="M86.5386 83.881L86.257 82.5826H86.1887C85.7223 83.1541 85.2558 83.5425 84.7893 83.7478C84.3285 83.9475 83.7511 84.0474 83.0571 84.0474C82.1298 84.0474 81.4017 83.8144 80.8726 83.3483C80.3493 82.8822 80.0876 82.2191 80.0876 81.3591C80.0876 79.5169 81.5979 78.5514 84.6187 78.4626L86.2058 78.4127V77.8467C86.2058 77.1309 86.0465 76.6038 85.728 76.2653C85.4151 75.9213 84.9116 75.7493 84.2176 75.7493C83.4382 75.7493 82.5565 75.9823 81.5724 76.4484L81.1372 75.3914C81.5979 75.1472 82.1014 74.9558 82.6475 74.8171C83.1993 74.6784 83.7511 74.609 84.3029 74.609C85.4179 74.609 86.2428 74.8504 86.7775 75.3331C87.318 75.8159 87.5882 76.5899 87.5882 77.6553V83.881H86.5386ZM83.3387 82.9072C84.2204 82.9072 84.9116 82.6713 85.4122 82.1997C85.9185 81.728 86.1717 81.0677 86.1717 80.2188V79.3948L84.7552 79.4531C83.6288 79.4919 82.8153 79.6639 82.3147 79.9691C81.8198 80.2687 81.5724 80.7376 81.5724 81.3757C81.5724 81.8751 81.7259 82.2552 82.0331 82.516C82.346 82.7768 82.7812 82.9072 83.3387 82.9072Z" stroke="#2F2D2C" stroke-width="2" mask="url(#path-3-outside-1_51_560)"/>
<path d="M91.9315 83.881H90.515V74.7588H98.3654V83.881H96.9319V75.9573H91.9315V83.881Z" stroke="#2F2D2C" stroke-width="2" mask="url(#path-3-outside-1_51_560)"/>
<path d="M102.7 74.7588V80.5434L102.64 82.0582L102.615 82.5326L107.675 74.7588H109.441V83.881H108.119V78.3045L108.144 77.2058L108.187 76.1238L103.135 83.881H101.369V74.7588H102.7Z" stroke="#2F2D2C" stroke-width="2" mask="url(#path-3-outside-1_51_560)"/>
<path d="M116.182 84.0474C114.829 84.0474 113.779 83.6424 113.034 82.8322C112.294 82.0166 111.924 80.8652 111.924 79.3781C111.924 77.8522 112.3 76.6731 113.051 75.8408C113.807 75.0085 114.883 74.5924 116.276 74.5924C116.726 74.5924 117.175 74.6395 117.625 74.7338C118.074 74.8282 118.427 74.9391 118.683 75.0668L118.247 76.2403C117.935 76.1183 117.593 76.0184 117.224 75.9407C116.854 75.8575 116.527 75.8159 116.242 75.8159C114.342 75.8159 113.392 76.9977 113.392 79.3615C113.392 80.4824 113.623 81.3424 114.083 81.9417C114.55 82.5409 115.238 82.8406 116.148 82.8406C116.928 82.8406 117.727 82.6769 118.546 82.3495V83.573C117.92 83.8893 117.132 84.0474 116.182 84.0474Z" stroke="#2F2D2C" stroke-width="2" mask="url(#path-3-outside-1_51_560)"/>
<path d="M126.525 83.881L126.243 82.5826H126.175C125.708 83.1541 125.242 83.5425 124.775 83.7478C124.314 83.9475 123.737 84.0474 123.043 84.0474C122.116 84.0474 121.388 83.8144 120.859 83.3483C120.335 82.8822 120.074 82.2191 120.074 81.3591C120.074 79.5169 121.584 78.5514 124.605 78.4626L126.192 78.4127V77.8467C126.192 77.1309 126.032 76.6038 125.714 76.2653C125.401 75.9213 124.898 75.7493 124.204 75.7493C123.424 75.7493 122.542 75.9823 121.558 76.4484L121.123 75.3914C121.584 75.1472 122.087 74.9558 122.633 74.8171C123.185 74.6784 123.737 74.609 124.289 74.609C125.404 74.609 126.229 74.8504 126.763 75.3331C127.304 75.8159 127.574 76.5899 127.574 77.6553V83.881H126.525ZM123.325 82.9072C124.206 82.9072 124.898 82.6713 125.398 82.1997C125.904 81.728 126.158 81.0677 126.158 80.2188V79.3948L124.741 79.4531C123.615 79.4919 122.801 79.6639 122.301 79.9691C121.806 80.2687 121.558 80.7376 121.558 81.3757C121.558 81.8751 121.712 82.2552 122.019 82.516C122.332 82.7768 122.767 82.9072 123.325 82.9072Z" stroke="#2F2D2C" stroke-width="2" mask="url(#path-3-outside-1_51_560)"/>
<path d="M136.807 75.9407H133.769V83.881H132.353V75.9407H129.349V74.7588H136.807V75.9407Z" stroke="#2F2D2C" stroke-width="2" mask="url(#path-3-outside-1_51_560)"/>
<path d="M140.075 78.5292H142.959C145.349 78.5292 146.543 79.3865 146.543 81.101C146.543 81.9999 146.23 82.688 145.605 83.1652C144.984 83.6424 144.074 83.881 142.874 83.881H138.659V74.7588H140.075V78.5292ZM140.075 79.7194V82.724H142.806C143.557 82.724 144.131 82.5964 144.529 82.3412C144.928 82.0859 145.127 81.7003 145.127 81.1843C145.127 80.6793 144.942 80.3103 144.572 80.0773C144.208 79.8387 143.605 79.7194 142.763 79.7194H140.075Z" stroke="#2F2D2C" stroke-width="2" mask="url(#path-3-outside-1_51_560)"/>
<path d="M161.126 77.0477C161.126 77.6414 160.95 78.0936 160.597 78.4043C160.25 78.7095 159.761 78.9148 159.129 79.0203V79.0952C159.926 79.2006 160.506 79.4281 160.87 79.7777C161.24 80.1272 161.425 80.61 161.425 81.2259C161.425 82.0748 161.103 82.7296 160.461 83.1901C159.823 83.6507 158.89 83.881 157.662 83.881H153.54V74.7588H157.645C159.966 74.7588 161.126 75.5218 161.126 77.0477ZM160.008 81.1343C160.008 80.6405 159.815 80.2826 159.428 80.0606C159.047 79.8331 158.413 79.7194 157.525 79.7194H154.957V82.724H157.559C159.192 82.724 160.008 82.1941 160.008 81.1343ZM159.744 77.1808C159.744 76.7369 159.567 76.4234 159.215 76.2403C158.868 76.0517 158.339 75.9573 157.628 75.9573H154.957V78.5292H157.355C158.231 78.5292 158.848 78.4238 159.206 78.2129C159.565 78.0021 159.744 77.658 159.744 77.1808Z" stroke="#2F2D2C" stroke-width="2" mask="url(#path-3-outside-1_51_560)"/>
<path d="M179.131 83.881H177.697L175.18 75.7326C175.061 75.372 174.927 74.917 174.779 74.3676C174.631 73.8183 174.554 73.4881 174.549 73.3772C174.424 74.1096 174.224 74.9114 173.951 75.7826L171.511 83.881H170.077L166.758 71.7125H168.294L170.265 79.2283C170.538 80.2826 170.737 81.237 170.862 82.0915C171.016 81.0761 171.244 80.0828 171.545 79.1118L173.781 71.7125H175.317L177.663 79.1784C177.936 80.0385 178.167 81.0095 178.354 82.0915C178.463 81.3036 178.667 80.3436 178.969 79.2117L180.931 71.7125H182.467L179.131 83.881Z" stroke="#2F2D2C" stroke-width="2" mask="url(#path-3-outside-1_51_560)"/>
<path d="M190.608 83.881V77.9799C190.608 77.2363 190.434 76.6815 190.087 76.3152C189.74 75.949 189.197 75.7659 188.458 75.7659C187.473 75.7659 186.754 76.0267 186.299 76.5483C185.849 77.0699 185.625 77.9244 185.625 79.1118V83.881H184.208V70.9302H185.625V74.8504C185.625 75.322 185.602 75.7132 185.556 76.0239H185.642C185.92 75.5856 186.316 75.2416 186.828 74.9919C187.345 74.7366 187.934 74.609 188.594 74.609C189.738 74.609 190.594 74.8753 191.163 75.408C191.737 75.9351 192.024 76.7758 192.024 77.9299V83.881H190.608Z" stroke="#2F2D2C" stroke-width="2" mask="url(#path-3-outside-1_51_560)"/>
<path d="M200.694 83.881L200.412 82.5826H200.344C199.878 83.1541 199.411 83.5425 198.945 83.7478C198.484 83.9475 197.907 84.0474 197.213 84.0474C196.285 84.0474 195.557 83.8144 195.028 83.3483C194.505 82.8822 194.243 82.2191 194.243 81.3591C194.243 79.5169 195.753 78.5514 198.774 78.4626L200.361 78.4127V77.8467C200.361 77.1309 200.202 76.6038 199.883 76.2653C199.57 75.9213 199.067 75.7493 198.373 75.7493C197.594 75.7493 196.712 75.9823 195.728 76.4484L195.293 75.3914C195.753 75.1472 196.257 74.9558 196.803 74.8171C197.355 74.6784 197.907 74.609 198.458 74.609C199.573 74.609 200.398 74.8504 200.933 75.3331C201.473 75.8159 201.744 76.5899 201.744 77.6553V83.881H200.694ZM197.494 82.9072C198.376 82.9072 199.067 82.6713 199.568 82.1997C200.074 81.728 200.327 81.0677 200.327 80.2188V79.3948L198.911 79.4531C197.784 79.4919 196.971 79.6639 196.47 79.9691C195.975 80.2687 195.728 80.7376 195.728 81.3757C195.728 81.8751 195.881 82.2552 196.189 82.516C196.501 82.7768 196.937 82.9072 197.494 82.9072Z" stroke="#2F2D2C" stroke-width="2" mask="url(#path-3-outside-1_51_560)"/>
<path d="M207.691 82.9072C207.941 82.9072 208.183 82.8905 208.416 82.8572C208.65 82.8184 208.835 82.7795 208.971 82.7407V83.7977C208.817 83.8699 208.59 83.9281 208.288 83.9725C207.993 84.0225 207.725 84.0474 207.486 84.0474C205.677 84.0474 204.773 83.118 204.773 81.2592V75.8325H203.433V75.1666L204.773 74.5924L205.37 72.6447H206.189V74.7588H208.903V75.8325H206.189V81.2009C206.189 81.7502 206.323 82.1719 206.59 82.466C206.858 82.7601 207.225 82.9072 207.691 82.9072Z" stroke="#2F2D2C" stroke-width="2" mask="url(#path-3-outside-1_51_560)"/>
<path d="M216.881 81.3923C216.881 82.2413 216.557 82.8961 215.908 83.3566C215.26 83.8172 214.35 84.0474 213.178 84.0474C211.938 84.0474 210.971 83.856 210.277 83.4731V82.1914C210.726 82.4133 211.207 82.5881 211.719 82.7157C212.236 82.8433 212.734 82.9072 213.212 82.9072C213.952 82.9072 214.52 82.7934 214.919 82.5659C215.317 82.3329 215.516 81.9805 215.516 81.5089C215.516 81.1537 215.357 80.8513 215.038 80.6016C214.725 80.3464 214.111 80.0468 213.195 79.7028C212.325 79.3865 211.705 79.1118 211.335 78.8788C210.971 78.6402 210.698 78.3711 210.516 78.0714C210.339 77.7718 210.251 77.4139 210.251 76.9977C210.251 76.2542 210.561 75.6688 211.181 75.2416C211.801 74.8088 212.652 74.5924 213.733 74.5924C214.739 74.5924 215.724 74.7921 216.685 75.1916L216.182 76.3152C215.243 75.9379 214.392 75.7493 213.63 75.7493C212.959 75.7493 212.453 75.8519 212.111 76.0572C211.77 76.2625 211.599 76.5455 211.599 76.9062C211.599 77.1503 211.662 77.3584 211.787 77.5304C211.918 77.7024 212.125 77.8661 212.41 78.0215C212.694 78.1768 213.24 78.4016 214.048 78.6957C215.158 79.0896 215.906 79.4864 216.292 79.8859C216.685 80.2854 216.881 80.7875 216.881 81.3923Z" stroke="#2F2D2C" stroke-width="2" mask="url(#path-3-outside-1_51_560)"/>
<path d="M227.249 83.881L225.696 80.0107H220.696L219.16 83.881H217.692L222.624 71.6626H223.844L228.751 83.881H227.249ZM225.244 78.7373L223.793 74.9669C223.605 74.4897 223.412 73.9043 223.213 73.2107C223.088 73.7434 222.908 74.3288 222.675 74.9669L221.208 78.7373H225.244Z" stroke="#2F2D2C" stroke-width="2" mask="url(#path-3-outside-1_51_560)"/>
<path d="M234.604 84.0474C233.996 84.0474 233.438 83.9392 232.932 83.7228C232.431 83.5009 232.01 83.1624 231.669 82.7074H231.567C231.635 83.2401 231.669 83.745 231.669 84.2222V87.9759H230.253V74.7588H231.405L231.601 76.0073H231.669C232.033 75.5079 232.457 75.1472 232.94 74.9253C233.424 74.7033 233.979 74.5924 234.604 74.5924C235.845 74.5924 236.8 75.0057 237.472 75.8325C238.148 76.6593 238.487 77.819 238.487 79.3116C238.487 80.8097 238.143 81.975 237.454 82.8073C236.772 83.634 235.822 84.0474 234.604 84.0474ZM234.4 75.7659C233.444 75.7659 232.753 76.0239 232.326 76.54C231.899 77.056 231.68 77.8772 231.669 79.0036V79.3116C231.669 80.5933 231.888 81.5116 232.326 82.0665C232.764 82.6158 233.467 82.8905 234.434 82.8905C235.242 82.8905 235.873 82.5715 236.328 81.9333C236.789 81.2952 237.019 80.4158 237.019 79.2949C237.019 78.1574 236.789 77.2863 236.328 76.6815C235.873 76.0711 235.23 75.7659 234.4 75.7659Z" stroke="#2F2D2C" stroke-width="2" mask="url(#path-3-outside-1_51_560)"/>
<path d="M245.322 84.0474C244.713 84.0474 244.156 83.9392 243.649 83.7228C243.149 83.5009 242.728 83.1624 242.387 82.7074H242.284C242.352 83.2401 242.387 83.745 242.387 84.2222V87.9759H240.97V74.7588H242.122L242.318 76.0073H242.387C242.751 75.5079 243.174 75.1472 243.658 74.9253C244.142 74.7033 244.696 74.5924 245.322 74.5924C246.562 74.5924 247.518 75.0057 248.189 75.8325C248.866 76.6593 249.205 77.819 249.205 79.3116C249.205 80.8097 248.86 81.975 248.172 82.8073C247.489 83.634 246.539 84.0474 245.322 84.0474ZM245.117 75.7659C244.161 75.7659 243.47 76.0239 243.044 76.54C242.617 77.056 242.398 77.8772 242.387 79.0036V79.3116C242.387 80.5933 242.606 81.5116 243.044 82.0665C243.482 82.6158 244.184 82.8905 245.151 82.8905C245.959 82.8905 246.591 82.5715 247.046 81.9333C247.506 81.2952 247.737 80.4158 247.737 79.2949C247.737 78.1574 247.506 77.2863 247.046 76.6815C246.591 76.0711 245.948 75.7659 245.117 75.7659Z" stroke="#2F2D2C" stroke-width="2" mask="url(#path-3-outside-1_51_560)"/>
</g>
</g>
<defs>
<filter id="filter0_d_51_560" x="0" y="0.854492" width="318.447" height="157.529" filterUnits="userSpaceOnUse" color-interpolation-filters="sRGB">
<feFlood flood-opacity="0" result="BackgroundImageFix"/>
<feColorMatrix in="SourceAlpha" type="matrix" values="0 0 0 0 0 0 0 0 0 0 0 0 0 0 0 0 0 0 127 0" result="hardAlpha"/>
<feOffset/>
<feGaussianBlur stdDeviation="25"/>
<feComposite in2="hardAlpha" operator="out"/>
<feColorMatrix type="matrix" values="0 0 0 0 0 0 0 0 0 0 0 0 0 0 0 0 0 0 0.5 0"/>
<feBlend mode="normal" in2="BackgroundImageFix" result="effect1_dropShadow_51_560"/>
<feBlend mode="normal" in="SourceGraphic" in2="effect1_dropShadow_51_560" result="shape"/>
</filter>
</defs>
</svg>
